SplineFontDB: 3.2
FontName: LibertinusMono-Regular
FullName: Libertinus Mono Regular
FamilyName: Libertinus Mono
Weight: Regular
UComments: "2003-08-29: Created.+AAoA-2004-07-25: v(1.0) release candidate+AAoA-2005-12-28: v(1.1.0)stable+AAoA-2006-05-01: v(2.0.0)stable+AAoA-2007-01-10: v(2.3.0)stable"
Version: 5.1.7
ItalicAngle: 0
UnderlinePosition: -98
UnderlineWidth: 40
Ascent: 754
Descent: 246
InvalidEm: 0
LayerCount: 2
Layer: 0 0 "Back" 1
Layer: 1 0 "Fore" 0
XUID: [1021 975 16237491 13016554]
FSType: 0
OS2Version: 0
OS2_WeightWidthSlopeOnly: 0
OS2_UseTypoMetrics: 1
CreationTime: 1155510122
PfmFamily: 49
TTFWeight: 400
TTFWidth: 5
LineGap: 0
VLineGap: 0
OS2TypoAscent: 894
OS2TypoAOffset: 0
OS2TypoDescent: -246
OS2TypoDOffset: 0
OS2TypoLinegap: 0
OS2WinAscent: 894
OS2WinAOffset: 0
OS2WinDescent: 246
OS2WinDOffset: 0
HheadAscent: 894
HheadAOffset: 0
HheadDescent: -246
HheadDOffset: 0
OS2CapHeight: 613
OS2XHeight: 495
OS2FamilyClass: 261
OS2Vendor: 'QUE '
Lookup: 6 0 0 "'ccmp' Contextual Chaining Substitution" { "'ccmp' Contextual Chaining Substitution 1"  } ['ccmp' ('DFLT' <'dflt' > 'cyrl' <'dflt' > 'grek' <'dflt' > 'hebr' <'dflt' > 'latn' <'AZE ' 'CRT ' 'TRK ' 'dflt' > ) ]
Lookup: 1 0 0 "'locl' Localised Forms for Sami" { "'locl' Localised Forms for Sami-1"  } ['locl' ('latn' <'FIN ' 'ISM ' 'LSM ' 'NOR ' 'NSM ' 'SKS ' 'SSM ' 'SVE ' > ) ]
Lookup: 1 0 0 "Substitution dotless forms" { "Substitution dotless forms 1"  } []
Lookup: 1 0 0 "'zero' gestrichene Null" { "'zero' gestrichene Null 1"  } ['zero' ('DFLT' <'dflt' > 'cyrl' <'dflt' > 'grek' <'dflt' > 'latn' <'AZE ' 'CRT ' 'TRK ' 'dflt' > ) ]
Lookup: 1 0 0 "'ss01' Stilgruppe 1" { "'ss01' Stilgruppe 1 1"  } ['ss01' ('DFLT' <'dflt' > 'cyrl' <'dflt' > 'grek' <'dflt' > 'latn' <'AZE ' 'CRT ' 'TRK ' 'dflt' > ) ]
Lookup: 1 0 0 "'ss07' Swap Eng styles" { "'ss07' Swap Eng styles-1"  } ['ss07' ('DFLT' <'dflt' > 'cyrl' <'dflt' > 'grek' <'dflt' > 'hebr' <'dflt' > 'latn' <'dflt' > ) ]

StartChar: exclam
Encoding: 33 33 0
Width: 640
GlyphClass: 2
Flags: MW
LayerCount: 2
Fore
SplineSet
307 658 m 0
 331 658 360 639 360 585 c 0
 360 520 346 478 336 392 c 0
 323 284 323 224 321 210 c 0
 320 199 317 190 307 190 c 0
 297 190 294 197 293 203 c 0
 291 224 285 314 277 392 c 0
 268 480 254 515 254 585 c 0
 254 639 283 658 307 658 c 0
246 50 m 0
 246 82 274 110 307 110 c 0
 340 110 368 82 368 50 c 0
 368 18 340 -10 307 -10 c 0
 274 -10 246 18 246 50 c 0
EndSplineSet
EndChar

StartChar: quotedbl
Encoding: 34 34 1
Width: 640
GlyphClass: 2
Flags: MW
LayerCount: 2
Fore
SplineSet
198 363 m 1
 198 363 157 600 157 612 c 0
 157 641 176 667 218 667 c 0
 260.5 667 277 639.5 277 613 c 0
 277 592 236 363 236 363 c 1
 198 363 l 1
404 364 m 1
 404 364 363 601 363 613 c 0
 363 642 382 668 424 668 c 0
 466.5 668 483 640.5 483 614 c 0
 483 593 442 364 442 364 c 1
 404 364 l 1
EndSplineSet
EndChar

StartChar: numbersign
Encoding: 35 35 2
Width: 640
GlyphClass: 2
Flags: MW
LayerCount: 2
Fore
SplineSet
387 216.6 m 1
 410 394.6 l 1
 237 394.6 l 1
 213 216.6 l 1
 387 216.6 l 1
458 394.6 m 1
 434 216.6 l 1
 529 216.6 l 1
 522 153.6 l 1
 427 153.6 l 1
 400 -34 l 1
 352 -34 l 1
 377 153.6 l 1
 205 153.6 l 1
 178 -34 l 1
 131 -34 l 1
 157 153.6 l 1
 64 153.6 l 1
 72 216.6 l 1
 166 216.6 l 1
 189 394.6 l 1
 96 394.6 l 1
 104 458.6 l 1
 199 458.6 l 1
 225 660 l 1
 273 660 l 1
 246 458.6 l 1
 420 458.6 l 1
 445 660 l 1
 493 660 l 1
 467 458.6 l 1
 561 458.6 l 1
 553 394.6 l 1
 458 394.6 l 1
EndSplineSet
EndChar

StartChar: dollar
Encoding: 36 36 3
Width: 640
GlyphClass: 2
Flags: MW
LayerCount: 2
Fore
SplineSet
306 393 m 1
 320 619 l 1
 256 618 202 565 202 510 c 0
 202 453 253 417 306 393 c 1
343 287 m 1
 327 28 l 1
 413 29 460 71 460 150 c 0
 460 234 402 265 343 287 c 1
498 626 m 1
 510 574 516 546 519 498 c 1
 509 491 494 492 481 492 c 1
 462 548 436 601 362 615 c 1
 348 376 l 1
 370 368 389 362 402 357 c 0
 480 326 552 279 552 184 c 0
 552 121 513 59 450 24 c 0
 415 4 371 -6 325 -7 c 1
 320 -97 l 1
 311 -102 288 -103 276 -103 c 1
 282 -7 l 1
 210 -3 179 15 119 15 c 1
 106 64 101 88 97 165 c 1
 108 170 120 172 133 168 c 1
 154 83 205 40 284 30 c 1
 301 302 l 1
 294 304 288 307 281 309 c 0
 196 342 123 390 123 483 c 0
 123 586 215 650 322 653 c 1
 326 737 l 1
 337 741 355 743 370 743 c 1
 365 652 l 1
 438 648 442 633 498 626 c 1
EndSplineSet
EndChar

StartChar: percent
Encoding: 37 37 4
Width: 640
GlyphClass: 2
Flags: MW
LayerCount: 2
Fore
SplineSet
438 86 m 0
 438 38 462 27 479 27 c 0
 530 27 560 109 560 161 c 0
 560 209 534 217 521 217 c 0
 476 217 438 139 438 86 c 0
378 98 m 0
 378 180 438 256 512 256 c 0
 552 256 598 238 598 165 c 0
 598 98 554 -12 471 -12 c 0
 410 -12 378 45 378 98 c 0
364 521 m 0
 406 521 483 533 514 575 c 1
 556 559 l 1
 146 -12 l 1
 102 3 l 1
 461 503 l 1
 423 488 384 484 354 484 c 0
 331 484 293 494 274 505 c 1
 276 498 277 489 277 480 c 0
 277 416 233 303 149 303 c 0
 87 303 57 361 57 412 c 0
 57 500 118 571 190 571 c 0
 218 571 247 558 257 546 c 1
 311 521 346 521 364 521 c 0
116 401 m 0
 116 353 140 342 157 342 c 0
 208 342 239 423 239 476 c 0
 239 522 216 532 199 532 c 0
 154 532 116 454 116 401 c 0
EndSplineSet
EndChar

StartChar: parenleft
Encoding: 40 40 5
Width: 640
GlyphClass: 2
Flags: MW
LayerCount: 2
Fore
SplineSet
197 252 m 0
 197 438 317 605 484 707 c 1
 500 706 509 699 514 689 c 1
 469 653 294 510.9 294 252 c 0
 294 0 468 -149 514 -187 c 1
 510 -195 498 -202 484 -204 c 1
 208 -37.1 197 207 197 252 c 0
EndSplineSet
EndChar

StartChar: parenright
Encoding: 41 41 6
Width: 640
GlyphClass: 2
Flags: MW
LayerCount: 2
Fore
SplineSet
443 252 m 0
 443 66 323 -101 156 -203 c 1
 140 -202 131 -195 126 -185 c 1
 171 -149 346 -6.89999 346 252 c 0
 346 504 172 653 126 691 c 1
 130 699 142 706 156 708 c 1
 432 541.1 443 297 443 252 c 0
EndSplineSet
EndChar

StartChar: asterisk
Encoding: 42 42 7
Width: 640
GlyphClass: 2
Flags: MW
LayerCount: 2
Fore
SplineSet
307.899414062 368.91796875 m 1
 311.515625 413.498046875 341.54296875 468.38671875 341.075195312 520.174804688 c 0
 340.739257812 557.373046875 318.974609375 574.424804688 291.075195312 574.424804688 c 3
 263.174804688 574.424804688 240.174804688 559.525390625 240.174804688 520.974609375 c 0
 240.174804688 470.674804688 273.474609375 429.924804688 279.407226562 368.232421875 c 1
 237.71484375 384.315429688 194.00390625 429.078125 144.341796875 443.772460938 c 0
 108.669921875 454.326171875 86 438.498046875 77.84375 411.818359375 c 0
 69.6865234375 385.13671875 77.2099609375 358.786132812 114.076171875 347.514648438 c 0
 162.177734375 332.80859375 210.883789062 352.739257812 272.330078125 341.006835938 c 1
 244.760742188 305.838867188 189.173828125 277.125 160.6015625 233.928710938 c 0
 140.080078125 202.901367188 148.587890625 176.59375 171.717773438 160.994140625 c 0
 194.848632812 145.392578125 222.247070312 144.8828125 243.8046875 176.842773438 c 0
 271.932081994 218.542671041 267.112304688 270.947265625 296.642578125 325.814453125 c 1
 322.213867188 289.166992188 333.420898438 227.614257812 366.375976562 187.661132812 c 0
 390.047851562 158.96484375 417.693359375 159.409179688 439.374023438 176.967773438 c 0
 461.056640625 194.526367188 469.5546875 220.578125 445.293945312 250.538085938 c 0
 413.639648438 289.627929688 363.116210938 298.340820312 319.55859375 342.7265625 c 1
 362.081054688 356.465820312 424.221679688 349.1875 472.063476562 369.021484375 c 0
 506.426757812 383.268554688 514.084960938 409.8359375 503.6328125 435.703125 c 0
 493.180664062 461.572265625 470.751953125 477.315429688 435.0078125 462.874023438 c 0
 388.37109375 444.03125 363.0625 397.891601562 307.899414062 368.91796875 c 1
EndSplineSet
EndChar

StartChar: plus
Encoding: 43 43 8
Width: 640
GlyphClass: 2
Flags: MW
LayerCount: 2
Fore
SplineSet
288 472 m 2
 288 488 317 504 330 504 c 0
 340 504 352 499 352 487 c 2
 352 281 l 1
 571 281 l 2
 584 281 590 270 590 260 c 0
 590 248 571 221 554 221 c 2
 352 221 l 1
 352 29 l 2
 352 15 328 -1 308 -1 c 0
 298 -1 288 6 288 17 c 2
 288 221 l 1
 70 221 l 2
 58 221 50 230 50 240 c 0
 50 258 67 281 83 281 c 2
 288 281 l 1
 288 472 l 2
EndSplineSet
EndChar

StartChar: slash
Encoding: 47 47 9
Width: 640
GlyphClass: 2
Flags: MW
LayerCount: 2
Fore
SplineSet
490 727 m 1
 552 727 l 1
 144 -97 l 1
 82 -97 l 1
 490 727 l 1
EndSplineSet
EndChar

StartChar: one
Encoding: 49 49 10
Width: 640
GlyphClass: 2
Flags: MW
LayerCount: 2
Fore
SplineSet
385 134 m 2
 385 86 390 63 405 51 c 0
 418 40 469.5 36 502 35 c 1
 508 29 508 4 502 -2 c 1
 452 -1 401.3 0 350 0 c 0
 281 0 222 -1 173 -2 c 1
 167 4 167 29 173 35 c 1
 208 36 260 40 276 52 c 0
 293 65 300 88 300 134 c 2
 300 470 l 2
 300 507 296 532 280 532 c 0
 261 532 199 506 153 485 c 1
 144 492 135 511 133 523 c 1
 221 567 323 621.5 382 657 c 1
 386 657 388 656 388 651 c 0
 386 637 385 572 385 507 c 2
 385 134 l 2
EndSplineSet
EndChar

StartChar: two
Encoding: 50 50 11
Width: 640
GlyphClass: 2
Flags: MW
LayerCount: 2
Fore
SplineSet
123 505 m 0
 123 570 194 657 322 657 c 0
 431 657 525 612 525 495 c 0
 525 417 470 365 404 306 c 2
 288 201 l 2
 233 151 202 109 202 70 c 1
 413 70 l 2
 454 70 474 97 494 174 c 1
 506 176 520 173 527 168 c 1
 526 136 514 55 499 -2 c 1
 499 -2 447 0 410 0 c 2
 208 0 l 2
 171 0 105 -2 105 -2 c 1
 105 62 123 113 236 221 c 1
 321 300 l 1
 389 365 426 421 426 490 c 0
 426 594 356 619 315 619 c 0
 231 619 199 582 199 555 c 0
 199 546 198 537 200 529 c 0
 202 521 204 516 204 507 c 0
 204 483 184 463 164 463 c 0
 140 463 123 482 123 505 c 0
EndSplineSet
EndChar

StartChar: three
Encoding: 51 51 12
Width: 640
GlyphClass: 2
Flags: MW
LayerCount: 2
Fore
SplineSet
296 620 m 0
 260 620 190 609 190 540 c 0
 190 519 185 484 143 484 c 0
 114 484 102 505 102 520 c 0
 102 556 153 658 329 658 c 0
 392 658 434 642 460 618 c 0
 489 591 497 564 497 532 c 0
 497 475 470 431 371 389 c 1
 372 387 l 1
 443 376 541 334 541 216 c 0
 541 73 414 -10 271 -10 c 0
 199 -10 99 20 99 63 c 0
 99 80 124 100 149 100 c 0
 173 100 189 87 201 72 c 0
 215 53 206 28 276 28 c 0
 324 28 440 57 440 201 c 0
 440 323 355 340 277 340 c 0
 259 340 251 340 231 338 c 1
 225 373 l 1
 344 388 403 471 403 525 c 0
 403 594 356 620 296 620 c 0
EndSplineSet
EndChar

StartChar: four
Encoding: 52 52 13
Width: 640
GlyphClass: 2
Flags: MW
LayerCount: 2
Fore
SplineSet
354 548 m 1
 272 449 175 326 124 237 c 1
 354 237 l 1
 354 548 l 1
552 237 m 2
 563 237 566 230 566 219 c 0
 566 206 552 186 538 186 c 2
 438 186 l 1
 438 88 l 2
 438 41.3 488.7 38 538 35 c 1
 544 29 544 4 538 -2 c 1
 506 -1 431 0 392 0 c 0
 346 0 276 -1 244 -2 c 1
 238 4 238 29 244 35 c 1
 286.7 36.7 354 39.7 354 88 c 2
 354 186 l 1
 110 186 l 2
 80 186 73.3 214.7 72 231 c 1
 164 385 308 566 380 645 c 0
 384 649 393 658 399 658 c 2
 438 658 l 1
 440 654 l 1
 438 646 438 606 438 552 c 2
 438 237 l 1
 552 237 l 2
EndSplineSet
EndChar

StartChar: five
Encoding: 53 53 14
Width: 640
GlyphClass: 2
Flags: MW
LayerCount: 2
Fore
SplineSet
436 204 m 0
 436 322 366 368 276 368 c 0
 227 368 198 364 134 342 c 1
 175 653 l 1
 217 650 260 648 304 648 c 0
 368 648 435 653.8 501 660 c 1
 510 656 l 1
 490 582 l 1
 441 578 400 576 364 576 c 0
 306 576 260 578.8 218 585 c 1
 194 405 l 1
 216 413 266 422 318 422 c 0
 452 422 532 329 532 224 c 0
 532 88 427 -12 278 -12 c 0
 210 -12 108 25 108 69 c 0
 108 91 130 109 153 109 c 0
 178 109 198 93 214 75 c 0
 232 53 232 25 285 25 c 0
 368 25 436 101 436 204 c 0
EndSplineSet
EndChar

StartChar: six
Encoding: 54 54 15
Width: 640
GlyphClass: 2
Flags: MW
LayerCount: 2
Fore
SplineSet
180 332 m 1
 174 306.8 174 272 174 247 c 0
 174 62 273 26 327 26 c 0
 386 26 456 80 456 199 c 0
 456 253 436 356 300 356 c 0
 276 356 225 356 180 332 c 1
191 370 m 1
 232 385 297 394 328 394 c 0
 491 394 552 311 552 218 c 0
 552 125 481 -12 324 -12 c 0
 239 -12 86 32 86 251 c 0
 86 448.2 220 631.8 468 660 c 1
 478 655 480 643 480 630 c 1
 267 582.8 219 463.8 191 370 c 1
EndSplineSet
EndChar

StartChar: seven
Encoding: 55 55 16
Width: 640
GlyphClass: 2
Flags: MW
LayerCount: 2
Fore
SplineSet
222 572 m 2
 190 572 158 564 136 478 c 1
 125 477 115 478 104 481 c 1
 110.5 536.5 118.5 607.5 124 660 c 0
 124 663 125 663 128 663 c 0
 146 659 144 648 178 648 c 2
 434 648 l 2
 472 648 501 655 518 660 c 1
 534 647 l 1
 410 355 337 173 280 -11 c 1
 204 -14 l 1
 196 -6 l 1
 264 158 352 361 452 572 c 1
 222 572 l 2
EndSplineSet
EndChar

StartChar: nine
Encoding: 57 57 17
Width: 640
GlyphClass: 2
Flags: MW
LayerCount: 2
Fore
SplineSet
460 314 m 1
 466 339.2 466 374 466 399 c 0
 466 584 367 620 313 620 c 0
 254 620 184 566 184 447 c 0
 184 393 204 290 340 290 c 0
 364 290 415 290 460 314 c 1
449 276 m 1
 408 261 343 252 312 252 c 0
 149 252 88 335 88 428 c 0
 88 521 159 658 316 658 c 0
 401 658 554 614 554 395 c 0
 554 197.8 420 14.2 172 -14 c 1
 162 -9 160 3 160 16 c 1
 373 63.2 421 182.2 449 276 c 1
EndSplineSet
EndChar

StartChar: colon
Encoding: 58 58 18
Width: 640
GlyphClass: 2
Flags: MW
LayerCount: 2
Fore
SplineSet
252 96 m 0
 252 132 283 163 320 163 c 0
 357 163 388 132 388 96 c 0
 388 60 357 29 320 29 c 0
 283 29 252 60 252 96 c 0
252 389 m 0
 252 425 283 456 320 456 c 0
 357 456 388 425 388 389 c 0
 388 353 357 322 320 322 c 0
 283 322 252 353 252 389 c 0
EndSplineSet
EndChar

StartChar: semicolon
Encoding: 59 59 19
Width: 640
GlyphClass: 2
Flags: MW
LayerCount: 2
Fore
SplineSet
315 122 m 0
 363 122 396 71 396 -1 c 0
 396 -85 306 -151 244 -164 c 1
 236 -156 228 -140 228 -128 c 1
 290 -112 338 -56 338 -31 c 0
 338 -3 327 4 304 6 c 1
 282 10 251 21 251 59 c 0
 251 93 278 122 315 122 c 0
252 389 m 0
 252 425 283 456 320 456 c 0
 357 456 388 425 388 389 c 0
 388 353 357 322 320 322 c 0
 283 322 252 353 252 389 c 0
EndSplineSet
EndChar

StartChar: less
Encoding: 60 60 20
Width: 640
GlyphClass: 2
Flags: MW
LayerCount: 2
Fore
SplineSet
184 239 m 1
 532 88 l 1
 546 70 547 31 532 23 c 1
 104 208 l 1
 94 228 94 248 104 270 c 1
 532 454 l 1
 547 446 546 407 532 389 c 1
 184 239 l 1
EndSplineSet
EndChar

StartChar: equal
Encoding: 61 61 21
Width: 640
GlyphClass: 2
Flags: MW
LayerCount: 2
Fore
SplineSet
523 329 m 2
 105 329 l 2
 96 329 90 337 90 345 c 0
 90 360 103 379 115 379 c 2
 536 379 l 2
 546 379 550 370 550 362 c 0
 550 352 536 329 523 329 c 2
523 143 m 2
 105 143 l 2
 96 143 90 151 90 159 c 0
 90 174 103 193 115 193 c 2
 536 193 l 2
 546 193 550 184 550 176 c 0
 550 166 536 143 523 143 c 2
EndSplineSet
EndChar

StartChar: greater
Encoding: 62 62 22
Width: 640
GlyphClass: 2
Flags: MW
LayerCount: 2
Fore
SplineSet
456 236 m 1
 108 387 l 1
 94 405 93 444 108 452 c 1
 536 267 l 1
 546 247 546 227 536 205 c 1
 108 21 l 1
 93 29 94 68 108 86 c 1
 456 236 l 1
EndSplineSet
EndChar

StartChar: question
Encoding: 63 63 23
Width: 640
GlyphClass: 2
Flags: MW
LayerCount: 2
Fore
SplineSet
198 542 m 0
 198 527 200 521 205 516 c 0
 210 511 213 505 213 492 c 0
 213 469 194 457 171 457 c 0
 152 457 122 475 122 510 c 0
 122 548 147 584 183 608 c 1
 218 633 278 659 342 659 c 0
 464 659 533 586 533 488 c 0
 533 409 457 359 402 329 c 0
 373 313 351 296 340 279 c 0
 324 254 320 245 320 221 c 2
 320 184 l 2
 320 177 313 174 303 174 c 0
 293 174 287 177 287 184 c 2
 287 223 l 2
 287 266 291 318 367 369 c 0
 422 406 436 437 436 484 c 0
 436 558 399 622 321 622 c 0
 243 622 198 572 198 542 c 0
246 50 m 0
 246 82 274 110 307 110 c 0
 340 110 368 82 368 50 c 0
 368 18 340 -10 307 -10 c 0
 274 -10 246 18 246 50 c 0
EndSplineSet
EndChar

StartChar: at
Encoding: 64 64 24
Width: 640
GlyphClass: 2
Flags: MW
LayerCount: 2
Fore
SplineSet
383 298 m 0
 381 326 369 343 344 343 c 0
 332 343 303 336 283 314 c 0
 250 278 244 231 247 186 c 0
 250 147 254 120 292 120 c 0
 316 120 350 161 368 214 c 0
 375 236 385 273 383 298 c 0
424 119 m 0
 424 112 428 100 442 100 c 0
 486 100 535 150 535 284 c 0
 535 439 424 514 330 514 c 0
 221 514 100 420 100 238 c 0
 100 79 153 -40 331 -40 c 0
 392 -40 469 -20 526 11 c 1
 535 6 538 -1 542 -8 c 1
 452 -63 398 -80 317 -80 c 0
 134 -80 32 42 32 231 c 0
 32 406 167 549 338 549 c 0
 476 549 603 449 603 289 c 0
 603 196 556 73 407 73 c 0
 374 73 370 102 369 114 c 0
 368 126 372 143 377 162 c 1
 374 163 l 1
 346 107 299 85 274 85 c 0
 194 85 176 134 173 178 c 0
 165 286 250 371 344 371 c 0
 368 371 394 359 402 339 c 1
 404 357 l 1
 448 363 l 1
 459 359 l 1
 429 169 l 2
 425 149 424 124 424 119 c 0
EndSplineSet
EndChar

StartChar: A
Encoding: 65 65 25
Width: 640
GlyphClass: 2
Flags: MW
AnchorPoint: "below" 308 -104 basechar 0
AnchorPoint: "cedilla" 116 5 basechar 0
AnchorPoint: "above" 354 808 basechar 0
LayerCount: 2
Fore
SplineSet
243 269 m 2
 396 269 l 1
 302 527 l 1
 300 527 l 1
 218 282 l 2
 215 272 221 269 243 269 c 2
145 79 m 2
 132 40.3 176 37 214 35 c 1
 220 29 220 4 214 -2 c 1
 177 -1 135 0 96 0 c 0
 69.3 0 35 -1 7 -2 c 1
 1 4 1 29 7 35 c 1
 51 38 70 43 93 101 c 2
 290 606 l 1
 303 606 338 616 353 625 c 1
 559 86 l 2
 577 40 586 38 625 35 c 1
 631 29 631 4 625 -2 c 1
 595.3 -1 562 0 521 0 c 0
 482 0 427 -1 390 -2 c 1
 384 4 384 29 390 35 c 1
 438 38 481 44 470 72 c 2
 411 229 l 1
 225 229 l 2
 201 229 195 227 190 213 c 2
 145 79 l 2
EndSplineSet
EndChar

StartChar: B
Encoding: 66 66 26
Width: 640
GlyphClass: 2
Flags: MW
AnchorPoint: "middle" 330 176 basechar 0
AnchorPoint: "right" 513 695 basechar 0
AnchorPoint: "below" 272 -104 basechar 0
AnchorPoint: "cedilla" 244 0 basechar 0
AnchorPoint: "above" 271 808 basechar 0
LayerCount: 2
Fore
SplineSet
215 536 m 2
 215 348 l 1
 309 348 l 2
 392 348 441 376 441 457 c 0
 441 554 378 578 322 578 c 0
 235 578 215 567 215 536 c 2
215 315 m 1
 215 95 l 2
 215 39 248 35 318 35 c 0
 470 35 488 88 488 157 c 0
 488 243 441 315 304 315 c 2
 215 315 l 1
172 613 m 0
 215 613 282 616 317 616 c 0
 503 616 522 532 522 468 c 0
 522 416 477 368 427 344 c 1
 427 342 l 1
 514 318 581 266 581 175 c 0
 581 93 538 -2 339 -2 c 0
 250 -2 216 0 173 0 c 0
 122.3 0 92 -1 43 -2 c 1
 37 4 37 29 43 35 c 1
 113 38 122 39 122 118 c 2
 122 491 l 2
 122 570 113 575 43 578 c 1
 37 584 37 609 43 615 c 1
 81.7 614 121.7 613 172 613 c 0
EndSplineSet
EndChar

StartChar: C
Encoding: 67 67 27
Width: 640
GlyphClass: 2
Flags: MW
AnchorPoint: "middle" 346 299 basechar 0
AnchorPoint: "right" 609 695 basechar 0
AnchorPoint: "below" 356 -104 basechar 0
AnchorPoint: "cedilla" 359 -7 basechar 0
AnchorPoint: "above" 340 808 basechar 0
LayerCount: 2
Fore
SplineSet
354 -10 m 0
 154 -10 35 128 35 290 c 0
 35 470 175 625 362 625 c 0
 473 625 525 587 571 582 c 1
 579 530 587 484 591 435 c 1
 581 429 570 426 559 430 c 1
 536 512 476 587 352 587 c 0
 239 587 132 484 132 308 c 0
 132 169 217 31 353 31 c 0
 437 31 512 62 576 136 c 1
 586 136 599 126 603 117 c 1
 542 32 441 -10 354 -10 c 0
EndSplineSet
EndChar

StartChar: D
Encoding: 68 68 28
Width: 640
GlyphClass: 2
Flags: MW
AnchorPoint: "middle" 346 299 basechar 0
AnchorPoint: "right" 579 600 basechar 0
AnchorPoint: "below" 279 -104 basechar 0
AnchorPoint: "cedilla" 279 4 basechar 0
AnchorPoint: "above" 306 808 basechar 0
LayerCount: 2
Fore
SplineSet
182 85 m 2
 182 55 209 35 291 35 c 0
 409 35 500 78 500 270 c 0
 500 458 469 578 271 578 c 0
 230 578 182 563 182 530 c 2
 182 85 l 2
140 613 m 0
 176 613 247 616 302 616 c 0
 478 616 597 513 597 293 c 0
 597 59 435 -2 317 -2 c 0
 231 -2 175 0 141 0 c 0
 93.4 0 65 -1 19 -2 c 1
 13 4 13 29 19 35 c 1
 79 35 89 43 89 122 c 2
 89 491 l 2
 89 570 79 578 19 578 c 1
 13 584 13 609 19 615 c 1
 65 614 92.8 613 140 613 c 0
EndSplineSet
EndChar

StartChar: E
Encoding: 69 69 29
Width: 640
GlyphClass: 2
Flags: MW
AnchorPoint: "right" 519 695 basechar 0
AnchorPoint: "cedilla" 299 4 basechar 0
AnchorPoint: "below" 289 -104 basechar 0
AnchorPoint: "above" 273 808 basechar 0
LayerCount: 2
Fore
SplineSet
323 343 m 2
 408 343 411 356 414 408 c 1
 420 414 441 414 447 408 c 1
 445.7 380.7 445 358 445 326 c 0
 445 293.2 445 274 447 242 c 1
 441 236 420 236 414 242 c 1
 411 285 408 307 323 307 c 2
 215 307 l 1
 215 80 l 2
 215 54 229 39 251 39 c 2
 444 39 l 2
 520 39 555 94 575 162 c 1
 588 165 600 163 610 157 c 1
 602 109 587 46 573 -2 c 1
 573 -2 493 0 445 0 c 2
 155 0 l 1
 155 0 84 -1 35 -2 c 1
 29 4 29 29 35 35 c 1
 105 38 122 43 122 122 c 2
 122 491 l 2
 122 570 105 575 35 578 c 1
 29 584 29 609 35 615 c 1
 85 614 154 613 154 613 c 1
 494 613 l 2
 518 613 526 614 543 617 c 0
 546 617 547 616 547 614 c 0
 549 606 564 515 569 476 c 1
 559 472 548 469 536 471 c 1
 514 537 498 573 423 573 c 2
 251 573 l 2
 227 573 215 554 215 531 c 2
 215 343 l 1
 323 343 l 2
EndSplineSet
EndChar

StartChar: F
Encoding: 70 70 30
Width: 640
GlyphClass: 2
Flags: MW
AnchorPoint: "right" 519 695 basechar 0
AnchorPoint: "cedilla" 205 -1 basechar 0
AnchorPoint: "below" 221 -104 basechar 0
AnchorPoint: "above" 296 808 basechar 0
LayerCount: 2
Fore
SplineSet
375 297 m 2
 272 297 l 1
 272 122 l 2
 272 81 277 59 291 48 c 0
 304 38 356 36 389 35 c 1
 395 29 395 4 389 -2 c 1
 341.3 -1 292 0 230 0 c 0
 164.5 0 111 -1 62 -2 c 1
 56 4 56 29 62 35 c 1
 132 38 179 43 179 122 c 2
 179 510 l 2
 179 568 162 572 62 578 c 1
 56 584 56 609 62 615 c 1
 112 614 219 613 219 613 c 1
 534 613 l 2
 559 613 563 614 581 617 c 0
 583 617 585 616 585 614 c 0
 586 607 607 469 612 430 c 1
 604 427 592 425 580 425 c 1
 558 491 529 573 423 573 c 2
 338 573 l 2
 290 573 272 568 272 512 c 2
 272 333 l 1
 375 333 l 2
 458 333 453 346 456 398 c 1
 462 404 483 404 489 398 c 1
 487 371 487 348 487 316 c 0
 487 283.6 487 258 489 233 c 1
 483 227 462 227 456 233 c 1
 453 276 459 297 375 297 c 2
EndSplineSet
EndChar

StartChar: G
Encoding: 71 71 31
Width: 640
GlyphClass: 2
Flags: MW
AnchorPoint: "middle" 308 318 basechar 0
AnchorPoint: "right" 631 695 basechar 0
AnchorPoint: "cedilla" 367 2 basechar 0
AnchorPoint: "below" 367 -104 basechar 0
AnchorPoint: "above" 365 808 basechar 0
LayerCount: 2
Fore
SplineSet
359 625 m 0
 469 625 492 596 546 596 c 1
 552 528 557 480 565 440 c 1
 555 434 542 433 530 434 c 1
 507 516 477 590 347 590 c 0
 231 590 132 499 132 311 c 0
 132 156 203 28 366 28 c 0
 415 28 445 35 472 53 c 1
 472 193 l 2
 472 231 431 234 382 238 c 1
 377 244 377 268 382 274 c 1
 424 273 489 272 524 272 c 0
 560 272 591 273 618 274 c 1
 623 268 623 244 618 238 c 1
 592 235 566 226 566 193 c 2
 566 86 l 2
 566 76 571 69 581 60 c 1
 530 16 451 -10 345 -10 c 0
 155 -10 35 112 35 292 c 0
 35 538 197 625 359 625 c 0
EndSplineSet
EndChar

StartChar: grave
Encoding: 96 96 32
Width: 640
GlyphClass: 2
Flags: MW
LayerCount: 2
Fore
SplineSet
299.8 686 m 1
 423.6 542 l 2
 429.4 535.8 430 530 430 526 c 0
 430 515 424 510 406.8 510 c 0
 392.4 510 374.6 516 347.4 532 c 2
 149 652 l 1
 157 663 l 1
 179.4 670 195.8 689 271 689 c 0
 280.6 689 293.4 688 299.8 686 c 1
EndSplineSet
EndChar

StartChar: ograve
Encoding: 242 242 33
Width: 640
GlyphClass: 2
Flags: MW
AnchorPoint: "above" 325 834 basechar 0
AnchorPoint: "komb_OR" 490 396 basechar 0
LayerCount: 2
Fore
SplineSet
303 729 m 1
 373 603 l 2
 378 593 379 586 379 579 c 0
 379 574 372 568 364 568 c 0
 358 568 351 573 335 588 c 2
 221 697 l 1
 223 708 l 1
 231 714 254 731 288 731 c 0
 293 731 299 730 303 729 c 1
EndSplineSet
Refer: 115 111 N 1 0 0 1 0 0 2
EndChar

StartChar: oacute
Encoding: 243 243 34
Width: 640
GlyphClass: 2
Flags: MW
AnchorPoint: "above" 335 834 basechar 0
AnchorPoint: "komb_OR" 500 396 basechar 0
LayerCount: 2
Fore
SplineSet
348 729 m 1
 351 730 357 731 362 731 c 0
 368.4 731 394 730 417 708 c 1
 420 697 l 1
 305 588 l 2
 290 573 282 569 275 569 c 0
 268 569 261 575 261 582 c 0
 261 593.2 264.3 597.2 272.4 610 c 2
 348 729 l 1
EndSplineSet
Refer: 115 111 N 1 0 0 1 0 0 2
EndChar

StartChar: ocircumflex
Encoding: 244 244 35
Width: 640
GlyphClass: 2
Flags: MW
AnchorPoint: "above" 285 833 basechar 0
AnchorPoint: "komb_OR" 480 396 basechar 0
LayerCount: 2
Fore
SplineSet
347 722 m 1
 376 675 420 622 456 582 c 1
 451 575 442.4 566.9 433 565 c 1
 395 589 360 617 330 648 c 1
 298 616 265 587 226 565 c 1
 217 567 210 573 204 582 c 1
 240 622 286 676 315 722 c 1
 325.7 724.3 336.3 725 347 722 c 1
EndSplineSet
Refer: 115 111 N 1 0 0 1 0 0 2
EndChar

StartChar: otilde
Encoding: 245 245 36
Width: 640
GlyphClass: 2
Flags: MW
AnchorPoint: "above" 315 834 basechar 0
AnchorPoint: "komb_OR" 480 396 basechar 0
LayerCount: 2
Fore
SplineSet
394 642 m 0
 416 642 427 652 441 694 c 1
 452 695 462 692 468 688 c 1
 456 628 427 589 381 589 c 0
 359 589 337 605 317 621 c 0
 300.5 634.2 280 640 263 640 c 0
 237 640 227 625 217 592 c 1
 206 590 196 591 190 597 c 1
 204 656 227 695 270 695 c 0
 300 695 323.5 676.9 342 661 c 0
 356.3 648.7 375 642 394 642 c 0
EndSplineSet
Refer: 115 111 N 1 0 0 1 0 0 2
EndChar

StartChar: odieresis
Encoding: 246 246 37
Width: 640
GlyphClass: 2
Flags: MW
AnchorPoint: "above" 319 834 basechar 0
LayerCount: 2
Fore
SplineSet
194 644 m 0
 194 670 215 692 241 692 c 0
 267 692 288 670 288 644 c 0
 288 618 267 597 241 597 c 0
 215 597 194 618 194 644 c 0
373 644 m 0
 373 670 394 692 420 692 c 0
 446 692 467 670 467 644 c 0
 467 618 446 597 420 597 c 0
 394 597 373 618 373 644 c 0
EndSplineSet
Refer: 115 111 N 1 0 0 1 0 0 2
EndChar

StartChar: divide
Encoding: 247 247 38
Width: 640
GlyphClass: 2
Flags: MW
LayerCount: 2
Fore
SplineSet
571 281 m 2
 584 281 590 270 590 260 c 0
 590 248 571 221 554 221 c 2
 70 221 l 2
 58 221 50 230 50 240 c 0
 50 258 67 281 83 281 c 2
 571 281 l 2
278.3 118.8 m 0
 278.3 149 304.3 174.9 335.3 174.9 c 0
 366.3 174.9 392.3 149 392.3 118.8 c 0
 392.3 88.6 366.3 62.6 335.3 62.6 c 0
 304.3 62.6 278.3 88.6 278.3 118.8 c 0
278.3 396.8 m 0
 278.3 427 304.3 452.9 335.3 452.9 c 0
 366.3 452.9 392.3 427 392.3 396.8 c 0
 392.3 366.6 366.3 340.6 335.3 340.6 c 0
 304.3 340.6 278.3 366.6 278.3 396.8 c 0
EndSplineSet
EndChar

StartChar: ugrave
Encoding: 249 249 39
Width: 640
GlyphClass: 2
Flags: MW
AnchorPoint: "above" 295 834 basechar 0
LayerCount: 2
Fore
SplineSet
303 729 m 1
 373 603 l 2
 378 593 379 586 379 579 c 0
 379 574 372 568 364 568 c 0
 358 568 351 573 335 588 c 2
 221 697 l 1
 223 708 l 1
 231 714 254 731 288 731 c 0
 293 731 299 730 303 729 c 1
EndSplineSet
Refer: 121 117 N 1 0 0 1 0 0 2
EndChar

StartChar: uacute
Encoding: 250 250 40
Width: 640
GlyphClass: 2
Flags: MW
LayerCount: 2
Fore
SplineSet
348 729 m 1
 351 730 357 731 362 731 c 0
 368.4 731 394 730 417 708 c 1
 420 697 l 1
 305 588 l 2
 290 573 282 569 275 569 c 0
 268 569 261 575 261 582 c 0
 261 593.2 264.3 597.2 272.4 610 c 2
 348 729 l 1
EndSplineSet
Refer: 121 117 N 1 0 0 1 0 0 2
EndChar

StartChar: ucircumflex
Encoding: 251 251 41
Width: 640
GlyphClass: 2
Flags: MW
AnchorPoint: "above" 327 834 basechar 0
LayerCount: 2
Fore
SplineSet
337 722 m 1
 366 675 410 622 446 582 c 1
 441 575 432.4 566.9 423 565 c 1
 385 589 350 617 320 648 c 1
 288 616 255 587 216 565 c 1
 207 567 200 573 194 582 c 1
 230 622 276 676 305 722 c 1
 315.7 724.3 326.3 725 337 722 c 1
EndSplineSet
Refer: 121 117 N 1 0 0 1 0 0 2
EndChar

StartChar: ebreve
Encoding: 277 277 42
Width: 640
GlyphClass: 2
Flags: MW
AnchorPoint: "ogonek" 361 42 basechar 0
AnchorPoint: "cedilla" 242 -2 basechar 0
AnchorPoint: "below" 236 -110 basechar 0
AnchorPoint: "above" 227 795 basechar 0
LayerCount: 2
Fore
SplineSet
232 727 m 1
 243 674 286 637 340 637 c 0
 392 637 438 669 448 727 c 1
 475 715 l 1
 463 629 399 580 340 580 c 0
 270 580 219 630 205 715 c 1
 232 727 l 1
EndSplineSet
Refer: 105 101 N 1 0 0 1 0 0 2
EndChar

StartChar: Edotaccent
Encoding: 278 278 43
Width: 640
GlyphClass: 2
Flags: MW
AnchorPoint: "above" 273 970 basechar 0
AnchorPoint: "below" 279 -110 basechar 0
AnchorPoint: "cedilla" 279 4 basechar 0
AnchorPoint: "right" 519 732 basechar 0
LayerCount: 2
Fore
SplineSet
218 753 m 0
 218 781 242 805 270 805 c 0
 298 805 322 781 322 753 c 0
 322 725 298 701 270 701 c 0
 242 701 218 725 218 753 c 0
EndSplineSet
Refer: 29 69 N 1 0 0 1 0 0 2
EndChar

StartChar: edotaccent
Encoding: 279 279 44
Width: 640
GlyphClass: 2
Flags: MW
AnchorPoint: "above" 330 795 basechar 0
AnchorPoint: "ogonek" 461 42 basechar 0
AnchorPoint: "cedilla" 342 -2 basechar 0
AnchorPoint: "below" 336 -110 basechar 0
LayerCount: 2
Fore
SplineSet
274 650 m 0
 274 678 305 705 332 705 c 0
 362 705 386 673 386 645 c 0
 386 621 359 590 328 590 c 0
 301 590 274 620 274 650 c 0
EndSplineSet
Refer: 105 101 N 1 0 0 1 0 0 2
EndChar

StartChar: Eogonek
Encoding: 280 280 45
Width: 640
GlyphClass: 2
Flags: MW
AnchorPoint: "above" 273 850 basechar 0
AnchorPoint: "below" 279 -110 basechar 0
AnchorPoint: "cedilla" 279 4 basechar 0
AnchorPoint: "right" 519 732 basechar 0
LayerCount: 2
Fore
SplineSet
498 -135 m 1
 469 -180 429 -200 388 -200 c 0
 338 -200 300 -180 300 -126 c 0
 300 -84.4 335.8 -26.9 396.4 0 c 1
 155 0 l 1
 155 0 84 -1 35 -2 c 1
 29 4 29 29 35 35 c 1
 105 38 122 43 122 122 c 2
 122 491 l 2
 122 570 105 575 35 578 c 1
 29 584 29 609 35 615 c 1
 85 614 154 613 154 613 c 1
 494 613 l 2
 518 613 526 614 543 617 c 0
 546 617 547 616 547 614 c 0
 549 606 564 515 569 476 c 1
 559 472 548 469 536 471 c 1
 514 537 498 573 423 573 c 2
 251 573 l 2
 227 573 215 554 215 531 c 2
 215 343 l 1
 323 343 l 2
 408 343 411 356 414 408 c 1
 420 414 441 414 447 408 c 1
 445.7 380.7 445 358 445 326 c 0
 445 293.2 445 274 447 242 c 1
 441 236 420 236 414 242 c 1
 411 285 408 307 323 307 c 2
 215 307 l 1
 215 80 l 2
 215 54 229 39 251 39 c 2
 444 39 l 2
 520 39 555 94 575 162 c 1
 588 165 600 163 610 157 c 1
 602 109 587 46 573 -2 c 1
 573 -2 524.7 -0.8 480.6 -0.3 c 1
 482 -2 l 1
 411 -2 362 -69 362 -115 c 0
 362 -141 375 -162 412 -162 c 0
 441 -162 457 -146 479 -124 c 1
 488 -124 494 -128 498 -135 c 1
EndSplineSet
EndChar

StartChar: eogonek
Encoding: 281 281 46
Width: 640
GlyphClass: 2
Flags: MW
AnchorPoint: "below" 70 -108 basechar 0
AnchorPoint: "above" 231 645 basechar 0
LayerCount: 2
Fore
SplineSet
507 -135 m 1
 478 -180 438 -200 397 -200 c 0
 347 -200 309 -180 309 -126 c 0
 309 -84 345 -44.2 396.8 -6.3 c 1
 380.6 -8.7 364 -10 347 -10 c 0
 259 -10 182 16 140 61 c 1
 99 103 78 164 78 226 c 0
 78 395 209 490 347 490 c 0
 517 490 573 378 573 284 c 0
 573 272 563 255 549 255 c 2
 174 255 l 1
 174 189 186 158 211 120 c 1
 252 62 312.8 40 377 40 c 0
 452 40 504 66 551 109 c 1
 566 108 571 98 574 87 c 1
 546.2 54.8 508.3 28.5 464 11.4 c 1
 400.3 -41.5 371 -71.4 371 -115 c 0
 371 -141 384 -162 421 -162 c 0
 450 -162 466 -146 488 -124 c 1
 497 -124 503 -128 507 -135 c 1
179 296 m 1
 453 300 l 2
 467 300.2 473 316 473 326 c 0
 473 422 393 450 345 450 c 0
 281 450 202 416 179 296 c 1
EndSplineSet
EndChar

StartChar: Ecaron
Encoding: 282 282 47
Width: 640
GlyphClass: 2
Flags: MW
LayerCount: 2
Fore
SplineSet
308 697 m 1
 278 734 243 764 207 792 c 1
 223 812 l 1
 262 795 296 776 329 751 c 1
 366 777 398 796 436 812 c 1
 451 792 l 1
 413 763 381 731 351 697 c 1
 308 697 l 1
EndSplineSet
Refer: 29 69 N 1 0 0 1 0 0 2
EndChar

StartChar: ecaron
Encoding: 283 283 48
Width: 640
GlyphClass: 2
Flags: MW
LayerCount: 2
Fore
SplineSet
315 584 m 1
 286 631 249 676 214 714 c 1
 234 727 l 1
 273 698 306 673 340 637 c 1
 377 675 411 700 448 727 c 1
 467 714 l 1
 432 675 394 630 365 584 c 1
 315 584 l 1
EndSplineSet
Refer: 105 101 N 1 0 0 1 0 0 2
EndChar

StartChar: Gcircumflex
Encoding: 284 284 49
Width: 640
GlyphClass: 2
Flags: MW
LayerCount: 2
Fore
SplineSet
373 808 m 1
 403 772 440 738 476 711 c 1
 473.2 701.9 469.1 693.8 460 690 c 1
 421 708 387 726 354 751 c 1
 317 724 285 707 247 690 c 1
 238 696 235 702 233 711 c 1
 270 739 303 774 334 808 c 1
 348 816.4 357.6 815.7 373 808 c 1
EndSplineSet
Refer: 31 71 N 1 0 0 1 0 0 2
EndChar

StartChar: gcircumflex
Encoding: 285 285 50
Width: 640
GlyphClass: 2
Flags: MW
LayerCount: 2
Fore
SplineSet
307 722 m 1
 336 675 380 622 416 582 c 1
 411 575 402.4 566.9 393 565 c 1
 355 589 320 617 290 648 c 1
 258 616 225 587 186 565 c 1
 177 567 170 573 164 582 c 1
 200 622 246 676 275 722 c 1
 285.7 724.3 296.3 725 307 722 c 1
EndSplineSet
Refer: 107 103 N 1 0 0 1 0 0 2
EndChar

StartChar: Gbreve
Encoding: 286 286 51
Width: 640
GlyphClass: 2
Flags: MW
LayerCount: 2
Fore
SplineSet
488 806 m 1
 482 735 418 693 352 693 c 0
 279 693 221 736 216 806 c 1
 244 806 l 1
 252 767 299 745 352 745 c 0
 401 745 453 767 460 806 c 1
 488 806 l 1
EndSplineSet
Refer: 31 71 N 1 0 0 1 0 0 2
EndChar

StartChar: gbreve
Encoding: 287 287 52
Width: 640
GlyphClass: 2
Flags: MW
LayerCount: 2
Fore
SplineSet
172 727 m 1
 183 674 226 637 280 637 c 0
 332 637 378 669 388 727 c 1
 415 715 l 1
 403 629 339 580 280 580 c 0
 210 580 159 630 145 715 c 1
 172 727 l 1
EndSplineSet
Refer: 107 103 N 1 0 0 1 0 0 2
EndChar

StartChar: Gdotaccent
Encoding: 288 288 53
Width: 640
GlyphClass: 2
Flags: MW
LayerCount: 2
Fore
SplineSet
304 763 m 0
 304 791 328 815 356 815 c 0
 384 815 408 791 408 763 c 0
 408 735 384 711 356 711 c 0
 328 711 304 735 304 763 c 0
EndSplineSet
Refer: 31 71 N 1 0 0 1 0 0 2
EndChar

StartChar: gdotaccent
Encoding: 289 289 54
Width: 640
GlyphClass: 2
Flags: MW
LayerCount: 2
Fore
SplineSet
234 650 m 0
 234 678 265 705 292 705 c 0
 322 705 346 673 346 645 c 0
 346 621 319 590 288 590 c 0
 261 590 234 620 234 650 c 0
EndSplineSet
Refer: 107 103 N 1 0 0 1 0 0 2
EndChar

StartChar: uni0122
Encoding: 290 290 55
Width: 640
GlyphClass: 2
Flags: MW
LayerCount: 2
Fore
SplineSet
375 -41 m 0
 413 -41 437 -75 437 -127 c 0
 437 -187 388 -217 331 -226 c 1
 325 -220 323 -211 323 -202 c 1
 372 -191 398 -167 398 -149 c 0
 398 -129 385 -125 367 -123 c 1
 350 -120 325 -111 325 -84 c 0
 325 -60 346 -41 375 -41 c 0
EndSplineSet
Refer: 31 71 N 1 0 0 1 0 0 2
EndChar

StartChar: uni0123
Encoding: 291 291 56
Width: 640
GlyphClass: 2
Flags: MW
LayerCount: 2
Fore
SplineSet
287 562 m 0
 248 562 225 599 225 635 c 0
 225 659 232 681 248 701 c 0
 264.9 722.1 293 739 331 744 c 1
 335 740 336 731 336 724 c 1
 279 712 259 680 259 657 c 0
 259 637.4 263.8 644 288 644 c 0
 328 644 338 620 338 603 c 0
 338 587 322 562 287 562 c 0
EndSplineSet
Refer: 107 103 N 1 0 0 1 0 0 2
EndChar

StartChar: Hcircumflex
Encoding: 292 292 57
Width: 640
GlyphClass: 2
Flags: MW
LayerCount: 2
Fore
SplineSet
338 806 m 1
 368 770 405 736 441 709 c 1
 438.2 699.9 434.1 691.8 425 688 c 1
 386 706 352 724 319 749 c 1
 282 722 250 705 212 688 c 1
 203 694 200 700 198 709 c 1
 235 737 268 772 299 806 c 1
 313 814.4 322.6 813.7 338 806 c 1
EndSplineSet
Refer: 77 72 N 1 0 0 1 0 0 2
EndChar

StartChar: hcircumflex
Encoding: 293 293 58
Width: 640
GlyphClass: 2
Flags: MW
LayerCount: 2
Fore
SplineSet
389.3 733.9 m 1
 415.4 684.6 455 628.9 487.4 586.9 c 1
 482.9 579.6 473.1 571.1 464.7 569.1 c 1
 430.5 594.3 401 621.7 374 654.2 c 1
 345.2 620.6 317.5 592.2 282.4 569.1 c 1
 274.3 571.2 266 577.4 260.6 586.9 c 1
 293 628.9 334.4 685.6 360.5 733.9 c 1
 370.1 736.3 379.7 737.1 389.3 733.9 c 1
EndSplineSet
Refer: 108 104 N 1 0 0 1 0 0 2
EndChar

StartChar: Hbar
Encoding: 294 294 59
Width: 640
GlyphClass: 2
Flags: MW
LayerCount: 2
Fore
SplineSet
548 122 m 2
 548 43 551 38 621 35 c 1
 627 29 627 4 621 -2 c 1
 577 -1 531 0 502 0 c 0
 472 0 428 -1 387 -2 c 1
 381 4 381 29 387 35 c 1
 454 38 458 43 458 122 c 2
 458 305 l 1
 182 305 l 1
 182 122 l 2
 182 43 185 38 253 35 c 1
 259 29 259 4 253 -2 c 1
 211 -1 167 0 139 0 c 0
 108 0 62 -1 19 -2 c 1
 13 4 13 29 19 35 c 1
 90 39 91.8 43 92 122 c 2
 93 486 l 1
 1 486 l 1
 1 519 l 1
 92.9 519 l 1
 91.9 571.2 83.4 575.4 20 578 c 1
 14 584 14 609 20 615 c 1
 63 614 107 613 139 613 c 0
 165 613 211 614 254 615 c 1
 260 609 260 584 254 578 c 1
 194.1 575.4 184.6 571.2 183.2 519 c 1
 457.8 519 l 1
 456.8 571.9 448.7 575.4 387 578 c 1
 381 584 381 609 387 615 c 1
 431 614 477 613 501 613 c 0
 525 613 578 614 621 615 c 1
 627 609 627 584 621 578 c 1
 559.5 574.5 549.7 570.2 548.2 519 c 1
 636 519 l 1
 636 486 l 1
 548 486 l 1
 548 122 l 2
458 486 m 1
 182.9 486 l 1
 182 345 l 1
 458 345 l 1
 458 486 l 1
EndSplineSet
EndChar

StartChar: hbar
Encoding: 295 295 60
Width: 640
GlyphClass: 2
Flags: MW
LayerCount: 2
Fore
SplineSet
201 316.9 m 2
 201 122 l 2
 201 40 210 39 260.8 35 c 1
 266.8 29 266.8 4 260.8 -2 c 1
 230.7 -1 197 0 158 0 c 0
 115 0 73.3 -1 34.2 -2 c 1
 28.2 4 28.2 29 34.2 35 c 1
 101 37 114 39 114 122 c 2
 114 526 l 1
 22 526 l 2
 13 526 9 537 9 544 c 0
 9 556 20 576 31 576 c 2
 113.8 576 l 1
 112.4 634.8 101.2 639.2 36 641 c 1
 30 647 28 663 30 671 c 1
 70 674 167 688 192 698 c 1
 201 698 205 695 205 688 c 2
 205 688 201.3 648 201 583 c 2
 201 576 l 1
 276 576 l 2
 286 576 290 565 290 559 c 0
 290 547 279 526 266 526 c 2
 200.8 526 l 1
 200.2 400 l 2
 200.2 386 206.6 389.2 210 393 c 0
 271 461 347 490 419 490 c 0
 454 490 489.2 478 506 456 c 0
 529.3 425.5 533 377 533 322 c 2
 533 122 l 2
 533 42 551 40 610 35 c 1
 615 29 615 4 610 -2 c 1
 567 -1 522 0 490 0 c 0
 456 0 419.3 -1 384 -2 c 1
 379 4 379 29 384 35 c 1
 436 40 446 41 446 122 c 2
 446 321 l 2
 446 351 444 378.2 434 398 c 0
 422.4 420.9 401.4 434 381 434 c 0
 320 434 256 396.3 218 359 c 0
 210 350.3 201 338 201 316.9 c 2
EndSplineSet
EndChar

StartChar: Itilde
Encoding: 296 296 61
Width: 640
GlyphClass: 2
Flags: MW
LayerCount: 2
Fore
SplineSet
379 752 m 0
 401 752 412 762 426 804 c 1
 437 805 447 802 453 798 c 1
 441 738 412 699 366 699 c 0
 344 699 322 715 302 731 c 0
 285.5 744.2 265 750 248 750 c 0
 222 750 212 735 202 702 c 1
 191 700 181 701 175 707 c 1
 189 766 212 805 255 805 c 0
 285 805 308.5 786.9 327 771 c 0
 341.3 758.7 360 752 379 752 c 0
EndSplineSet
Refer: 78 73 N 1 0 0 1 0 0 2
EndChar

StartChar: itilde
Encoding: 297 297 62
Width: 640
GlyphClass: 2
Flags: MW
AnchorPoint: "cedilla" 142 -2 basechar 0
AnchorPoint: "below" 136 -110 basechar 0
AnchorPoint: "above" 139 795 basechar 0
LayerCount: 2
Fore
SplineSet
394 642 m 0
 416 642 427 652 441 694 c 1
 452 695 462 692 468 688 c 1
 456 628 427 589 381 589 c 0
 359 589 337 605 317 621 c 0
 300.5 634.2 280 640 263 640 c 0
 237 640 227 625 217 592 c 1
 206 590 196 591 190 597 c 1
 204 656 227 695 270 695 c 0
 300 695 323.5 676.9 342 661 c 0
 356.3 648.7 375 642 394 642 c 0
EndSplineSet
Refer: 239 305 N 1 0 0 1 0 0 2
EndChar

StartChar: imacron
Encoding: 299 299 64
Width: 640
GlyphClass: 2
Flags: MW
LayerCount: 2
Fore
SplineSet
426 586 m 2
 202 586 l 2
 193 586 189 597 189 604 c 0
 189 616 200 636 211 636 c 2
 436 636 l 2
 446 636 450 625 450 619 c 0
 450 607 439 586 426 586 c 2
EndSplineSet
Refer: 239 305 N 1 0 0 1 0 0 2
EndChar

StartChar: Ibreve
Encoding: 300 300 65
Width: 640
GlyphClass: 2
Flags: MW
LayerCount: 2
Fore
SplineSet
465 805 m 1
 459 734 395 692 329 692 c 0
 256 692 198 735 193 805 c 1
 221 805 l 1
 229 766 276 744 329 744 c 0
 378 744 430 766 437 805 c 1
 465 805 l 1
EndSplineSet
Refer: 78 73 N 1 0 0 1 0 0 2
EndChar

StartChar: ibreve
Encoding: 301 301 66
Width: 640
GlyphClass: 2
Flags: MW
LayerCount: 2
Fore
SplineSet
212 727 m 1
 223 674 266 637 320 637 c 0
 372 637 418 669 428 727 c 1
 455 715 l 1
 443 629 379 580 320 580 c 0
 250 580 199 630 185 715 c 1
 212 727 l 1
EndSplineSet
Refer: 239 305 N 1 0 0 1 0 0 2
EndChar

StartChar: Iogonek
Encoding: 302 302 67
Width: 640
GlyphClass: 2
Flags: MW
AnchorPoint: "above" 326 850 basechar 0
LayerCount: 2
Fore
SplineSet
441 -135 m 1
 412 -180 372 -200 331 -200 c 0
 281 -200 243 -180 243 -126 c 0
 243 -84.4 278.8 -26.9 339.4 -0 c 1
 335.6 0 331.8 0 328 0 c 0
 250 0 177 -1 128 -2 c 1
 122 4 122 29 128 35 c 1
 276 39 281 44 281 122 c 2
 281 491 l 2
 281 568 275 573 128 578 c 1
 122 584 122 610 128 616 c 1
 178 615 283 613 327 613 c 0
 373.5 613 478 615 527 616 c 1
 533 610 533 584 527 578 c 1
 379 574 374 568 374 491 c 2
 374 122 l 2
 374 45 381 39 527 35 c 1
 533 29 533 4 527 -2 c 1
 498.6 -1.4 463.2 -0.9 423.7 -0.5 c 1
 425 -2 l 1
 354 -2 305 -69 305 -115 c 0
 305 -141 318 -162 355 -162 c 0
 384 -162 400 -146 422 -124 c 1
 431 -124 437 -128 441 -135 c 1
EndSplineSet
EndChar

StartChar: iogonek
Encoding: 303 303 68
Width: 640
GlyphClass: 2
Flags: MW
AnchorPoint: "above" 332 825 basechar 0
LayerCount: 2
Fore
SplineSet
419 -135 m 1
 390 -180 350 -200 309 -200 c 0
 259 -200 221 -180 221 -126 c 0
 221 -84.5 256.8 -26.9 317.3 -0 c 1
 257.7 -0.2 135.9 -1.1 99 -2 c 1
 93 4 93 29 99 35 c 1
 148 37 264 49 275 57 c 0
 289 68 293 87 293 134 c 2
 293 364 l 2
 293 390 291.5 403 282 415 c 0
 273.2 426.1 237.5 428 142 430 c 1
 138 438 137 454.5 140 463 c 1
 183.8 465.8 268.6 473.7 314.2 481.9 c 0
 341 486.7 368.8 493 380 493 c 0
 386.8 493 394 486.5 394 480 c 0
 394 456.5 380 439.8 380 372 c 2
 380 134 l 2
 380 86 383 67 398 57 c 0
 409 49 510 37 564 35 c 1
 570 29 570 4 564 -2 c 1
 534.6 -1.3 459.6 -0.7 401.6 -0.3 c 1
 403 -2 l 1
 332 -2 283 -69 283 -115 c 0
 283 -141 296 -162 333 -162 c 0
 362 -162 378 -146 400 -124 c 1
 409 -124 415 -128 419 -135 c 1
274 650 m 0
 274 678 305 705 332 705 c 0
 362 705 386 673 386 645 c 0
 386 621 359 590 328 590 c 0
 301 590 274 620 274 650 c 0
EndSplineSet
EndChar

StartChar: Idotaccent
Encoding: 304 304 69
Width: 640
GlyphClass: 2
Flags: MW
LayerCount: 2
Fore
SplineSet
274 753 m 0
 274 781 298 805 326 805 c 0
 354 805 378 781 378 753 c 0
 378 725 354 701 326 701 c 0
 298 701 274 725 274 753 c 0
EndSplineSet
Refer: 78 73 N 1 0 0 1 0 0 2
EndChar

StartChar: ampersand
Encoding: 38 38 71
Width: 640
GlyphClass: 2
Flags: MW
LayerCount: 2
Fore
SplineSet
232.5 338 m 1
 136.7 281 126.3 227 126.3 156 c 0
 126.3 58 166.5 23 225.1 23 c 0
 291.1 23 324.5 59 370.1 126 c 1
 317.1 201 242.7 317 232.5 338 c 1
391.5 94 m 1
 348.7 31 297.6 -10 218.6 -10 c 0
 119.1 -10 40 34 40 156 c 0
 40 235 89.2 302 212 376 c 1
 177.6 440 164.6 479 164.6 517 c 0
 164.6 576 214.8 647 307.8 647 c 0
 372.9 647 426.9 602 426.9 539 c 0
 426.9 484 372.5 419 295.3 371 c 1
 299 363 l 1
 315.7 332 364.7 257 407.5 195 c 1
 441 248.3 461.6 283.1 477.5 315 c 0
 512.5 385 498.6 390.3 448.3 393 c 1
 442.7 399 442.7 420 448.3 426 c 1
 466.9 425 505 424 536.6 424 c 0
 568.2 424 596.1 425 614.7 426 c 1
 620.3 420 620.3 399 614.7 393 c 1
 557.8 389.2 551.5 384 508.7 302 c 0
 483.6 254 464.7 222 427.9 165 c 1
 466.4 107 l 2
 495 63.9 516.1 44 531 44 c 0
 561.7 44 583.1 59 601.7 98 c 1
 611.9 98 616.4 93.4 621.2 88 c 1
 599.8 18 557.9 -10 525.4 -10 c 0
 496.6 -10 462.2 -8 418.5 57 c 1
 391.5 94 l 1
275.8 409 m 1
 335.3 451 352.7 503 352.7 539 c 0
 352.7 584 341.3 614 303.2 614 c 0
 279 614 245.4 585 245.4 519 c 0
 245.4 496 251.6 458 275.8 409 c 1
EndSplineSet
EndChar

StartChar: quotesingle
Encoding: 39 39 72
Width: 640
GlyphClass: 2
Flags: MW
LayerCount: 2
Fore
SplineSet
301 363 m 1
 301 363 260 600 260 612 c 0
 260 641 279 667 321 667 c 0
 363.5 667 380 639.5 380 613 c 0
 380 592 339 363 339 363 c 1
 301 363 l 1
EndSplineSet
EndChar

StartChar: comma
Encoding: 44 44 73
Width: 640
GlyphClass: 2
Flags: MW
LayerCount: 2
Fore
SplineSet
296 122 m 0
 344 122 377 71 377 -1 c 0
 377 -85 287 -151 225 -164 c 1
 217 -156 209 -140 209 -128 c 1
 271 -112 319 -56 319 -31 c 0
 319 -3 308 4 285 6 c 1
 263 10 232 21 232 59 c 0
 232 93 259 122 296 122 c 0
EndSplineSet
EndChar

StartChar: hyphen
Encoding: 45 45 74
Width: 640
GlyphClass: 2
Flags: MW
LayerCount: 2
Fore
SplineSet
483 215 m 2
 142 215 l 2
 131 215 124 230 124 241 c 0
 124 261 140 291 154 291 c 2
 499 291 l 2
 511 291 516 275 516 264 c 0
 516 251 499 215 483 215 c 2
EndSplineSet
EndChar

StartChar: period
Encoding: 46 46 75
Width: 640
GlyphClass: 2
Flags: MW
LayerCount: 2
Fore
SplineSet
239 57 m 0
 239 93 270 124 307 124 c 0
 344 124 375 93 375 57 c 0
 375 21 344 -10 307 -10 c 0
 270 -10 239 21 239 57 c 0
EndSplineSet
EndChar

StartChar: zero
Encoding: 48 48 76
Width: 640
GlyphClass: 2
Flags: MW
LayerCount: 2
Fore
SplineSet
322 621 m 0
 260 621 185 573 185 307 c 0
 185 213 189 27 318 27 c 0
 343 27 402 37 432 126 c 1
 452 181 455 250 455 349 c 0
 455 494 427 575 384 603 c 1
 368 615 345 621 322 621 c 0
317 -10 m 0
 271 -10 229 6 195 36 c 0
 129 95 90 203 90 319 c 0
 90 533 203 658 322 658 c 0
 387 658 437 628 468 590 c 0
 521 527 550 435 550 328 c 0
 550 74 409 -10 317 -10 c 0
EndSplineSet
Substitution2: "'zero' gestrichene Null 1" zero.slash
EndChar

StartChar: H
Encoding: 72 72 77
Width: 640
GlyphClass: 2
Flags: MW
AnchorPoint: "middle" 316 461 basechar 0
AnchorPoint: "right" 585 695 basechar 0
AnchorPoint: "cedilla" 130 0 basechar 0
AnchorPoint: "below" 360 -104 basechar 0
AnchorPoint: "above" 361 808 basechar 0
LayerCount: 2
Fore
SplineSet
548 122 m 2
 548 43 551 38 621 35 c 1
 627 29 627 4 621 -2 c 1
 577 -1 531 0 502 0 c 0
 472 0 428 -1 387 -2 c 1
 381 4 381 29 387 35 c 1
 454 38 458 43 458 122 c 2
 458 305 l 1
 182 305 l 1
 182 122 l 2
 182 43 185 38 253 35 c 1
 259 29 259 4 253 -2 c 1
 211 -1 167 0 139 0 c 0
 108 0 62 -1 19 -2 c 1
 13 4 13 29 19 35 c 1
 90 39 91.8 43 92 122 c 2
 93 495 l 2
 93.2 570 92 575 20 578 c 1
 14 584 14 609 20 615 c 1
 63 614 107 613 139 613 c 0
 165 613 211 614 254 615 c 1
 260 609 260 584 254 578 c 1
 186 575 183 570 183 495 c 2
 182 345 l 1
 458 345 l 1
 458 495 l 2
 458 571 457 575 387 578 c 1
 381 584 381 609 387 615 c 1
 431 614 477 613 501 613 c 0
 525 613 578 614 621 615 c 1
 627 609 627 584 621 578 c 1
 551 574 548 569 548 495 c 2
 548 122 l 2
EndSplineSet
EndChar

StartChar: I
Encoding: 73 73 78
Width: 640
GlyphClass: 2
Flags: MW
AnchorPoint: "above" 332 941 basechar 0
AnchorPoint: "below" 309 -104 basechar 0
AnchorPoint: "cedilla" 328 1 basechar 0
AnchorPoint: "middle" 330 309 basechar 0
LayerCount: 2
Fore
SplineSet
374 122 m 2
 374 45 381 39 527 35 c 1
 533 29 533 4 527 -2 c 1
 477 -1 405.6 0 328 0 c 0
 250 0 177 -1 128 -2 c 1
 122 4 122 29 128 35 c 1
 276 39 281 44 281 122 c 2
 281 491 l 2
 281 568 275 573 128 578 c 1
 122 584 122 610 128 616 c 1
 178 615 283 613 327 613 c 0
 373.5 613 478 615 527 616 c 1
 533 610 533 584 527 578 c 1
 379 574 374 568 374 491 c 2
 374 122 l 2
EndSplineSet
EndChar

StartChar: J
Encoding: 74 74 79
Width: 640
GlyphClass: 2
Flags: MW
AnchorPoint: "middle" 376 299 basechar 0
AnchorPoint: "above" 372 808 basechar 0
LayerCount: 2
Fore
SplineSet
416 487 m 2
 416 280 l 2
 416 137 400 86 352 49 c 0
 293 4 239 -10 173 -10 c 0
 129 -10 62 10 62 53 c 0
 62 75 85 97 109 97 c 0
 137 97 156 85 163 70 c 0
 169 58 206 33 242 33 c 0
 287 33 323 97 323 259 c 2
 323 487 l 2
 323 570 320 575 164 578 c 1
 158 584 158 609 164 615 c 1
 214 614 291.5 613 373 613 c 0
 439.3 613 494 614 543 615 c 1
 549 609 549 584 543 578 c 1
 420 574 416 570 416 487 c 2
EndSplineSet
EndChar

StartChar: K
Encoding: 75 75 80
Width: 640
GlyphClass: 2
Flags: MW
AnchorPoint: "middle" 158 309 basechar 0
AnchorPoint: "below" 292 -104 basechar 0
AnchorPoint: "cedilla" 158 -1 basechar 0
AnchorPoint: "above" 466 808 basechar 0
LayerCount: 2
Fore
SplineSet
201 122 m 2
 201 43 208 38 278 35 c 1
 284 29 284 4 278 -2 c 1
 234 -1 188 0 159 0 c 0
 132 0 84 -1 39 -2 c 1
 33 4 33 29 39 35 c 1
 103 39 108 43 108 122 c 2
 108 491 l 2
 108 570 98 574 39 578 c 1
 33 584 33 609 39 615 c 1
 83 614 130 613 158 613 c 0
 189 613 239 614 288 615 c 1
 294 609 294 584 288 578 c 1
 218 575 201 570 201 491 c 2
 201 326 l 1
 239 328 263 342 285 365 c 2
 445 530 l 2
 484.1 570.3 445 575 407 578 c 1
 401 584 401 609 407 615 c 1
 447 614 489 613 515 613 c 0
 539 613 573 614 605 615 c 1
 611 609 611 584 605 578 c 1
 563 576 555 573 509 526 c 1
 367 387 l 2
 333 354 332 347 332 340 c 0
 332 332 337 325 345 316 c 2
 549 69 l 2
 575 38 582 37 617 35 c 1
 623 29 623 4 617 -2 c 1
 582 -1 544 0 526 0 c 0
 514 0 492 -1 472 -2 c 0
 468 -2 467 1 467 4 c 0
 465 19 450 44 431 69 c 2
 289 257 l 2
 264 291 245 298 201 298 c 1
 201 122 l 2
EndSplineSet
EndChar

StartChar: L
Encoding: 76 76 81
Width: 640
GlyphClass: 2
Flags: MW
AnchorPoint: "middle" 326 299 basechar 0
AnchorPoint: "right" 509 695 basechar 0
AnchorPoint: "cedilla" 300 1 basechar 0
AnchorPoint: "below" 300 -104 basechar 0
AnchorPoint: "above" 189 808 basechar 0
LayerCount: 2
Fore
SplineSet
197 0 m 1
 197 0 116 -1 67 -2 c 1
 61 4 61 29 67 35 c 1
 137 38 154 43 154 122 c 2
 154 491 l 2
 154 570 137 575 67 578 c 1
 61 584 61 609 67 615 c 1
 108 614 149.3 613 202 613 c 0
 253.5 613 294 614 334 615 c 1
 340 609 340 584 334 578 c 1
 264 575 247 570 247 491 c 2
 247 96 l 2
 247 67 265 50 294 50 c 2
 414 50 l 2
 507 50 527 90 555 229 c 1
 567 231 580 229 590 225 c 1
 587 172 574 46 564 -2 c 1
 564 -2 472 0 445 0 c 2
 197 0 l 1
EndSplineSet
EndChar

StartChar: M
Encoding: 77 77 82
Width: 640
GlyphClass: 2
Flags: MW
AnchorPoint: "middle" 476 423 basechar 0
AnchorPoint: "cedilla" 96 2 basechar 0
AnchorPoint: "below" 373 -104 basechar 0
AnchorPoint: "above" 411 808 basechar 0
LayerCount: 2
Fore
SplineSet
485 116 m 2
 479 517 l 1
 474 517 l 1
 308 109 l 2
 305 101 302 99 296 99 c 0
 290 99 287 102 284 109 c 2
 146 507 l 1
 139 507 l 1
 123 123 l 2
 120 42 122 38 194 35 c 1
 200 29 200 4 194 -2 c 1
 164 -1 119 0 95 0 c 0
 71 0 39 -1 9 -2 c 1
 3 4 3 29 9 35 c 1
 77 38 81 42 84 121 c 2
 100 506 l 2
 102.7 570 101 574 32 578 c 1
 26 584 26 609 32 615 c 1
 199 613 l 1
 315 292 l 2
 324 269 327 268 337 293 c 2
 472 613 l 1
 609 615 l 1
 615 609 615 584 609 578 c 1
 557 575 555.8 570 557 513 c 2
 565 121 l 2
 566.6 42 570 38 632 35 c 1
 638 29 638 4 632 -2 c 1
 599 -1 553 0 523 0 c 0
 493 0 452 -1 411 -2 c 1
 405 4 405 29 411 35 c 1
 481 40 486 44 485 116 c 2
EndSplineSet
EndChar

StartChar: N
Encoding: 78 78 83
Width: 640
GlyphClass: 2
Flags: MW
AnchorPoint: "middle" 356 304 basechar 0
AnchorPoint: "cedilla" 130 -4 basechar 0
AnchorPoint: "below" 348 -104 basechar 0
AnchorPoint: "above" 346 808 basechar 0
LayerCount: 2
Fore
SplineSet
505 481 m 2
 505 567 485 571 422 578 c 1
 417 584 417 609 422 615 c 1
 461.7 614 508.3 613 530 613 c 0
 550.7 613 587 614 623 615 c 1
 628 609 628 584 623 578 c 1
 560 571 554 566 554 481 c 2
 554 20 l 2
 554 2 541 -10 528 -10 c 0
 514 -10 498.1 -6.4 484 13 c 2
 179 432 l 2
 162 455 153 464 148 464 c 0
 141 464 141 449 141 417 c 2
 141 132 l 2
 141 46 156 42 219 35 c 1
 224 29 224 4 219 -2 c 1
 182.7 -1 139.3 0 119 0 c 0
 94 0 53.3 -1 19 -2 c 1
 14 4 14 29 19 35 c 1
 82 42 92 47 92 132 c 2
 92 517 l 1
 87 542 65 575 26 578 c 1
 21 584 21 609 26 615 c 1
 157 613 l 1
 451 202 l 2
 476 166 491 150 494 150 c 0
 500 150 505 161 505 179 c 2
 505 481 l 2
EndSplineSet
EndChar

StartChar: O
Encoding: 79 79 84
Width: 640
GlyphClass: 2
Flags: MW
AnchorPoint: "middle" 315 306 basechar 0
AnchorPoint: "komb_OR" 564 576 basechar 0
AnchorPoint: "cedilla" 318 0 basechar 0
AnchorPoint: "below" 318 -104 basechar 0
AnchorPoint: "above" 305 808 basechar 0
LayerCount: 2
Fore
SplineSet
307 585 m 0
 227 585 131 501 131 311 c 0
 131 136 229 30 336 30 c 0
 436 30 509 130 509 294 c 0
 509 480 422 585 307 585 c 0
606 313 m 0
 606 221 585 164 549 110 c 0
 499 36 419 -10 318 -10 c 0
 163 -10 34 100 34 294 c 0
 34 400 59 457 99 514 c 0
 149 585 228 625 318 625 c 0
 481 625 606 507 606 313 c 0
EndSplineSet
EndChar

StartChar: P
Encoding: 80 80 85
Width: 640
GlyphClass: 2
Flags: MW
AnchorPoint: "middle" 353 441 basechar 0
AnchorPoint: "right" 559 695 basechar 0
AnchorPoint: "cedilla" 200 -3 basechar 0
AnchorPoint: "below" 290 -104 basechar 0
AnchorPoint: "above" 327 808 basechar 0
LayerCount: 2
Fore
SplineSet
239 520 m 2
 239 302 l 1
 250 299 312 296 340 296 c 0
 448 296 487 339 487 442 c 0
 487 563 420 579 348 579 c 0
 268 579 239 555 239 520 c 2
146 491 m 2
 146 570 129 575 59 578 c 1
 53 584 53 609 59 615 c 1
 105.5 614 153.5 613 196 613 c 0
 236 613 327 619 356 619 c 0
 552 619 588 515 588 459 c 0
 588 373 547 258 345 258 c 0
 306 258 261 264 239 271 c 1
 239 122 l 2
 239 43 283 39 361 35 c 1
 367 29 367 4 361 -2 c 1
 311 -1 236.1 0 197 0 c 0
 150.5 0 98 -1 49 -2 c 1
 43 4 43 29 49 35 c 1
 119 38 146 43 146 122 c 2
 146 491 l 2
EndSplineSet
EndChar

StartChar: Q
Encoding: 81 81 86
Width: 640
GlyphClass: 2
Flags: MW
AnchorPoint: "middle" 331 308 basechar 0
AnchorPoint: "right" 614 695 basechar 0
AnchorPoint: "komb_OR" 615 576 basechar 0
AnchorPoint: "above" 343 808 basechar 0
LayerCount: 2
Fore
SplineSet
307 585 m 0
 227 585 131 501 131 311 c 0
 131 136 229 30 336 30 c 0
 436 30 509 130 509 294 c 0
 509 480 422 585 307 585 c 0
606 313 m 0
 606 221 585 164 549 110 c 0
 508.5 50.1 448.3 8.5 373.3 -5.1 c 1
 342.6 -13.7 296.5 -33.3 249.9 -67.3 c 1
 256.4 -66.4 262.5 -66 268 -66 c 0
 372 -66 449 -144 533 -144 c 0
 561 -144 595 -135 616 -109 c 1
 632 -121 l 1
 595 -174 555 -199 495 -199 c 0
 371 -199 311 -108 223 -108 c 0
 216 -108 203.6 -111 190.5 -119.4 c 1
 177.7 -132.9 165.4 -147.8 154 -164 c 1
 117 -145 l 1
 121.9 -136.5 128 -128.7 135.1 -121.6 c 0
 168.6 -81.8 219.3 -37.6 274.9 -7.1 c 1
 139.8 11.5 34 118.3 34 294 c 0
 34 400 59 457 99 514 c 0
 149 585 228 625 318 625 c 0
 481 625 606 507 606 313 c 0
EndSplineSet
EndChar

StartChar: R
Encoding: 82 82 87
Width: 640
GlyphClass: 2
Flags: MW
AnchorPoint: "middle" 278 445 basechar 0
AnchorPoint: "right" 519 695 basechar 0
AnchorPoint: "cedilla" 148 -1 basechar 0
AnchorPoint: "below" 258 -104 basechar 0
AnchorPoint: "above" 269 808 basechar 0
LayerCount: 2
Fore
SplineSet
296 578 m 0
 225 578 193 548 193 520 c 2
 193 309 l 1
 261 309 l 2
 358 309 439 335 439 454 c 0
 439 566 357 578 296 578 c 0
193 122 m 2
 193 43 210 38 280 35 c 1
 286 29 286 4 280 -2 c 1
 234 -1 185.6 0 147 0 c 0
 109.9 0 61.5 -1 17 -2 c 1
 11 4 11 29 17 35 c 1
 87 38 100 43 100 122 c 2
 100 491 l 2
 100 570 87 575 17 578 c 1
 11 584 11 609 17 615 c 1
 60.5 614 109.7 613 146 613 c 0
 184 613 270 619 295 619 c 0
 358 619 439 619 487 576 c 0
 523 544 539 503 539 455 c 0
 539 355 439 306 396 293 c 1
 532 93 l 1
 558 52 581 27 620 24 c 1
 624 16 624 4 621 -3 c 1
 611 -8 594 -10 579 -10 c 0
 519 -10 476 31 447 75 c 1
 330 240 l 2
 315 262 277 276 193 276 c 1
 193 122 l 2
EndSplineSet
EndChar

StartChar: S
Encoding: 83 83 88
Width: 640
GlyphClass: 2
Flags: MW
AnchorPoint: "middle" 236 328 basechar 0
AnchorPoint: "right" 481 695 basechar 0
AnchorPoint: "cedilla" 224 2 basechar 0
AnchorPoint: "below" 234 -104 basechar 0
AnchorPoint: "above" 322 808 basechar 0
LayerCount: 2
Fore
SplineSet
511 599 m 1
 523 549 529 523 533 477 c 1
 522 470 507 471 493 471 c 1
 469 534 430 588 312 588 c 0
 241 588 174 546 174 476 c 0
 174 396 293.5 360 370 352 c 0
 485 340 571 289 571 175 c 0
 571 108 526 56 457 22 c 0
 415 1 360 -10 305 -10 c 0
 197 -10 161 12 85 12 c 1
 71 59 66 84 61 157 c 1
 72 162 86 164 101 160 c 1
 128 65 202 28 315 28 c 0
 412 28 471 65 471 142 c 0
 471 243 404 269 305 279 c 0
 196.1 290 90 350 90 451 c 0
 90 578 200 625 323 625 c 0
 441 625 441 607 511 599 c 1
EndSplineSet
EndChar

StartChar: T
Encoding: 84 84 89
Width: 640
GlyphClass: 2
Flags: MW
AnchorPoint: "middle" 330 271 basechar 0
AnchorPoint: "right" 642 695 basechar 0
AnchorPoint: "cedilla" 331 10 basechar 0
AnchorPoint: "below" 323 -104 basechar 0
AnchorPoint: "above" 330 808 basechar 0
LayerCount: 2
Fore
SplineSet
367 122 m 2
 367 43 384 37 504 35 c 1
 510 29 510 4 504 -2 c 1
 454 -1 392.4 0 321 0 c 0
 249.2 0 186 -1 137 -2 c 1
 131 4 131 29 137 35 c 1
 257 38 274 43 274 122 c 2
 274 482 l 2
 274 540 264 576 227 576 c 2
 192 576 l 2
 126 576 70 551 50 475 c 1
 38 475 26 476 16 480 c 1
 27 526 37 575 41 618 c 0
 41 619 43 620 45 620 c 0
 83 617 211 613 288 613 c 2
 374 613 l 2
 453 613 574 617 608 620 c 0
 609 620 611 619 611 618 c 0
 612 575 617 527 624 483 c 1
 615 479 601 478 590 478 c 1
 573 551 516 576 441 576 c 2
 413 576 l 2
 377 576 367 540 367 479 c 2
 367 122 l 2
EndSplineSet
EndChar

StartChar: U
Encoding: 85 85 90
Width: 640
GlyphClass: 2
Flags: MW
AnchorPoint: "middle" 323 305 basechar 0
AnchorPoint: "cedilla" 315 4 basechar 0
AnchorPoint: "below" 315 -104 basechar 0
AnchorPoint: "above" 332 808 basechar 0
LayerCount: 2
Fore
SplineSet
173 493 m 2
 173 256 l 2
 173 194 176 122 216 79 c 0
 243 50 282 31 328 31 c 0
 490 31 501 157 501 263 c 2
 501 493 l 2
 501 570 485 574 413 580 c 1
 407 586 407 609 413 615 c 1
 457 614 507.5 613 528 613 c 0
 551.5 613 590 614 626 615 c 1
 632 609 632 586 626 580 c 1
 568 575 554 572 554 493 c 2
 554 280 l 2
 554 111 505 -10 308 -10 c 0
 222 -10 80 30 80 224 c 2
 80 493 l 2
 80 572 68 577 10 580 c 1
 4 586 4 609 10 615 c 1
 46.5 614 84.5 613 124 613 c 0
 169.5 613 213 614 253 615 c 1
 259 609 259 586 253 580 c 1
 179 577 173 572 173 493 c 2
EndSplineSet
EndChar

StartChar: V
Encoding: 86 86 91
Width: 640
GlyphClass: 2
Flags: MW
AnchorPoint: "middle" 334 450 basechar 0
AnchorPoint: "right" 679 695 basechar 0
AnchorPoint: "cedilla" 318 3 basechar 0
AnchorPoint: "below" 318 -104 basechar 0
AnchorPoint: "above" 336 808 basechar 0
LayerCount: 2
Fore
SplineSet
438 578 m 1
 432 584 432 609 438 615 c 1
 479 614 524 613 547 613 c 0
 570 613 604.5 614 635 615 c 1
 641 609 641 584 635 578 c 1
 577.5 571 559 539 541 495 c 2
 344 10 l 2
 338 -4 327 -11 316 -11 c 0
 306 -11 289 -5 283 10 c 2
 85 497 l 2
 57 566 53 572.5 6 578 c 1
 0 584 -1 609 5 615 c 1
 36.5 614 71.5 613 109 613 c 0
 148 613 192 614 230 615 c 1
 236 609 236 584 230 578 c 1
 162 571 156 563 179 507 c 2
 338 121 l 1
 343 121 l 1
 491 502 l 2
 511 553 512 573 438 578 c 1
EndSplineSet
EndChar

StartChar: W
Encoding: 87 87 92
Width: 640
GlyphClass: 2
Flags: MW
AnchorPoint: "middle" 326 546 basechar 0
AnchorPoint: "right" 599 695 basechar 0
AnchorPoint: "cedilla" 295 0 basechar 0
AnchorPoint: "below" 299 -104 basechar 0
AnchorPoint: "above" 340 808 basechar 0
LayerCount: 2
Fore
SplineSet
359 429 m 1
 436 185 l 2
 447 147 449 157 457 190 c 2
 523 485 l 2
 540 562 537 572 450 578 c 1
 444 586 444 607 450 615 c 1
 487 614 526 613 564 613 c 0
 600 613 609 614 634 615 c 1
 640 607 640 586 634 578 c 1
 591 572 585.6 565.9 566 480 c 2
 460 15 l 2
 456 -5 446 -11 437 -11 c 0
 427 -11 423 -4 417 14 c 2
 310 326 l 1
 219 16 l 1
 214 -5 202 -11 193 -11 c 0
 183 -11 171 -5 167 14 c 2
 65 486 l 2
 47.3 568.1 44 574 5 578 c 1
 -1 586 -1 607 5 615 c 1
 31 614 55 613 93 613 c 0
 129 613 170 614 207 615 c 1
 213 607 213 586 207 578 c 1
 145 574 142 564 158 486 c 2
 213 222 l 2
 225 164 229 164 245 225 c 2
 295 414 l 1
 359 429 l 1
EndSplineSet
EndChar

StartChar: X
Encoding: 88 88 93
Width: 640
GlyphClass: 2
Flags: MW
AnchorPoint: "middle" 326 309 basechar 0
AnchorPoint: "right" 689 695 basechar 0
AnchorPoint: "cedilla" 102 0 basechar 0
AnchorPoint: "below" 307 -104 basechar 0
AnchorPoint: "above" 332 808 basechar 0
LayerCount: 2
Fore
SplineSet
528 99 m 2
 568 43 587 38 629 35 c 1
 635 29 636 4 630 -2 c 1
 600 -1 567 0 528 0 c 0
 488 0 450 -1 414 -2 c 1
 408 4 408 29 414 35 c 1
 461 37 464 44 438 83 c 2
 324 248 l 2
 318.6 255.8 314 258 310 258 c 0
 307 258 301 253 295 245 c 2
 163 71 l 2
 139 39 165 37 202 35 c 1
 208 29 208 4 202 -2 c 1
 162 -1 120 0 97 0 c 0
 74 0 37 -1 7 -2 c 1
 1 4 1 29 7 35 c 1
 52 39 84 46 118 90 c 2
 266 276 l 2
 272.2 283.8 276 292 276 298 c 0
 276 308 270 316 262 327 c 2
 120 520 l 2
 82 571.7 60 575 18 578 c 1
 12 584 11 609 17 615 c 1
 47 614 80 613 119 613 c 0
 152 613 193 614 233 615 c 1
 239 609 239 584 233 578 c 1
 177 575 182 570 210 532 c 2
 320 376 l 2
 325 369 329 366 332 366 c 0
 336 366 342.1 368.9 348 377 c 2
 466.5 538 l 2
 489.5 570 464 576 432 578 c 1
 426 584 426 609 432 615 c 1
 472 614 514 613 537 613 c 0
 560 613 597 614 627 615 c 1
 633 609 633 584 627 578 c 1
 582 574 546.5 562 511.5 519 c 2
 379 356 l 2
 370 345 369 337 369 328 c 0
 369 321 376.2 308.1 385 296 c 2
 528 99 l 2
EndSplineSet
EndChar

StartChar: Y
Encoding: 89 89 94
Width: 640
GlyphClass: 2
Flags: MW
AnchorPoint: "cedilla" 329 1 basechar 0
AnchorPoint: "below" 331 -104 basechar 0
AnchorPoint: "above" 331 808 basechar 0
LayerCount: 2
Fore
SplineSet
377 122 m 2
 377 43 394 38 474 35 c 1
 480 29 480 4 474 -2 c 1
 424 -1 374 0 331 0 c 0
 287.5 0 236 -1 187 -2 c 1
 181 4 181 29 187 35 c 1
 267 38 284 43 284 122 c 2
 284 237 l 2
 284 272 281.2 283.1 263 310 c 2
 122 518 l 2
 86 572 74 575 32 578 c 1
 26 584 25 609 31 615 c 1
 61 614 94 613 133 613 c 0
 173 613 211 614 247 615 c 1
 253 609 253 584 247 578 c 1
 191 575 186 568 211 529 c 2
 337 336 l 2
 346.9 320.9 350.3 319.8 359 334 c 2
 480 531 l 2
 503 568 485 575 441 578 c 1
 435 584 435 609 441 615 c 1
 474.5 614 509 613 532 613 c 0
 555 613 585 614 615 615 c 1
 621 609 621 584 615 578 c 1
 570 574 553 566 524 520 c 2
 395 317 l 2
 377.4 289.4 377 273 377 245 c 2
 377 122 l 2
EndSplineSet
EndChar

StartChar: Z
Encoding: 90 90 95
Width: 640
GlyphClass: 2
Flags: MW
AnchorPoint: "middle" 305 305 basechar 0
AnchorPoint: "right" 619 695 basechar 0
AnchorPoint: "cedilla" 287 4 basechar 0
AnchorPoint: "below" 287 -104 basechar 0
AnchorPoint: "above" 320 808 basechar 0
LayerCount: 2
Fore
SplineSet
551 -2 m 1
 551 -2 451 0 424 0 c 2
 60 0 l 2
 46 0 41 4 41 14 c 0
 41 21 43 28 49 36 c 0
 151 180 333 433 430 550 c 0
 435 557 438 562 438 567 c 0
 438 573 434 574 428 574 c 2
 225 570 l 2
 150 569 112 537 91 471 c 1
 80 471 71 473 61 476 c 1
 69 515 79 569 83 620 c 1
 120 617 217 613 264 613 c 2
 485 613 l 2
 515 613 546 615 558 615 c 0
 566 615 571 611 571 604 c 0
 571 594 568 587 547 561 c 0
 429 417 180 68 180 68 c 2
 174.1 60.1 172 54 172 49 c 0
 172 40 180 38 197 38 c 2
 382 42 l 2
 491 44 516 96 547 162 c 1
 560 162 571 159 578 157 c 1
 566 108 556 51 551 -2 c 1
EndSplineSet
EndChar

StartChar: bracketleft
Encoding: 91 91 96
Width: 640
GlyphClass: 2
Flags: MW
LayerCount: 2
Fore
SplineSet
228 -193 m 1
 228 703 l 1
 490 703 l 1
 496 697 496 679 490 673 c 1
 353 663 305 648 305 561 c 2
 305 -50 l 2
 305 -137 352 -152 490 -163 c 1
 496 -169 496 -187 490 -193 c 1
 228 -193 l 1
EndSplineSet
EndChar

StartChar: backslash
Encoding: 92 92 97
Width: 640
GlyphClass: 2
Flags: MW
LayerCount: 2
Fore
SplineSet
150 727.4 m 1
 558 -96.6 l 1
 496 -96.6 l 1
 88 727.4 l 1
 150 727.4 l 1
EndSplineSet
EndChar

StartChar: bracketright
Encoding: 93 93 98
Width: 640
GlyphClass: 2
Flags: MW
LayerCount: 2
Fore
SplineSet
412 704 m 1
 412 -192 l 1
 150 -192 l 1
 144 -186 144 -168 150 -162 c 1
 287 -152 335 -137 335 -50 c 2
 335 561 l 2
 335 648 288 663 150 674 c 1
 144 680 144 698 150 704 c 1
 412 704 l 1
EndSplineSet
EndChar

StartChar: asciicircum
Encoding: 94 94 99
Width: 640
GlyphClass: 2
Flags: MW
LayerCount: 2
Fore
SplineSet
320 542 m 1
 174 220 l 1
 112 220 l 1
 290 616 l 1
 351 616 l 1
 527 220 l 1
 466 220 l 1
 320 542 l 1
EndSplineSet
EndChar

StartChar: underscore
Encoding: 95 95 100
Width: 640
GlyphClass: 2
Flags: MW
LayerCount: 2
Fore
SplineSet
583 -110 m 1
 591 -118 591 -146 583 -154 c 1
 57 -154 l 1
 49 -146 49 -118 57 -110 c 1
 583 -110 l 1
EndSplineSet
EndChar

StartChar: a
Encoding: 97 97 101
Width: 640
GlyphClass: 2
Flags: MW
AnchorPoint: "ogonek" 484.7 16 basechar 0
AnchorPoint: "cedilla" 207.7 -2.9 basechar 0
AnchorPoint: "below" 248.6 -110 basechar 0
AnchorPoint: "above" 263.5 645 basechar 0
LayerCount: 2
Fore
SplineSet
414 250 m 1
 294 227 l 2
 209.2 210.8 163 168 163 112 c 0
 163 78 188 35 255 35 c 0
 292 35 353 63 387 85 c 0
 397 92 406.2 100.9 407 116 c 2
 414 250 l 1
407 55 m 1
 404 55 l 1
 376 36 l 1
 317 -1 286 -10 225 -10 c 0
 133 -10 64 22 64 107 c 0
 64 181 133.7 239.9 276 264 c 2
 406 286 l 2
 409 287 416 292 416 300 c 0
 416 422 361 450 307 450 c 0
 258 450 197 438 197 403 c 0
 197 391 198 384 199 381 c 0
 201 377 203 368 203 360 c 0
 203 346 179 328 148 328 c 0
 122 328 103 340 103 367 c 0
 103 427 212 490 317 490 c 0
 411 490 510.8 459.5 501 302 c 1
 494 141 l 2
 491.8 91 505 46 555 46 c 0
 582 46 586 64 594 64 c 0
 600 64 611 53 611 45 c 0
 611 33.6 569 -10 493 -10 c 0
 424 -10 412 21 407 55 c 1
EndSplineSet
EndChar

StartChar: b
Encoding: 98 98 102
Width: 640
GlyphClass: 2
Flags: MW
AnchorPoint: "middle" 326 215 basechar 0
AnchorPoint: "right" 500 580 basechar 0
AnchorPoint: "below" 327.9 -108 basechar 0
LayerCount: 2
Fore
SplineSet
224 406 m 0
 208.4 395 190 382 190 359 c 2
 190 71 l 1
 210 46 283 30 321 30 c 0
 438 30 483 124 483 251 c 0
 483 359 404 444 329 444 c 0
 281 444 255 427.8 224 406 c 0
206 440 m 0
 246 470.8 289 490 353 490 c 0
 460 490 579 407 579 271 c 0
 579 94 454 -10 329 -10 c 0
 286 -10 216.1 -0.299999 185.3 18 c 0
 160.1 33 154.3 32.8 135 12 c 0
 122 -2 110.6 -10 101.3 -16 c 1
 91.3 -15.5 85 -8 80 0 c 1
 95.5 20.5 103 45.5 103 101 c 2
 103 559 l 2
 103 637 90 638 19 641 c 1
 13 647 11 663 13 671 c 1
 53 674 156 688 181 698 c 1
 190 698 194 695 194 688 c 2
 194 688 190 647 190 583 c 2
 190 456 l 2
 190 436 198.7 434.4 206 440 c 0
EndSplineSet
EndChar

StartChar: c
Encoding: 99 99 103
Width: 640
GlyphClass: 2
Flags: MW
AnchorPoint: "middle" 339.5 215 basechar 0
AnchorPoint: "ogonek" 453.6 42 basechar 0
AnchorPoint: "cedilla" 337.4 -2 basechar 0
AnchorPoint: "below" 328.7 -110 basechar 0
AnchorPoint: "above" 336.8 645 basechar 0
LayerCount: 2
Fore
SplineSet
579 108 m 1
 489 6 405 -10 334 -10 c 0
 169 -10 76 98 76 233 c 0
 76 382 194 490 335 490 c 0
 408.4 490 482.9 466 525 431 c 0
 547.7 412.1 560 388.4 560 367 c 0
 560 329.4 543 310 513 310 c 0
 489 310 467.1 328.1 463 358 c 0
 456 409 399 449 329 449 c 0
 227 449 167 374 167 257 c 0
 167 136 247 44 359 44 c 0
 410 44 487 68 550 133 c 1
 561 132 575 118 579 108 c 1
EndSplineSet
EndChar

StartChar: d
Encoding: 100 100 104
Width: 640
GlyphClass: 2
Flags: MW
AnchorPoint: "middle" 250.9 239.7 basechar 0
AnchorPoint: "komb_OR" 566 466 basechar 0
AnchorPoint: "right" 556 580 basechar 0
AnchorPoint: "above" 258 645 basechar 0
AnchorPoint: "ogonek" 366.8 22.3 basechar 0
AnchorPoint: "below" 261 -110 basechar 0
LayerCount: 2
Fore
SplineSet
442 138 m 2
 442 350 l 2
 442 385 439 392 423 410 c 0
 401 436 348 449 306 449 c 0
 283 449 221 446 184 394 c 1
 166 371 150 326 150 246 c 0
 150 107 237 41 301 41 c 0
 331 41 383 59 424 95 c 0
 440 109 442 117 442 138 c 2
430 56 m 0
 375 11 316 -11 270 -11 c 0
 143 -11 60 89 60 226 c 0
 60 309 90 375 141 423 c 1
 189 465 240 489 318 489 c 0
 357 489 428 471 432 471 c 0
 440 471 442 473 442 481 c 2
 442 559 l 2
 442 633.1 430 638.1 358 641 c 1
 352 647 350 663 352 671 c 1
 392 674 495 688 520 698 c 1
 529 698 533 695 533 688 c 2
 533 688 529 648 529 583 c 2
 529 130 l 2
 529 81 537 66.1 612 57 c 1
 618 51 618 36 612 30 c 1
 537 24.1 495 8 473 -10 c 1
 465 -12 462 -13 454 -10 c 1
 454 -10 443 28 443 55 c 0
 443 63 435 60 430 56 c 0
EndSplineSet
EndChar

StartChar: e
Encoding: 101 101 105
Width: 640
GlyphClass: 2
Flags: MW
AnchorPoint: "middle" 318.1 215 basechar 0
AnchorPoint: "komb_OR" 510.5 398 basechar 0
AnchorPoint: "cedilla" 323.6 -3 basechar 0
AnchorPoint: "ogonek" 487.7 41 basechar 0
AnchorPoint: "above" 343.3 645 basechar 0
AnchorPoint: "below" 316.1 -110 basechar 0
LayerCount: 2
Fore
SplineSet
179 296 m 1
 453 300 l 2
 467 300.2 473 316 473 326 c 0
 473 422 393 450 345 450 c 0
 281 450 202 416 179 296 c 1
551 109 m 1
 566 108 571 98 574 87 c 1
 524 29 441 -10 347 -10 c 0
 259 -10 182 16 140 61 c 1
 99 103 78 164 78 226 c 0
 78 395 209 490 347 490 c 0
 517 490 573 378 573 284 c 0
 573 272 563 255 549 255 c 2
 174 255 l 1
 174 189 186 158 211 120 c 1
 252 62 312.8 40 377 40 c 0
 452 40 504 66 551 109 c 1
EndSplineSet
EndChar

StartChar: f
Encoding: 102 102 106
Width: 640
GlyphClass: 2
Flags: MW
AnchorPoint: "middle" 241.5 215 basechar 0
AnchorPoint: "right" 466.5 750 basechar 0
AnchorPoint: "below" 238.5 -110 basechar 0
LayerCount: 2
Fore
SplineSet
290 126 m 2
 290 78 293 59 310 49 c 0
 322 42 383 39 489 35 c 1
 495 29 495 4 489 -2 c 1
 446 -1 341.4 0 247 0 c 0
 177.6 0 111 -1 69 -2 c 1
 63 4 63 29 69 35 c 1
 145 37 176 41 186 49 c 0
 200 59 203 78 203 126 c 2
 203 396 l 1
 95 396 l 2
 91 396 89 397 89 402 c 2
 89 420 l 2
 89 428 95 440 113 440 c 2
 203 440 l 1
 203 493 l 2
 203 658 329 698 419 698 c 0
 467 698 515 685.4 554 660 c 0
 574 647 588 621 588 601 c 0
 588 571 563 556 544 556 c 0
 521 556 502.5 562.8 494 584 c 0
 473 636 451 660 409 660 c 0
 376 660 290 637 290 510 c 2
 290 440 l 1
 489 440 l 2
 494 440 497 438 497 434 c 2
 497 409 l 2
 497 400 482 396 473 396 c 2
 290 396 l 1
 290 126 l 2
EndSplineSet
EndChar

StartChar: g
Encoding: 103 103 107
Width: 640
GlyphClass: 2
Flags: MW
AnchorPoint: "middle" 249 285 basechar 0
AnchorPoint: "right" 514 580 basechar 0
AnchorPoint: "below" 236 -319 basechar 0
AnchorPoint: "above" 253 645 basechar 0
LayerCount: 2
Fore
SplineSet
402 312 m 0
 402 405 364 453 283 453 c 0
 213 453 184 416 184 338 c 0
 184 267 204 190 298 190 c 0
 348 190 402 208 402 312 c 0
183 -10 m 1
 151 -49 141 -69 141 -103 c 0
 141 -171 225 -200 288 -200 c 0
 393 -200 518 -162 518 -90 c 0
 518 -64 506 -52 461 -27 c 0
 427 -9 374 -12 315 -12 c 0
 298 -12 267 -16 230 -16 c 0
 215 -16 195 -13 183 -10 c 1
541 433 m 0
 529 433 514 444 510 453 c 1
 503 463 495 466 487 466 c 0
 473 466 451 450 443 439 c 1
 475 406 491 375 491 323 c 0
 491 214 400 153 292 153 c 0
 249 153 213 160 186 176 c 1
 173 157 171 133 171 111 c 0
 171 63 210 48 244 48 c 0
 250 48 262 49 280 50 c 0
 308 53 337 56 358 56 c 0
 401 56 484 55 529 19 c 0
 563 -8 582 -32 582 -64 c 0
 582 -172 413 -237 254 -237 c 0
 164 -237 64 -210 64 -123 c 0
 64 -80 103 -38 163 -2 c 1
 134 12 112 44 112 84 c 0
 112 122 125 169 156 196 c 1
 125 226 93 261 93 321 c 0
 93 424 184 490 293 490 c 0
 369 490 406 468 419 459 c 1
 448 497 502 516 531 516 c 0
 561 516 582 498 582 475 c 0
 582 453 562 433 541 433 c 0
EndSplineSet
EndChar

StartChar: h
Encoding: 104 104 108
Width: 640
GlyphClass: 2
Flags: MW
AnchorPoint: "middle" 310 215 basechar 0
AnchorPoint: "right" 449 580 basechar 0
AnchorPoint: "ogonek" 453 10 basechar 0
AnchorPoint: "above" 319 645 basechar 0
AnchorPoint: "below" 279 -110 basechar 0
LayerCount: 2
Fore
SplineSet
201 316.9 m 2
 201 122 l 2
 201 40 210 39 260.8 35 c 1
 266.8 29 266.8 4 260.8 -2 c 1
 230.7 -1 197 0 158 0 c 0
 115 0 73.3 -1 34.2 -2 c 1
 28.2 4 28.2 29 34.2 35 c 1
 101 37 114 39 114 122 c 2
 114 559 l 2
 114 634 107 639 36 641 c 1
 30 647 28 663 30 671 c 1
 70 674 167 688 192 698 c 1
 201 698 205 695 205 688 c 2
 205 688 201.3 648 201 583 c 2
 200.2 400 l 2
 200.2 386 206.6 389.2 210 393 c 0
 271 461 347 490 419 490 c 0
 454 490 489.2 478 506 456 c 0
 529.3 425.5 533 377 533 322 c 2
 533 122 l 2
 533 42 551 40 610 35 c 1
 615 29 615 4 610 -2 c 1
 567 -1 522 0 490 0 c 0
 456 0 419.3 -1 384 -2 c 1
 379 4 379 29 384 35 c 1
 436 40 446 41 446 122 c 2
 446 321 l 2
 446 351 444 378.2 434 398 c 0
 422.4 420.9 401.4 434 381 434 c 0
 320 434 256 396.3 218 359 c 0
 210 350.3 201 338 201 316.9 c 2
EndSplineSet
EndChar

StartChar: i
Encoding: 105 105 109
Width: 640
GlyphClass: 2
Flags: MW
AnchorPoint: "below" 336 -107 basechar 0
AnchorPoint: "cedilla" 337 12 basechar 0
AnchorPoint: "ogonek" 409 10 basechar 0
LayerCount: 2
Fore
SplineSet
274 650 m 0
 274 678 305 705 332 705 c 0
 362 705 386 673 386 645 c 0
 386 621 359 590 328 590 c 0
 301 590 274 620 274 650 c 0
EndSplineSet
Refer: 239 305 N 1 0 0 1 0 0 2
Substitution2: "Substitution dotless forms 1" dotlessi
EndChar

StartChar: j
Encoding: 106 106 110
Width: 640
GlyphClass: 2
Flags: MW
LayerCount: 2
Fore
SplineSet
332 650 m 0
 332 678 363 705 390 705 c 0
 420 705 444 673 444 645 c 0
 444 621 417 590 386 590 c 0
 359 590 332 620 332 650 c 0
EndSplineSet
Refer: 415 567 N 1 0 0 1 0 0 2
Substitution2: "Substitution dotless forms 1" uni0237
EndChar

StartChar: k
Encoding: 107 107 111
Width: 640
GlyphClass: 2
Flags: MW
AnchorPoint: "right" 535.6 696.4 basechar 0
AnchorPoint: "below" 246.7 -107 basechar 0
AnchorPoint: "cedilla" 139 9 basechar 0
AnchorPoint: "above" 261.8 646 basechar 0
LayerCount: 2
Fore
SplineSet
121 132 m 2
 121 559 l 2
 121 636 110 638 37 641 c 1
 31 647 29 663 31 671 c 1
 71 674 174 688 199 698 c 1
 208 698 212 695 212 688 c 2
 212 688 208 648 208 583 c 2
 208 262 l 1
 229 264 259 277 285 296 c 0
 314 317 348 356 374 388 c 0
 384 401 410 441 348 445 c 1
 341 452 341 475 348 482 c 1
 389 481 411 479 453 479 c 0
 493 479 517 481 558 482 c 1
 565 475 565 452 558 445 c 1
 513 441 470.8 431.2 437 396 c 2
 342 297 l 2
 338 293 338 290 338 286 c 0
 338 280 342 272 346 267 c 2
 493 82 l 2
 523 45 551 39 589 35 c 1
 596 28 596 5 589 -2 c 1
 556 -1 524 0 489 0 c 0
 456 0 452 -1 430 -2 c 0
 427 -2 427 0 426 3 c 0
 422 20 412 38 379 82 c 2
 298 192 l 2
 285 210 269 221 252 228 c 0
 241 232 231 233 208 234 c 1
 208 132 l 2
 208 49 219 39 260 35 c 1
 266 29 266 4 260 -2 c 1
 217 -1 204.5 0 169 0 c 0
 124.1 0 96 -1 54 -2 c 1
 48 4 48 29 54 35 c 1
 110 39 121 49 121 132 c 2
EndSplineSet
EndChar

StartChar: l
Encoding: 108 108 112
Width: 640
GlyphClass: 2
Flags: MW
AnchorPoint: "cedilla" 296.5 10 basechar 0
AnchorPoint: "right" 400.5 733 basechar 0
AnchorPoint: "middle" 296.5 215 basechar 0
AnchorPoint: "above" 276.5 885 basechar 0
LayerCount: 2
Fore
SplineSet
286.5 129 m 2
 286.5 538 l 2
 286.5 579.7 283.4 609.9 273 618.5 c 0
 250.3 637.3 213 638 172.5 638 c 1
 166.5 644 166.5 663 168.5 671 c 1
 208.5 674 327.5 688 364.5 698 c 1
 373.5 698 377.5 695 377.5 688 c 2
 377.5 688 373.5 648 373.5 583 c 2
 373.5 129 l 2
 373.5 80 377 62 393 52 c 0
 404 45 536.5 36.2 561.5 35 c 1
 567.5 29 567.5 4 561.5 -2 c 1
 518.5 -1 420.6 0 330.5 0 c 0
 236.9 0 132.5 -1 90.5 -2 c 1
 84.5 4 84.5 29 90.5 35 c 1
 116.7 36.3 258 44 269 52 c 0
 283 63 286.5 81.7 286.5 129 c 2
EndSplineSet
EndChar

StartChar: m
Encoding: 109 109 113
Width: 640
GlyphClass: 2
Flags: MW
AnchorPoint: "middle" 328 215 basechar 0
AnchorPoint: "cedilla" 93 -1 basechar 0
AnchorPoint: "above" 392 645 basechar 0
AnchorPoint: "below" 332 -110 basechar 0
LayerCount: 2
Fore
SplineSet
150 132 m 2
 150 47.1 151.2 15 152 -2 c 1
 139.3 -1 122.3 0 111 0 c 0
 101 0 76.7 -1 66 -2 c 1
 67.5 12 68 43 68 132 c 2
 68 368 l 2
 68 426 62 431 8 436 c 1
 6 442 4 458 6 464 c 1
 75 473 102 482 130 493 c 1
 138 493 139.9 489.6 142 485 c 0
 146.7 474.7 150 459 150 419 c 0
 150 409.3 152.7 409.6 159 419 c 0
 194.8 471.8 230 490 268 490 c 0
 320 490 348.5 468.5 359 428.4 c 0
 361.6 418.5 365.3 420.8 371 428 c 0
 415.2 483.9 449.7 490 484 490 c 0
 572 490 586 419.8 586 331 c 2
 586 152 l 2
 586 41.7 586.3 38.3 635 35 c 1
 640 29 640 4 635 -2 c 1
 592 -1 589 0 548 0 c 0
 540.3 0 523 -1 512 -2 c 1
 505.7 13.3 504 44 504 152 c 2
 504 346 l 2
 504 413 486 435 448 435 c 0
 426.6 435 403 430.5 368 383 c 1
 368 132 l 2
 368 47.1 369.2 15 370 -2 c 1
 357.3 -1 340.3 0 329 0 c 0
 319 0 294.7 -1 284 -2 c 1
 285.5 12 286 43 286 132 c 2
 286 344 l 2
 286 411 274 435 236 435 c 0
 220 435 196 434.3 167 389 c 0
 160.6 379 150 358 150 337 c 2
 150 132 l 2
EndSplineSet
EndChar

StartChar: n
Encoding: 110 110 114
Width: 640
GlyphClass: 2
Flags: MW
AnchorPoint: "middle" 303 215 basechar 0
AnchorPoint: "cedilla" 148 9 basechar 0
AnchorPoint: "below" 304 -110 basechar 0
AnchorPoint: "above" 289 646 basechar 0
LayerCount: 2
Fore
SplineSet
212 389 m 0
 273 457 337 490 417 490 c 0
 452 490 481.4 476.7 500 456 c 0
 526 427 530 377 530 322 c 2
 530 126 l 2
 530 44 541 39.1 607 35 c 1
 612 29 612 4 607 -2 c 1
 564 -1 527 0 486 0 c 0
 446 0 423 -1 381 -2 c 1
 376 4 376 29 381 35 c 1
 433 40 443 44 443 126 c 2
 443 325 l 2
 443 355 440 383 428 402 c 0
 414.1 423.9 395 438 375 438 c 0
 314 438 258 396 220 359 c 0
 212 350 203 338 203 317 c 2
 203 126 l 2
 203 44 212 40 263 35 c 1
 269 29 269 4 263 -2 c 1
 221 -1 198 0 159 0 c 0
 116 0 77 -1 36 -2 c 1
 30 4 30 29 36 35 c 1
 106 41.1 116 44 116 126 c 2
 116 368 l 2
 116 426 105 431 51 436 c 1
 49 442 47 458 49 464 c 1
 118 473 155 482 183 493 c 1
 191 493 192.9 489.6 195 485 c 0
 199.7 474.7 203 450.1 203 389 c 0
 203 375 209 385 212 389 c 0
EndSplineSet
EndChar

StartChar: o
Encoding: 111 111 115
Width: 640
GlyphClass: 2
Flags: MW
AnchorPoint: "above" 310.6 645 basechar 0
AnchorPoint: "below" 315.8 -110 basechar 0
AnchorPoint: "ogonek" 450 44 basechar 0
AnchorPoint: "cedilla" 313.8 -3 basechar 0
AnchorPoint: "komb_OR" 479.1 396 basechar 0
AnchorPoint: "middle" 308.6 215 basechar 0
LayerCount: 2
Fore
SplineSet
60 230 m 0
 60 300 85 364 129 412 c 0
 174 460 240 490 321 490 c 0
 509 490 580 356 580 240 c 0
 580 172 556 101 500 52 c 0
 458 15 398 -10 319 -10 c 0
 144 -10 60 116 60 230 c 0
301 449 m 0
 184.9 449 156 354 156 255 c 0
 156 167 200 31 337 31 c 0
 400 31 484 60 484 203 c 0
 484 367 415 449 301 449 c 0
EndSplineSet
EndChar

StartChar: p
Encoding: 112 112 116
Width: 640
GlyphClass: 2
Flags: MW
AnchorPoint: "middle" 271 215 basechar 0
AnchorPoint: "right" 454 580 basechar 0
AnchorPoint: "below" 204 -319 basechar 0
AnchorPoint: "above" 296 646 basechar 0
LayerCount: 2
Fore
SplineSet
220 362 m 0
 207.9 345.3 195 322 195 299 c 2
 195 141 l 1
 203.5 83 276.7 32 323 32 c 0
 423 32 484 106 484 233 c 0
 484 359 445.6 439 336 439 c 0
 291 439 248.5 401.5 220 362 c 0
195 401 m 0
 195 393 200.9 393 204 397 c 0
 247.5 453.5 293.6 490 370 490 c 0
 508.6 490 580 399.5 580 263 c 0
 580 173 548 103 496 52 c 1
 450 9 392 -10 330 -10 c 0
 271 -10 227 13 195 48 c 1
 195 -106 l 2
 195 -188.6 206 -193 297 -197 c 1
 303 -203 303 -228 297 -234 c 1
 254 -233 208.6 -232 152 -232 c 0
 102.9 -232 68 -233 26 -234 c 1
 20 -228 20 -203 26 -197 c 1
 87 -194 108 -189 108 -106 c 2
 108 354 l 2
 108 419 86 424 26 430 c 1
 24 437 21 454 23 461 c 1
 100 471 145 482 176 494 c 1
 185 494 187 490 189 485 c 0
 194 473 195 434 195 401 c 0
EndSplineSet
EndChar

StartChar: q
Encoding: 113 113 117
Width: 640
GlyphClass: 2
Flags: MW
AnchorPoint: "middle" 223.1 215 basechar 0
AnchorPoint: "right" 469 732 basechar 0
AnchorPoint: "below" 193.4 -110 basechar 0
AnchorPoint: "above" 226.2 645 basechar 0
LayerCount: 2
Fore
SplineSet
417.5 405 m 0
 393.5 432 336 446 301 446 c 0
 195 446 152 370 152 254 c 0
 152 86 247.9 41 308 41 c 0
 357.5 41 445 71.8 445 119 c 2
 445 331 l 2
 445 358 439.5 380 417.5 405 c 0
445 -107 m 2
 445 18 l 2
 445 39 439.5 37.5 415 24 c 0
 395.8 13.4 343.5 -10 280 -10 c 0
 135 -10 60 100 60 232 c 0
 60 393.5 164 490 305 490 c 0
 354 490 425 471 460 448 c 0
 473 439 486.3 443.7 500.3 463.7 c 0
 509.3 476.7 522.3 490 534 494 c 1
 540.7 491.7 552 486.3 555 478 c 1
 545 455.7 532 420.7 532 376 c 2
 532 -107 l 2
 532 -190 543 -194 604 -197 c 1
 610 -203 610 -228 604 -234 c 1
 561 -233 533.9 -232 489 -232 c 0
 436 -232 395 -233 353 -234 c 1
 347 -228 347 -203 353 -197 c 1
 435 -195 445 -190 445 -107 c 2
EndSplineSet
EndChar

StartChar: r
Encoding: 114 114 118
Width: 640
GlyphClass: 2
Flags: MW
AnchorPoint: "middle" 241.2 185 basechar 0
AnchorPoint: "right" 424.2 580 basechar 0
AnchorPoint: "cedilla" 247.2 7 basechar 0
AnchorPoint: "above" 266.2 646 basechar 0
AnchorPoint: "below" 248.2 -110 basechar 0
LayerCount: 2
Fore
SplineSet
301 406 m 0
 301 373 302.4 364.9 311 374 c 0
 378 444.5 428 490 549 490 c 0
 594 490 606 459 606 439 c 0
 606 412 585 384 559 384 c 0
 539 384 524 399 513 411 c 0
 506 419 483 431.5 469 431.5 c 0
 430 431.5 381 390.5 325 328 c 0
 310.2 311.5 301 290 301 264 c 2
 301 126 l 2
 301 77 305 59 323 49 c 0
 335 43 441 36 476 35 c 1
 482 29 482 4 476 -2 c 1
 433 -1 311 0 270 0 c 0
 230 0 105 -1 63 -2 c 1
 57 4 57 29 63 35 c 1
 104 37 185.5 42.5 195 49 c 0
 209.9 59.2 214 78 214 126 c 2
 214 368 l 2
 214 401 211 414 198 422 c 0
 188 428 115.5 436 92 436 c 1
 90 442 88 458 90 464 c 1
 159 473 237 485.5 281 493 c 1
 289 493 291 490 293 485 c 0
 298 475 301 460.5 301 406 c 0
EndSplineSet
EndChar

StartChar: s
Encoding: 115 115 119
Width: 640
GlyphClass: 2
Flags: MW
AnchorPoint: "middle" 308.6 215 basechar 0
AnchorPoint: "komb_OR" 479.1 386 basechar 0
AnchorPoint: "right" 452 580 basechar 0
AnchorPoint: "ogonek" 376 13 basechar 0
AnchorPoint: "above" 292 645 basechar 0
AnchorPoint: "cedilla" 285 1 basechar 0
AnchorPoint: "below" 287 -110 basechar 0
LayerCount: 2
Fore
SplineSet
88 144 m 1
 97 153 117 158 131 156 c 1
 138 128 162 78 191 53 c 0
 209 38 255 27 312 27 c 0
 412 27 471 65 471 120 c 0
 471 168 428.5 189 286 213 c 0
 153 235.4 105 272.5 105 361 c 0
 105 441 213 490 322 490 c 0
 393 490 461.5 470.5 496 459 c 1
 504 427 510 389 516 342 c 1
 509 335 496 329 480 330 c 1
 438 402 400.5 453 322 453 c 0
 230 453 180 420 180 377 c 0
 180 321 248.5 302.5 358 285 c 0
 515.1 259.9 553 221 553 145 c 0
 553 30.5 448 -10 314 -10 c 0
 257.5 -10 205.5 -3 187 2 c 0
 179 4.2 165 5 157 5 c 0
 151 5 135 3 123 1 c 1
 105 42 92 89 88 144 c 1
EndSplineSet
EndChar

StartChar: t
Encoding: 116 116 120
Width: 640
GlyphClass: 2
Flags: MW
AnchorPoint: "middle" 240 215 basechar 0
AnchorPoint: "right" 392 580 basechar 0
AnchorPoint: "cedilla" 318 -3 basechar 0
AnchorPoint: "ogonek" 410 15 basechar 0
AnchorPoint: "below" 276 -110 basechar 0
LayerCount: 2
Fore
SplineSet
89 440 m 2
 188 440.1 l 1
 188 551 185 594.4 185 606 c 0
 185 616 210 618 227 625.1 c 0
 242.7 631.7 264 642.8 271.3 642.8 c 0
 276 642.8 279 640.4 279 634 c 2
 279 634 275 594 275 529 c 2
 275 440 l 1
 495 440 l 2
 500 440 503 438 503 434 c 2
 503 409 l 2
 503 400 489 396 479 396 c 2
 275 396 l 1
 275 187 l 2
 275 69 326 49 377 49 c 0
 420.5 49 476.5 71 531 94 c 1
 541 93 547 76.3 549 66 c 1
 468 21 400.5 -10 342 -10 c 0
 254 -10 188 27 188 139 c 2
 188 396 l 1
 76 396 l 2
 72 396 71 397 71 402 c 2
 71 420 l 2
 71 428 75 440 89 440 c 2
EndSplineSet
EndChar

StartChar: u
Encoding: 117 117 121
Width: 640
GlyphClass: 2
Flags: MW
AnchorPoint: "middle" 311.5 215 basechar 0
AnchorPoint: "cedilla" 272.5 0 basechar 0
AnchorPoint: "ogonek" 472.5 7 basechar 0
AnchorPoint: "below" 298.5 -110 basechar 0
AnchorPoint: "above" 314.5 645 basechar 0
LayerCount: 2
Fore
SplineSet
246.5 -10 m 0
 147.5 -10 111.5 57 111.5 126 c 2
 111.5 365 l 2
 111.5 400.2 107.4 419.6 96 430.6 c 0
 86.4 439.9 61.5 443.2 39.5 445 c 1
 33.5 451 33.5 476 39.5 482 c 1
 76.5 481 125.5 480 157.5 480 c 0
 172.5 480 189.5 481 194.5 482 c 0
 199.5 482 202.5 479 202.5 476 c 2
 202.5 476 198.5 399 198.5 369 c 2
 198.5 140 l 2
 198.5 51 248.5 37 278.5 37 c 0
 303.5 37 364 56 422.5 99 c 0
 437.4 109.9 438.5 119 438.5 138 c 2
 438.5 364 l 2
 438.5 400.5 434.5 420.5 422.7 431.6 c 0
 413.1 440.6 393.4 443.7 371.5 445 c 1
 365.5 451 365.5 476 371.5 482 c 1
 408.5 481 446.5 480 478.5 480 c 0
 493.5 480 516.5 481 521.5 482 c 0
 526.5 482 529.5 479 529.5 476 c 2
 529.5 476 525.5 399 525.5 369 c 2
 525.5 130 l 2
 525.5 81 537.5 62 601.5 57 c 1
 607.5 51 607.5 36 601.5 30 c 1
 540.5 23 491.5 8 469.5 -10 c 1
 461.5 -12 458.5 -13 450.5 -10 c 1
 450.5 -10 439.5 14.9 439.5 59 c 0
 439.5 66 432.6 63.9 427.5 60 c 0
 360 9.1 285.5 -10 246.5 -10 c 0
EndSplineSet
EndChar

StartChar: v
Encoding: 118 118 122
Width: 640
GlyphClass: 2
Flags: MW
AnchorPoint: "below" 316 -110 basechar 0
AnchorPoint: "above" 324 646 basechar 0
AnchorPoint: "right" 528 580 basechar 0
AnchorPoint: "middle" 352 267 basechar 0
LayerCount: 2
Fore
SplineSet
424 445 m 1
 417 451 417 476 424 482 c 1
 465 481 488 480 529 480 c 0
 558 480 586 481 610 482 c 1
 617 476 617 451 610 445 c 1
 551 439 541.1 419.5 520 375 c 2
 347 11 l 2
 339 -6 330 -12 319 -12 c 0
 305 -12 295 -6 288 9 c 2
 126 376 l 2
 104 427 93 438 30 445 c 1
 23 451 23 476 30 482 c 1
 71 481 95 480 133 480 c 0
 178.6 480 209 481 250 482 c 1
 257 476 257 451 250 445 c 1
 198 441 200.5 431 221 382 c 2
 323 138 l 2
 340 96 346 96 364 135 c 2
 478 382 l 2
 501 433 483 441 424 445 c 1
EndSplineSet
EndChar

StartChar: w
Encoding: 119 119 123
Width: 640
GlyphClass: 2
Flags: MW
AnchorPoint: "right" 719 580 basechar 0
AnchorPoint: "below" 356.6 -111 basechar 0
AnchorPoint: "above" 321.8 646 basechar 0
LayerCount: 2
Fore
SplineSet
358.5 357 m 1
 441.8 138 l 2
 451.6 112.1 454.7 118.3 461 142 c 2
 524.6 381 l 2
 534.3 417.6 534 441 459 445 c 1
 453 451 453 476 459 482 c 1
 491 481 525 480 563 480 c 0
 599 480 617.3 481 633 482 c 1
 639 476 639 451 633 445 c 1
 587 440 580.2 423 567.6 377 c 2
 467 9 l 2
 463.1 -6.7 454 -12 445 -12 c 0
 435 -12 427.9 -6 422 8 c 2
 317.7 256 l 1
 313 262 l 1
 206 10 l 2
 199.2 -6.1 193 -12 184 -12 c 0
 174 -12 164.6 -6.8 161 8 c 2
 60.1 382 l 2
 45.2 437.1 41 440 7 445 c 1
 1 451 1 476 7 482 c 1
 28 481 57 480 95 480 c 0
 131 480 165.3 481 199 482 c 1
 205 476 205 451 199 445 c 1
 151 442 138.9 435.7 152.9 382 c 2
 206.9 175 l 2
 216.8 137.2 219.5 137.7 236 177 c 2
 308 349 l 1
 358.5 357 l 1
EndSplineSet
EndChar

StartChar: x
Encoding: 120 120 124
Width: 640
GlyphClass: 2
Flags: MW
AnchorPoint: "middle" 230.8 215 basechar 0
AnchorPoint: "right" 481.4 580 basechar 0
AnchorPoint: "below" 243.1 -110 basechar 0
AnchorPoint: "cedilla" 74.4 8 basechar 0
AnchorPoint: "above" 215.4 646 basechar 0
LayerCount: 2
Fore
SplineSet
225 409 m 2
 313 293 l 2
 321.2 282.2 329 286 333 291 c 2
 426 408 l 2
 449.1 437.1 425 441 389 445 c 1
 383 451 383 476 389 482 c 1
 422.7 481 468 480 490 480 c 0
 517 480 552 481 579 482 c 1
 585 476 585 451 579 445 c 1
 540 442 509.4 436 474 394 c 2
 362 261 l 2
 357.7 255.8 357.2 252.1 362 246 c 2
 481 94 l 2
 522.1 41.5 552.3 36.7 587 35 c 1
 593 29 595 4 589 -2 c 1
 560 -1 529 0 488 0 c 0
 449 0 401 -1 366 -2 c 1
 360 4 358 29 364 35 c 1
 401.7 38 424.1 41.8 390 84 c 2
 305 189 l 2
 297 200 294 197 286 187 c 2
 196 71 l 2
 174.2 42.9 200 39 229 35 c 1
 235 29 236 4 230 -2 c 1
 205.7 -1 170 0 129 0 c 0
 90 0 65.7 -1 42 -2 c 1
 36 4 34 29 40 35 c 1
 78 37 105.1 38.9 146 87 c 2
 259 220 l 2
 264 226 261 231 258 235 c 2
 142 388 l 2
 112 429 82 442 45 445 c 1
 39 451 39 476 45 482 c 1
 74.3 481 116 480 148 480 c 0
 180 480 237.7 481 267 482 c 1
 273 476 273 451 267 445 c 1
 220 439 206 434 225 409 c 2
EndSplineSet
EndChar

StartChar: y
Encoding: 121 121 125
Width: 640
GlyphClass: 2
Flags: MW
AnchorPoint: "below" 407.8 -107 basechar 0
AnchorPoint: "above" 216.9 644 basechar 0
LayerCount: 2
Fore
SplineSet
274 -160 m 0
 235 -224 166 -232 143 -232 c 0
 114 -232 93 -216 93 -195 c 0
 93 -182 109 -152 140 -152 c 0
 152 -152 157 -155 172 -155 c 0
 199 -155 235 -146 247 -126 c 1
 263 -95 276 -67 289 -34 c 0
 297 -14 281 24 264 60 c 2
 117 374 l 2
 87 438 78 441 29 445 c 1
 23 451 23 476 29 482 c 1
 51 481 82 480 119 480 c 0
 158 480 201 481 241 482 c 1
 247 476 247 451 241 445 c 1
 186 440 191 426 210 384 c 2
 331 125 l 2
 345.2 94.5 349.1 93.7 363 124 c 2
 492 404 l 2
 508 439 466 444 430 445 c 1
 424 451 424 476 430 482 c 1
 460 481 491 480 529 480 c 0
 559 480 594 481 621 482 c 1
 627 476 627 451 621 445 c 1
 568 442 547 414 532 385 c 0
 475 273 404 119 318 -74 c 0
 305 -104 291 -132 274 -160 c 0
EndSplineSet
EndChar

StartChar: z
Encoding: 122 122 126
Width: 640
GlyphClass: 2
Flags: MW
AnchorPoint: "middle" 207 215 basechar 0
AnchorPoint: "right" 399 580 basechar 0
AnchorPoint: "below" 271.6 -111 basechar 0
AnchorPoint: "cedilla" 267.1 4 basechar 0
AnchorPoint: "above" 216.8 646 basechar 0
LayerCount: 2
Fore
SplineSet
121 490 m 0
 134.7 486 157.9 480 190 480 c 2
 473 480 l 2
 502 480 540 482 545 482 c 0
 552 482 557 479 557 475 c 0
 557 471 548.2 456.5 529 434 c 0
 428 315.5 260 129.6 183 37 c 1
 396 37 l 2
 448.1 37 487.1 63.2 514 110 c 2
 547 167.5 l 1
 563 166 576 161 582 154.5 c 1
 571 102 558 62 522 -2 c 1
 360.3 -1 233.9 0 72 0 c 1
 64 7.5 60 21.8 62 35 c 1
 86.5 49.5 101.7 64 122.2 89.2 c 0
 210.3 197.8 344 329.5 439 443 c 1
 239 440 l 2
 187 439.2 138 405.5 114 341 c 1
 102.4 338.4 87 342 78 350.5 c 1
 92 408.5 100 436 115 484 c 0
 115 486.4 118.6 490 121 490 c 0
EndSplineSet
EndChar

StartChar: braceleft
Encoding: 123 123 127
Width: 640
GlyphClass: 2
Flags: MW
LayerCount: 2
Fore
SplineSet
360 552 m 2
 368 386 l 2
 372.3 297 310.2 268.2 243 249 c 1
 243 245 l 1
 310.8 216.8 372.4 177.3 368 95 c 2
 360 -54 l 2
 355.5 -138 486 -188 530 -188 c 1
 536 -194 536 -206 530 -212 c 1
 429 -212 283 -179 288 -49 c 2
 294 121 l 2
 296 182 249.5 226 176 235 c 1
 168 243 167 250 176 259 c 1
 250 266 294 320 294 370 c 1
 288 554 l 2
 284 667 440 707 530 707 c 1
 536 701 536 689 530 683 c 1
 492 672 355 654.9 360 552 c 2
EndSplineSet
EndChar

StartChar: bar
Encoding: 124 124 128
Width: 640
GlyphClass: 2
Flags: MW
LayerCount: 2
Fore
SplineSet
342 -232 m 1
 298 -232 l 1
 298 698 l 1
 342 698 l 1
 342 -232 l 1
EndSplineSet
EndChar

StartChar: braceright
Encoding: 125 125 129
Width: 640
GlyphClass: 2
Flags: MW
LayerCount: 2
Fore
SplineSet
280 -58 m 2
 272 108 l 2
 267.7 197 329.8 225.8 397 245 c 1
 397 249 l 1
 329.2 277.2 267.6 316.7 272 399 c 2
 280 548 l 2
 284.5 632 154 682 110 682 c 1
 104 688 104 700 110 706 c 1
 211 706 357 673 352 543 c 2
 346 373 l 2
 344 312 390.5 268 464 259 c 1
 472 251 473 244 464 235 c 1
 390 228 346 174 346 124 c 1
 352 -60 l 2
 356 -173 200 -213 110 -213 c 1
 104 -207 104 -195 110 -189 c 1
 148 -178 285 -160.9 280 -58 c 2
EndSplineSet
EndChar

StartChar: asciitilde
Encoding: 126 126 130
Width: 640
GlyphClass: 2
Flags: MW
LayerCount: 2
Fore
SplineSet
88 260 m 1
 99 325 173 402 239 402 c 0
 278 402 297 386 329 359 c 0
 361 332 395 317 426 317 c 0
 457 317 506 340 528 390 c 1
 551 384 l 1
 522 277 440 250 414 250 c 0
 382 250 347 265 318 295 c 0
 290 323 259 335 225 335 c 0
 187 335 135 301 112 257 c 1
 88 260 l 1
EndSplineSet
EndChar

StartChar: exclamdown
Encoding: 161 161 132
Width: 640
GlyphClass: 2
Flags: MW
LayerCount: 2
Fore
SplineSet
300 -180 m 0
 276 -180 247 -161 247 -107 c 0
 247 -42 261 0 271 86 c 0
 284 194 284 254 286 268 c 0
 287 279 290 288 300 288 c 0
 310 288 313 281 314 275 c 0
 316 254 322 164 330 86 c 0
 339 -2 353 -37 353 -107 c 0
 353 -161 324 -180 300 -180 c 0
361 428 m 0
 361 396 333 368 300 368 c 0
 267 368 239 396 239 428 c 0
 239 460 267 488 300 488 c 0
 333 488 361 460 361 428 c 0
EndSplineSet
EndChar

StartChar: cent
Encoding: 162 162 133
Width: 640
GlyphClass: 2
Flags: MW
LayerCount: 2
Fore
SplineSet
302 621 m 1
 348 621 l 1
 348 537.5 l 1
 412.6 534.4 476 512.7 513.1 481.8 c 0
 534.7 463.8 546.4 441.2 546.4 420.9 c 0
 546.4 385.2 530.2 366.7 501.7 366.7 c 0
 478.9 366.7 458.1 384 454.2 412.4 c 0
 448.3 455.6 404.6 490.5 348 497.6 c 1
 348 114 l 1
 350.4 113.9 352.8 113.8 355.3 113.8 c 0
 403.8 113.8 477 136.7 536.9 198.5 c 1
 547.4 197.5 560.7 184.2 564.5 174.7 c 1
 485.8 85.5 411.9 65.4 348 62.8 c 1
 348 -23 l 1
 302 -23 l 1
 302 63.8 l 1
 163.6 75.9 86.3 173.4 86.3 293.5 c 0
 86.3 424.3 181.9 521.9 302 536.1 c 1
 302 621 l 1
302 121.7 m 1
 302 497.2 l 1
 220.2 485.9 172.8 417.7 172.8 316.3 c 0
 172.8 221.6 224.3 145.6 302 121.7 c 1
EndSplineSet
EndChar

StartChar: sterling
Encoding: 163 163 134
Width: 640
GlyphClass: 2
Flags: MW
LayerCount: 2
Fore
SplineSet
100 318 m 2
 95 318 94 320 94 325 c 2
 94 339 l 2
 94 348 100 362 119 362 c 2
 199 362 l 1
 199 409 l 2
 199 500 222.2 563.5 287 615 c 0
 326 646 377 658 451 658 c 0
 476 658 556 643 556 605 c 0
 556 578 538 562 512 562 c 0
 496 562 487 570 474 582 c 0
 460 595 434 617 411 617 c 0
 338 617 290 576 290 463 c 2
 290 362 l 1
 443 362 l 2
 448 362 452 359 452 355 c 2
 452 332 l 2
 452 323 438 318 426 318 c 2
 290 318 l 1
 289 191 246 141 210 107 c 1
 342 107 372 57 446 57 c 0
 478 57 528 76 556 114 c 1
 565 113 575 109 579 102 c 1
 553 47 496 -12 427 -12 c 0
 331 -12 314 62 194 62 c 0
 157 62 123 44 114 30 c 0
 98.6 6.1 100 -12 77 -12 c 0
 57 -12 36 1 36 18 c 0
 36 38 64 65 93 81 c 1
 189 127 199 201 199 298 c 2
 199 318 l 1
 100 318 l 2
EndSplineSet
EndChar

StartChar: currency
Encoding: 164 164 135
Width: 640
GlyphClass: 2
Flags: MW
LayerCount: 2
Fore
SplineSet
187 305 m 0
 187 223 238 155 318 155 c 0
 397 155 449 224 449 304 c 0
 449 388 389 454 320 454 c 0
 241 454 187 385 187 305 c 0
318 107 m 0
 273 107 232 120 196 147 c 1
 148 87 l 1
 102 133 l 1
 163 181 l 1
 134 216 118 258 118 304 c 0
 118 352 134 394 163 428 c 1
 105 475 l 1
 146 519 l 1
 197 462 l 1
 234 489 274 501 318 501 c 0
 364 501 405 488 441 460 c 1
 493 522 l 1
 537 476 l 1
 475 426 l 1
 503 392 517 351 517 304 c 0
 517 259 503 218 476 183 c 1
 534 134 l 1
 494 92 l 1
 443 148 l 1
 406 120 364 107 318 107 c 0
EndSplineSet
EndChar

StartChar: yen
Encoding: 165 165 136
Width: 640
GlyphClass: 2
Flags: MW
AnchorPoint: "above" 331 850 basechar 0
AnchorPoint: "below" 331 -110 basechar 0
AnchorPoint: "cedilla" 329 1 basechar 0
LayerCount: 2
Fore
SplineSet
152 242 m 2
 148 242 147 243 147 248 c 2
 147 263 l 2
 147 271 152 284 171 284 c 2
 281.9 284 l 1
 279.4 297.9 274 308.8 263 326 c 2
 121.7 547 l 2
 85.6 603.5 74 607 32 610 c 1
 26 616 25 641 31 647 c 1
 61 646 94 645 133 645 c 0
 173 645 207 646 247 647 c 1
 253 641 253 616 247 610 c 1
 191 607 186.1 599.5 211.2 558.8 c 2
 337.2 354 l 2
 346.8 338.4 350.4 337.1 359 352 c 2
 479.8 561 l 2
 502.5 600.4 485.3 607 441 610 c 1
 435 616 435 641 441 647 c 1
 481 646 509 645 532 645 c 0
 555 645 585 646 615 647 c 1
 621 641 621 616 615 610 c 1
 570.3 605.7 553.2 598.8 524 550 c 2
 394.5 334 l 2
 382.8 314.6 379 300.3 377.7 284 c 1
 518 284 l 2
 523 284 526 282 526 278 c 2
 526 256 l 2
 526 246 512 242 501 242 c 2
 377 242 l 1
 377 175 l 1
 518 175 l 2
 523 175 526 173 526 169 c 2
 526 148 l 2
 526 138 512 134 501 134 c 2
 377 134 l 1
 377 126 l 2
 377 43 394 38 474 35 c 1
 480 29 480 4 474 -2 c 1
 424 -1 386.8 0 331 0 c 0
 274.8 0 236 -1 187 -2 c 1
 181 4 181 29 187 35 c 1
 267 38 284 43 284 126 c 2
 284 134 l 1
 152 134 l 2
 148 134 147 136 147 141 c 2
 147 154 l 2
 147 162 152 175 171 175 c 2
 284 175 l 1
 284 242 l 1
 152 242 l 2
EndSplineSet
EndChar

StartChar: brokenbar
Encoding: 166 166 137
Width: 640
GlyphClass: 2
Flags: MW
LayerCount: 2
Fore
SplineSet
344.5 674 m 1
 344.5 312 l 1
 295.5 312 l 1
 295.5 674 l 1
 344.5 674 l 1
344.5 161 m 1
 344.5 -201 l 1
 295.5 -201 l 1
 295.5 161 l 1
 344.5 161 l 1
EndSplineSet
EndChar

StartChar: section
Encoding: 167 167 138
Width: 640
GlyphClass: 2
Flags: MW
LayerCount: 2
Fore
SplineSet
214.8 415.1 m 1
 179.9 450.4 170 484 170 526 c 0
 170 592 223 658 326 658 c 0
 423 658 465 596 465 557 c 0
 465 536 456 519 429 519 c 0
 403 519 393 541 388 560 c 0
 378 598 363 627 320 627 c 0
 273 627 239 592 239 546 c 0
 239 499 265 462 330 427 c 0
 407 386 513 342 513 219 c 0
 513 152.6 482.6 106.8 438.2 70.9 c 1
 473.1 35.6 483 2 483 -40 c 0
 483 -106 430 -172 327 -172 c 0
 230 -172 188 -110 188 -71 c 0
 188 -50 197 -33 224 -33 c 0
 250 -33 260 -55 265 -74 c 0
 275 -112 290 -141 333 -141 c 0
 380 -141 414 -106 414 -60 c 0
 414 -13 388 24 323 59 c 0
 246 100 140 144 140 267 c 0
 140 331.4 170.4 379.2 214.8 415.1 c 1
417 90.1 m 1
 441.1 111.5 459 139.6 459 171 c 0
 459 263 384 303 312 345 c 0
 280.5 363.2 255.6 379.8 236.1 395.8 c 1
 210.4 372.6 194 349.4 194 315 c 0
 194 223 269 183 341 141 c 0
 372.6 122.8 397.5 106.1 417 90.1 c 1
EndSplineSet
EndChar

StartChar: dieresis
Encoding: 168 168 139
Width: 640
GlyphClass: 2
Flags: MW
LayerCount: 2
Fore
SplineSet
189 624 m 0
 189 650 210 672 236 672 c 0
 262 672 283 650 283 624 c 0
 283 598 262 577 236 577 c 0
 210 577 189 598 189 624 c 0
358 624 m 0
 358 650 379 672 405 672 c 0
 431 672 452 650 452 624 c 0
 452 598 431 577 405 577 c 0
 379 577 358 598 358 624 c 0
EndSplineSet
EndChar

StartChar: copyright
Encoding: 169 169 140
Width: 640
GlyphClass: 2
Flags: MW
LayerCount: 2
Fore
SplineSet
439 216 m 1
 419 185 376 152 321 152 c 0
 282.3 152 245.7 164.9 219 187 c 0
 184.4 215.7 165 259.4 165 304 c 0
 165 342.2 177 378.6 201 405.5 c 0
 229.9 437.8 275 457 323 457 c 0
 393 457 410 444 430 442 c 1
 431 406.5 431 383 430 359 c 1
 425 356 418 355 410 355 c 1
 393 401 376 434 319 434 c 0
 279 434 232 409 232 311 c 0
 232 238 274 181 330 181 c 0
 381 181 409 215 420 231 c 1
 429.8 228.3 435.5 222.5 439 216 c 1
320 23 m 0
 163 23 37 151 37 306 c 0
 37 462 164 588 320 588 c 0
 476 588 602 462 602 306 c 0
 602 150 476 23 320 23 c 0
320 557 m 0
 180 557 68 445 68 306 c 0
 68 168 180 55 320 55 c 0
 458 55 571 167 571 306 c 0
 571 445 459 557 320 557 c 0
EndSplineSet
EndChar

StartChar: ordfeminine
Encoding: 170 170 141
Width: 640
GlyphClass: 2
Flags: MW
LayerCount: 2
Fore
SplineSet
376 502 m 1
 282 479 256 461 256 428 c 0
 256 406 268 385 305 385 c 0
 328 385 347 395 376 419 c 1
 376 502 l 1
423 351 m 0
 395 351 380 373 377 392 c 1
 340 360 319 351 283 351 c 0
 237 351 198 380 198 425 c 0
 198 469 243 498 312 515 c 2
 376 531 l 1
 376 610 341 618 316 618 c 0
 280 618 257 606 257 589 c 0
 257 582 258 578 259 576 c 0
 260 574 261 568 261 563 c 0
 261 555 254 541 233 541 c 0
 217 541 204 551 204 567 c 0
 204 609 272 644 318 644 c 0
 372 644 435 623 435 524 c 2
 435 446 l 2
 435 403 440 386 450 386 c 0
 454 386 461 388 464 391 c 1
 472 388 476 382 475 374 c 1
 465 364 444 351 423 351 c 0
EndSplineSet
EndChar

StartChar: guillemotleft
Encoding: 171 171 142
Width: 640
GlyphClass: 2
Flags: MW
LayerCount: 2
Fore
SplineSet
186 245 m 1
 230 198 274 144 334 57 c 1
 331 46 318 36 306 35 c 1
 212 130 154 185 89 239 c 1
 89 251 l 1
 154 305 212 360 306 455 c 1
 318 454 331 444 334 433 c 1
 274 346 230 292 186 245 c 1
398 245 m 1
 442 198 488 144 548 57 c 1
 545 46 531 36 519 35 c 1
 425 130 367 185 302 239 c 1
 302 251 l 1
 367 305 425 360 519 455 c 1
 531 454 545 444 548 433 c 1
 488 346 442 292 398 245 c 1
EndSplineSet
EndChar

StartChar: logicalnot
Encoding: 172 172 143
Width: 640
GlyphClass: 2
Flags: MW
LayerCount: 2
Fore
SplineSet
499 99 m 1
 499 323 l 1
 40 323 l 1
 36.3 335.8 33.3 349 40 367 c 1
 553 367 l 1
 553 99 l 1
 536.4 92.6 518 90 499 99 c 1
EndSplineSet
EndChar

StartChar: uni00AD
Encoding: 173 173 144
Width: 640
GlyphClass: 2
Flags: MW
LayerCount: 2
Fore
SplineSet
483 215 m 2
 142 215 l 2
 131 215 124 230 124 241 c 0
 124 261 140 291 154 291 c 2
 499 291 l 2
 511 291 516 275 516 264 c 0
 516 251 499 215 483 215 c 2
EndSplineSet
EndChar

StartChar: registered
Encoding: 174 174 145
Width: 640
GlyphClass: 2
Flags: MW
LayerCount: 2
Fore
SplineSet
376 370 m 0
 376 404 360 421 326 421 c 0
 301 421 286 405 286 387 c 2
 286 312 l 1
 328 312 l 2
 358 312 376 324 376 370 c 0
263 443 m 0
 279 443 315 445 335 445 c 0
 410 445 430 400 430 370 c 0
 430 331 404 306 373 296 c 1
 421 214 l 2
 432 195.2 448 187 464 190 c 1
 468 186 469 179 468 173 c 1
 456 168 444 166 432 166 c 0
 412 166 388 175 371 204 c 2
 323 284 l 1
 319 287 291 288 286 288 c 1
 286 232 l 2
 286 200 294 194 326 191 c 1
 330 187 330 171 326 167 c 1
 308 168 279 169 263 169 c 0
 247 169 217 168 199 167 c 1
 195 171 195 187 199 191 c 1
 231 194 239 200 239 232 c 2
 239 380 l 2
 239 412 231 418 199 421 c 1
 195 425 195 441 199 445 c 1
 217 444 247 443 263 443 c 0
320 23 m 0
 163 23 37 151 37 306 c 0
 37 462 164 588 320 588 c 0
 476 588 602 462 602 306 c 0
 602 150 476 23 320 23 c 0
320 557 m 0
 180 557 68 445 68 306 c 0
 68 168 180 55 320 55 c 0
 458 55 571 167 571 306 c 0
 571 445 459 557 320 557 c 0
EndSplineSet
EndChar

StartChar: macron
Encoding: 175 175 146
Width: 640
GlyphClass: 2
Flags: MW
LayerCount: 2
Fore
SplineSet
315 529 m 2
 71 529 l 2
 62 529 59 537 59 544 c 0
 59 556 69 573 81 573 c 2
 325 573 l 2
 335 573 339 565 339 559 c 0
 339 547 328 529 315 529 c 2
EndSplineSet
EndChar

StartChar: degree
Encoding: 176 176 147
Width: 640
GlyphClass: 2
Flags: MW
LayerCount: 2
Fore
SplineSet
398 524 m 0
 398 564 374 610 320 610 c 0
 268 610 241 567 241 524 c 0
 241 482 270 441 320 441 c 0
 369 441 398 483 398 524 c 0
188 525 m 0
 188 599 247 658 320 658 c 0
 393 658 451 599 451 525 c 0
 451 452 393 393 320 393 c 0
 247 393 188 452 188 525 c 0
EndSplineSet
EndChar

StartChar: plusminus
Encoding: 177 177 148
Width: 640
GlyphClass: 2
Flags: MW
LayerCount: 2
Fore
SplineSet
571 92 m 2
 584 92 590 81 590 71 c 0
 590 59 571 32 554 32 c 2
 70 32 l 2
 58 32 50 41 50 51 c 0
 50 69 67 92 83 92 c 2
 571 92 l 2
288 637 m 2
 288 653 317 669 330 669 c 0
 340 669 352 664 352 652 c 2
 352 446 l 1
 571 446 l 2
 584 446 590 435 590 425 c 0
 590 413 571 386 554 386 c 2
 352 386 l 1
 352 194 l 2
 352 180 328 164 308 164 c 0
 298 164 288 171 288 182 c 2
 288 386 l 1
 70 386 l 2
 58 386 50 395 50 405 c 0
 50 423 67 446 83 446 c 2
 288 446 l 1
 288 637 l 2
EndSplineSet
EndChar

StartChar: uni00B2
Encoding: 178 178 149
Width: 640
GlyphClass: 2
Flags: MW
LayerCount: 2
Fore
SplineSet
171.7 584.7 m 0
 159.7 584.7 145 595.7 145 610 c 0
 145 638.7 175 688 254 688 c 0
 304 688 375 669 375 605 c 0
 375 559 328.6 523 275.3 484.3 c 0
 233.5 454 199.7 429 197 396 c 1
 310 396 l 2
 339.3 396 355 435 366 463 c 1
 376.7 463.3 384.7 461.7 390 458 c 1
 385.7 422.3 379.5 390.7 371 364 c 1
 121 364 l 1
 121 412 179.3 456.4 228.3 492 c 0
 276.5 527 310 558 310 604 c 0
 310 651 268 658 250 658 c 0
 219 658 207 649 202 637 c 0
 198.5 628.7 203.6 615.9 202.3 608 c 0
 199.3 590 181.7 584.7 171.7 584.7 c 0
EndSplineSet
EndChar

StartChar: uni00B3
Encoding: 179 179 150
Width: 640
GlyphClass: 2
Flags: MW
LayerCount: 2
Fore
SplineSet
293 621 m 0
 293 647 280 658 241 658 c 0
 224 658 191.5 653.5 183 634 c 0
 178.2 623 179 605 156 605 c 0
 137 605 133 620 133 623 c 0
 133 640 166 688 253 688 c 0
 308.5 688 352 671.5 352 625 c 0
 352 587 330 571 301 555 c 1
 334 552 381 528 381 470 c 0
 381 401 312 358 232 358 c 0
 205.8 358 125.2 369.3 125.2 400.8 c 0
 125.2 414.1 137.7 423 150 423 c 0
 164 423 174 418 180 406 c 0
 185.7 394.5 204 388 236 388 c 0
 265 388 319 407 319 462 c 0
 319 519 268 523 244 523 c 0
 237 523 232 522.5 224 521 c 1
 218.6 527.5 219.3 538.9 222 548 c 1
 266 554 293 580 293 621 c 0
EndSplineSet
EndChar

StartChar: acute
Encoding: 180 180 151
Width: 640
GlyphClass: 2
Flags: MW
LayerCount: 2
Fore
SplineSet
286.2 686 m 1
 165.4 541 l 2
 160.8 535.5 158 527.5 158 521 c 0
 158 512 167 508 179.2 508 c 0
 193.6 508 211.4 516 238.6 532 c 2
 437 652 l 1
 429 663 l 1
 406.6 670 390.2 689 315 689 c 0
 305.4 689 292.6 688 286.2 686 c 1
EndSplineSet
EndChar

StartChar: mu
Encoding: 181 181 152
Width: 640
GlyphClass: 2
Flags: MW
LayerCount: 2
Fore
SplineSet
390 80 m 1
 351 36 288 -10 224 -10 c 0
 197 -10 171 0 159 13 c 1
 153 13 146 9 146 4 c 0
 146 -61 180 -131 180 -174 c 0
 180 -215 161 -234 137 -234 c 0
 120 -234 80 -210 80 -169 c 0
 80 -118 96 -71 96 -8 c 0
 96 25 87 76 87 134 c 2
 87 322 l 2
 87 350 76 429 76 429 c 1
 100 429 133 436 163 439 c 1
 163 439 166 375 166 343 c 2
 166 147 l 2
 166 85 183 35 239 35 c 0
 294 35 369 94 392 127 c 1
 392 429 l 1
 417 429 445 436 471 439 c 1
 471 121 l 2
 471 75 472 34 513 34 c 0
 539 34 542 50 548 50 c 0
 552 50 560 42 560 35 c 0
 560 30 524 -10 472 -10 c 0
 411 -10 395 22 392 80 c 1
 390 80 l 1
EndSplineSet
EndChar

StartChar: paragraph
Encoding: 182 182 153
Width: 640
GlyphClass: 2
Flags: MW
LayerCount: 2
Fore
SplineSet
367 574 m 2
 367 -161 l 2
 367 -188 384 -199 407 -199 c 0
 430 -199 448 -192 448 -161 c 2
 448 574 l 2
 448 605 430 612 407 612 c 0
 384 612 367 601 367 574 c 2
408 645 m 0
 477 645 537.5 645 585 647 c 1
 587 645 l 1
 587 626 l 2
 587 621 583 618.3 579 618 c 2
 553 616 l 2
 513.3 612.9 498 604 498 574 c 2
 498 -161 l 2
 498 -191 513.3 -199.9 553 -203 c 2
 579 -205 l 2
 583 -205.3 587 -208 587 -213 c 2
 587 -232 l 1
 585 -234 l 1
 537.5 -232 477 -232 408 -232 c 0
 339 -232 280 -232 231 -234 c 1
 229 -232 l 1
 229 -213 l 2
 229 -208 232 -205.3 236 -205 c 2
 263 -203 l 2
 304.6 -199.9 317 -189 317 -161 c 2
 317 285 l 1
 308 283 300 282 285 282 c 0
 139 282 57 347 57 481 c 0
 57 560 115 647 247 647 c 0
 322 647 381 645 408 645 c 0
EndSplineSet
EndChar

StartChar: periodcentered
Encoding: 183 183 154
Width: 640
GlyphClass: 2
Flags: MW
LayerCount: 2
Fore
SplineSet
125 204 m 0
 97 204 71 230 71 258 c 0
 71 286 97 312 125 312 c 0
 153 312 179 286 179 258 c 0
 179 230 153 204 125 204 c 0
EndSplineSet
EndChar

StartChar: cedilla
Encoding: 184 184 155
Width: 640
GlyphClass: 2
Flags: MW
LayerCount: 2
Fore
SplineSet
143 -96 m 0
 124 -96 114 -97 98 -102 c 1
 92 -96 l 1
 132 0 l 1
 166 0 l 1
 141 -67 l 1
 149 -65 158 -64 167 -64 c 0
 207 -64 238 -88 238 -126 c 0
 238 -169 192 -200 131 -200 c 0
 99 -200 82 -194 57 -183 c 1
 57 -171 60 -164 67 -157 c 1
 94 -167 105 -171 125 -171 c 0
 155 -171 176 -157 176 -131 c 0
 176 -110 166 -96 143 -96 c 0
EndSplineSet
EndChar

StartChar: uni00B9
Encoding: 185 185 156
Width: 640
GlyphClass: 2
Flags: MW
LayerCount: 2
Fore
SplineSet
215 620 m 0
 202 620 183 614 158 605 c 1
 150.1 611.1 148 620 148 632 c 1
 195 649 221 661 265 688 c 0
 270.3 690.9 277.7 693 283 688 c 1
 283 449 l 2
 283 398 304 395 338 393 c 1
 342 385 342 371 338 364 c 1
 308 365 287 365 254 365 c 0
 218.7 365 188 365 158 364 c 1
 154 370 153 385 158 393 c 1
 198 395 229 398 229 449 c 2
 229 579 l 2
 229 611 227 620 215 620 c 0
EndSplineSet
EndChar

StartChar: ordmasculine
Encoding: 186 186 157
Width: 640
GlyphClass: 2
Flags: MW
LayerCount: 2
Fore
SplineSet
39 429 m 0
 39 510 93 566 179 566 c 0
 266 566 311 504 311 435 c 0
 311 370 266 303 172 303 c 0
 98 303 39 358 39 429 c 0
171 540 m 0
 121 540 97 493 97 439 c 0
 97 390 123 329 183 329 c 0
 210 329 253 347 253 419 c 0
 253 499 221 540 171 540 c 0
EndSplineSet
EndChar

StartChar: guillemotright
Encoding: 187 187 158
Width: 640
GlyphClass: 2
Flags: MW
LayerCount: 2
Fore
SplineSet
454 240 m 1
 410 287 366 341 306 428 c 1
 309 439 322 449 334 450 c 1
 428 355 486 300 551 246 c 1
 551 234 l 1
 486 180 428 125 334 30 c 1
 322 31 309 41 306 52 c 1
 366 139 410 193 454 240 c 1
242 240 m 1
 198 287 152 341 92 428 c 1
 95 439 109 449 121 450 c 1
 215 355 273 300 338 246 c 1
 338 234 l 1
 273 180 215 125 121 30 c 1
 109 31 95 41 92 52 c 1
 152 139 198 193 242 240 c 1
EndSplineSet
EndChar

StartChar: onequarter
Encoding: 188 188 159
Width: 640
GlyphClass: 2
Flags: MW
LayerCount: 2
Fore
SplineSet
530 601 m 1
 572 593 l 1
 113 -62 l 1
 72 -54 l 1
 530 601 l 1
122 571 m 0
 109 571 90 565 65 556 c 1
 57.1 562.1 55 571 55 583 c 1
 102 600 128 612 172 639 c 0
 177.3 641.9 184.7 644 190 639 c 1
 190 400 l 2
 190 349 211 346 245 344 c 1
 249 336 249 322 245 315 c 1
 215 316 194 316 161 316 c 0
 125.7 316 95 316 65 315 c 1
 61 321 60 336 65 344 c 1
 105 346 136 349 136 400 c 2
 136 530 l 2
 136 562 134 571 122 571 c 0
488.5 191.7 m 1
 449.3 143.2 397 69.5 390.5 52 c 1
 488.5 52 l 1
 488.5 191.7 l 1
488.5 -6 m 2
 488.5 18 l 1
 369.8 18 l 2
 343.2 18 348.3 38.2 350.9 46.2 c 0
 353.8 52.5 357 57.5 360.4 63 c 0
 393.6 116.8 437.3 169 472.4 210 c 0
 481.4 220.5 492.8 231.7 508.1 240.8 c 0
 509.2 241.5 518.5 242 521.8 242 c 0
 528.1 242 540.6 240.9 540.6 232 c 2
 540.6 52 l 1
 596.5 52 l 1
 590.5 18 l 1
 540.6 18 l 1
 540.6 -6 l 2
 540.6 -47 557.5 -50 591.5 -52 c 1
 595.5 -60 595.5 -74 591.5 -81 c 1
 561.5 -80 543.1 -80 513.5 -80 c 0
 478.2 -80 465.5 -80 435.5 -81 c 1
 431.5 -75 430.5 -60 435.5 -52 c 1
 475.5 -50 488.5 -47 488.5 -6 c 2
EndSplineSet
LCarets2: 2 0 0
EndChar

StartChar: onehalf
Encoding: 189 189 160
Width: 640
GlyphClass: 2
Flags: MW
LayerCount: 2
Fore
SplineSet
530 601 m 1
 572 593 l 1
 113 -62 l 1
 72 -54 l 1
 530 601 l 1
114 571 m 0
 101 571 82 565 57 556 c 1
 49.1 562.1 47 571 47 583 c 1
 94 600 120 612 164 639 c 0
 169.3 641.9 176.7 644 182 639 c 1
 182 400 l 2
 182 349 203 346 237 344 c 1
 241 336 241 322 237 315 c 1
 207 316 186 316 153 316 c 0
 117.7 316 87 316 57 315 c 1
 53 321 52 336 57 344 c 1
 97 346 128 349 128 400 c 2
 128 530 l 2
 128 562 126 571 114 571 c 0
409.7 141.7 m 0
 397.7 141.7 383 152.7 383 167 c 0
 383 195.7 413 245 492 245 c 0
 542 245 613 226 613 162 c 0
 613 116 566.6 80 513.3 41.3 c 0
 471.5 11 437.7 -14 435 -47 c 1
 548 -47 l 2
 577.3 -47 593 -8 604 20 c 1
 614.7 20.3 622.7 18.7 628 15 c 1
 623.7 -20.7 617.5 -52.3 609 -79 c 1
 359 -79 l 1
 359 -31 417.3 13.4 466.3 49 c 0
 514.5 84 548 115 548 161 c 0
 548 208 506 215 488 215 c 0
 457 215 445 206 440 194 c 0
 436.5 185.7 441.6 172.9 440.3 165 c 0
 437.3 147 419.7 141.7 409.7 141.7 c 0
EndSplineSet
LCarets2: 2 0 0
EndChar

StartChar: threequarters
Encoding: 190 190 161
Width: 640
GlyphClass: 2
Flags: MW
LayerCount: 2
Fore
SplineSet
522 601 m 1
 564 593 l 1
 105 -62 l 1
 64 -54 l 1
 522 601 l 1
462.5 193.7 m 1
 423.3 145.2 371 71.5 364.5 54 c 1
 462.5 54 l 1
 462.5 193.7 l 1
462.5 -4 m 2
 462.5 20 l 1
 343.8 20 l 2
 317.2 20 322.3 40.2 324.9 48.2 c 0
 327.8 54.5 331 59.5 334.4 65 c 0
 367.6 118.8 411.3 171 446.4 212 c 0
 455.4 222.5 466.8 233.7 482.1 242.8 c 0
 483.2 243.5 492.5 244 495.8 244 c 0
 502.1 244 514.6 242.9 514.6 234 c 2
 514.6 54 l 1
 570.5 54 l 1
 564.5 20 l 1
 514.6 20 l 1
 514.6 -4 l 2
 514.6 -45 531.5 -48 565.5 -50 c 1
 569.5 -58 569.5 -72 565.5 -79 c 1
 535.5 -78 517.1 -78 487.5 -78 c 0
 452.2 -78 439.5 -78 409.5 -79 c 1
 405.5 -73 404.5 -58 409.5 -50 c 1
 449.5 -48 462.5 -45 462.5 -4 c 2
201 570 m 0
 201 596 188 607 149 607 c 0
 132 607 99.5 602.5 91 583 c 0
 86.2 572 87 554 64 554 c 0
 45 554 41 569 41 572 c 0
 41 589 74 637 161 637 c 0
 216.5 637 260 620.5 260 574 c 0
 260 536 238 520 209 504 c 1
 242 501 289 477 289 419 c 0
 289 350 220 307 140 307 c 0
 113.8 307 33.2 318.3 33.2 349.8 c 0
 33.2 363.1 45.7 372 58 372 c 0
 72 372 82 367 88 355 c 0
 93.7 343.5 112 337 144 337 c 0
 173 337 227 356 227 411 c 0
 227 468 176 472 152 472 c 0
 145 472 140 471.5 132 470 c 1
 126.6 476.5 127.3 487.9 130 497 c 1
 174 503 201 529 201 570 c 0
EndSplineSet
LCarets2: 2 0 0
EndChar

StartChar: questiondown
Encoding: 191 191 162
Width: 640
GlyphClass: 2
Flags: MW
LayerCount: 2
Fore
SplineSet
437 -62 m 0
 437 -47 435 -41 430 -36 c 0
 425 -31 422 -25 422 -12 c 0
 422 11 441 23 464 23 c 0
 483 23 513 5 513 -30 c 0
 513 -68 488 -104 452 -128 c 1
 417 -153 357 -179 293 -179 c 0
 171 -179 102 -106 102 -8 c 0
 102 71 178 121 233 151 c 0
 262 167 284 184 295 201 c 0
 311 226 315 235 315 259 c 2
 315 296 l 2
 315 303 322 306 332 306 c 0
 342 306 348 303 348 296 c 2
 348 257 l 2
 348 214 344 162 268 111 c 0
 213 74 199 43 199 -4 c 0
 199 -78 236 -142 314 -142 c 0
 392 -142 437 -92 437 -62 c 0
389 430 m 0
 389 398 361 370 328 370 c 0
 295 370 267 398 267 430 c 0
 267 462 295 490 328 490 c 0
 361 490 389 462 389 430 c 0
EndSplineSet
EndChar

StartChar: Agrave
Encoding: 192 192 163
Width: 640
GlyphClass: 2
Flags: MW
LayerCount: 2
Fore
SplineSet
284 818 m 1
 405 734 l 2
 416 726 420 720 420 713 c 0
 420 705 413 698 405 698 c 0
 397 698 383 701 362 710 c 2
 208 773 l 1
 226.3 790.7 249.8 806.4 284 818 c 1
EndSplineSet
Refer: 25 65 N 1 0 0 1 0 0 2
EndChar

StartChar: Aacute
Encoding: 193 193 164
Width: 640
GlyphClass: 2
Flags: MW
LayerCount: 2
Fore
SplineSet
417 820 m 1
 445.6 806.7 466.3 789.3 479 768 c 1
 335 710 l 2
 314 701 302 698 293 698 c 0
 284 698 278 705 278 713 c 0
 278 720 280 725 293 734 c 2
 417 820 l 1
EndSplineSet
Refer: 25 65 N 1 0 0 1 0 0 2
EndChar

StartChar: Acircumflex
Encoding: 194 194 165
Width: 640
GlyphClass: 2
Flags: MW
AnchorPoint: "above" 362 894 basechar 0
LayerCount: 2
Fore
SplineSet
347 808 m 1
 377 772 414 738 450 711 c 1
 447.2 701.9 443.1 693.8 434 690 c 1
 395 708 361 726 328 751 c 1
 291 724 259 707 221 690 c 1
 212 696 209 702 207 711 c 1
 244 739 277 774 308 808 c 1
 322 816.4 331.6 815.7 347 808 c 1
EndSplineSet
Refer: 25 65 N 1 0 0 1 0 0 2
EndChar

StartChar: Atilde
Encoding: 195 195 166
Width: 640
GlyphClass: 2
Flags: MW
AnchorPoint: "above" 364 894 basechar 0
LayerCount: 2
Fore
SplineSet
399 722 m 0
 421 722 432 732 446 774 c 1
 457 775 467 772 473 768 c 1
 461 708 432 669 386 669 c 0
 364 669 342 685 322 701 c 0
 305.5 714.2 285 720 268 720 c 0
 242 720 232 705 222 672 c 1
 211 670 201 671 195 677 c 1
 209 736 232 775 275 775 c 0
 305 775 328.5 756.9 347 741 c 0
 361.3 728.7 380 722 399 722 c 0
EndSplineSet
Refer: 25 65 N 1 0 0 1 0 0 2
EndChar

StartChar: Adieresis
Encoding: 196 196 167
Width: 640
GlyphClass: 2
Flags: MW
AnchorPoint: "above" 362 894 basechar 0
LayerCount: 2
Fore
SplineSet
153 706 m 0
 153 732 175 754 201 754 c 0
 227 754 249 732 249 706 c 0
 249 680 227 658 201 658 c 0
 175 658 153 680 153 706 c 0
390 706 m 0
 390 732 412 754 438 754 c 0
 464 754 486 732 486 706 c 0
 486 680 464 658 438 658 c 0
 412 658 390 680 390 706 c 0
EndSplineSet
Refer: 25 65 N 1 0 0 1 0 0 2
Substitution2: "'ss01' Stilgruppe 1 1" Adieresis.ss01
EndChar

StartChar: Aring
Encoding: 197 197 168
Width: 640
GlyphClass: 2
Flags: MW
AnchorPoint: "above" 364 894 basechar 0
LayerCount: 2
Fore
SplineSet
320 756 m 0
 289 756 272 733 272 703 c 0
 272 675 289 650 320 650 c 0
 351 650 368 675 368 703 c 0
 368 734 350 756 320 756 c 0
232 703 m 0
 232 749 274 788 320 788 c 0
 366 788 408 750 408 703 c 0
 408 668.9 385.1 637.8 353.2 624.6 c 1
 559 86 l 2
 577 40 586 38 625 35 c 1
 631 29 631 4 625 -2 c 1
 595.3 -1 562 0 521 0 c 0
 482 0 427 -1 390 -2 c 1
 384 4 384 29 390 35 c 1
 438 38 481 44 470 72 c 2
 411 229 l 1
 225 229 l 2
 201 229 195 227 190 213 c 2
 145 79 l 2
 132 40.3 176 37 214 35 c 1
 220 29 220 4 214 -2 c 1
 177 -1 135 0 96 0 c 0
 69.3 0 35 -1 7 -2 c 1
 1 4 1 29 7 35 c 1
 51 38 70 43 93 101 c 2
 290 606 l 1
 302.3 606 334.1 614.9 350.3 623.5 c 1
 340.8 620 330.6 618 320 618 c 0
 274 618 232 657 232 703 c 0
243 269 m 2
 396 269 l 1
 302 527 l 1
 300 527 l 1
 218 282 l 2
 215 272 221 269 243 269 c 2
EndSplineSet
EndChar

StartChar: AE
Encoding: 198 198 169
Width: 640
GlyphClass: 2
Flags: MW
AnchorPoint: "above" 433 805 basechar 0
AnchorPoint: "below" 429 -107 basechar 0
AnchorPoint: "cedilla" 429 4 basechar 0
LayerCount: 2
Fore
SplineSet
178 290 m 1
 309 290 l 1
 309 530 l 2
 309 575 258 583 246 539 c 2
 178 290 l 1
309 116 m 2
 309 253 l 1
 168 253 l 1
 124 81 l 2
 114 40 136 37 174 35 c 1
 180 29 180 4 174 -2 c 1
 146.7 -1 113.7 0 86 0 c 0
 59.9 0 32 -1 7 -2 c 1
 1 4 1 29 7 35 c 1
 51 38 64.8 41.1 81 103 c 2
 193 524 l 2
 201.4 555.7 204 575 134 578 c 1
 128 584 128 609 134 615 c 1
 184 614 249 613 249 613 c 1
 429 613 l 1
 535 613 l 2
 559 613 567 614 584 617 c 0
 587 617 588 616 588 614 c 0
 590 606 605 515 610 476 c 1
 600 472 589 469 577 471 c 1
 555 537 539 573 464 573 c 2
 429 573 l 2
 405 573 393 554 393 531 c 2
 393 343 l 1
 414 343 l 2
 499 343 502 356 505 408 c 1
 511 414 532 414 538 408 c 1
 537 380 536 345.3 536 326 c 0
 536 306.3 536.7 274.3 538 242 c 1
 532 236 511 236 505 242 c 1
 502 285 499 307 414 307 c 2
 393 307 l 1
 393 84 l 2
 393 58 407 43 429 43 c 2
 465 43 l 2
 541 43 576 94 596 162 c 1
 609 165 621 163 631 157 c 1
 623 109 608 46 594 -2 c 1
 594 -2 514 0 466 0 c 2
 352 0 l 2
 317.7 0 274.7 -1 232 -2 c 1
 226 4 226 29 232 35 c 1
 302 38 309 40.3 309 116 c 2
EndSplineSet
EndChar

StartChar: Ccedilla
Encoding: 199 199 170
Width: 640
GlyphClass: 2
Flags: MW
AnchorPoint: "above" 371 850 basechar 0
LayerCount: 2
Fore
SplineSet
345 -96 m 0
 326 -96 316 -97 300 -102 c 1
 294 -96 l 1
 330.1 -9.3 l 1
 144.5 1.2 35 134.6 35 290 c 0
 35 470 175 625 362 625 c 0
 473 625 525 587 571 582 c 1
 579 530 587 484 591 435 c 1
 581 429 570 426 559 430 c 1
 536 512 476 587 352 587 c 0
 239 587 132 484 132 308 c 0
 132 169 217 31 353 31 c 0
 437 31 512 62 576 136 c 1
 586 136 599 126 603 117 c 1
 544.4 35.3 448.9 -6.6 364.3 -9.8 c 1
 343 -67 l 1
 351 -65 360 -64 369 -64 c 0
 409 -64 440 -88 440 -126 c 0
 440 -169 394 -200 333 -200 c 0
 301 -200 284 -194 259 -183 c 1
 259 -171 262 -164 269 -157 c 1
 296 -167 307 -171 327 -171 c 0
 357 -171 378 -157 378 -131 c 0
 378 -110 368 -96 345 -96 c 0
EndSplineSet
EndChar

StartChar: Egrave
Encoding: 200 200 171
Width: 640
GlyphClass: 2
Flags: MW
AnchorPoint: "below" 279 -107 basechar 0
AnchorPoint: "cedilla" 279 4 basechar 0
LayerCount: 2
Fore
SplineSet
245 817 m 1
 366 733 l 2
 377 725 381 719 381 712 c 0
 381 704 374 697 366 697 c 0
 358 697 344 700 323 709 c 2
 169 772 l 1
 187.3 789.7 210.8 805.4 245 817 c 1
EndSplineSet
Refer: 29 69 N 1 0 0 1 0 0 2
EndChar

StartChar: Eacute
Encoding: 201 201 172
Width: 640
GlyphClass: 2
Flags: MW
AnchorPoint: "below" 279 -107 basechar 0
AnchorPoint: "cedilla" 279 4 basechar 0
LayerCount: 2
Fore
SplineSet
350 820 m 1
 378.6 806.7 399.3 789.3 412 768 c 1
 268 710 l 2
 247 701 235 698 226 698 c 0
 217 698 211 705 211 713 c 0
 211 720 213 725 226 734 c 2
 350 820 l 1
EndSplineSet
Refer: 29 69 N 1 0 0 1 0 0 2
EndChar

StartChar: Ecircumflex
Encoding: 202 202 173
Width: 640
GlyphClass: 2
Flags: MW
AnchorPoint: "above" 296 894 basechar 0
AnchorPoint: "below" 279 -107 basechar 0
AnchorPoint: "cedilla" 279 4 basechar 0
LayerCount: 2
Fore
SplineSet
315 808 m 1
 345 772 382 738 418 711 c 1
 415.2 701.9 411.1 693.8 402 690 c 1
 363 708 329 726 296 751 c 1
 259 724 227 707 189 690 c 1
 180 696 177 702 175 711 c 1
 212 739 245 774 276 808 c 1
 290 816.4 299.6 815.7 315 808 c 1
EndSplineSet
Refer: 29 69 N 1 0 0 1 0 0 2
EndChar

StartChar: Edieresis
Encoding: 203 203 174
Width: 640
GlyphClass: 2
Flags: MW
AnchorPoint: "below" 279 -107 basechar 0
AnchorPoint: "cedilla" 279 4 basechar 0
LayerCount: 2
Fore
SplineSet
358 757 m 0
 358 783 380 805 406 805 c 0
 432 805 454 783 454 757 c 0
 454 731 432 709 406 709 c 0
 380 709 358 731 358 757 c 0
169 757 m 0
 169 783 191 805 217 805 c 0
 243 805 265 783 265 757 c 0
 265 731 243 709 217 709 c 0
 191 709 169 731 169 757 c 0
EndSplineSet
Refer: 29 69 N 1 0 0 1 0 0 2
EndChar

StartChar: Igrave
Encoding: 204 204 175
Width: 640
GlyphClass: 2
Flags: MW
LayerCount: 2
Fore
SplineSet
259 817 m 1
 380 733 l 2
 391 725 395 719 395 712 c 0
 395 704 388 697 380 697 c 0
 372 697 358 700 337 709 c 2
 183 772 l 1
 201.3 789.7 224.8 805.4 259 817 c 1
EndSplineSet
Refer: 78 73 N 1 0 0 1 0 0 2
EndChar

StartChar: Iacute
Encoding: 205 205 176
Width: 640
GlyphClass: 2
Flags: MW
LayerCount: 2
Fore
SplineSet
350 819 m 1
 378.6 805.7 399.3 788.3 412 767 c 1
 268 709 l 2
 247 700 235 697 226 697 c 0
 217 697 211 704 211 712 c 0
 211 719 213 724 226 733 c 2
 350 819 l 1
EndSplineSet
Refer: 78 73 N 1 0 0 1 0 0 2
EndChar

StartChar: Icircumflex
Encoding: 206 206 177
Width: 640
GlyphClass: 2
Flags: MW
AnchorPoint: "above" 314 894 basechar 0
LayerCount: 2
Fore
SplineSet
335 808 m 1
 365 772 402 738 438 711 c 1
 435.2 701.9 431.1 693.8 422 690 c 1
 383 708 349 726 316 751 c 1
 279 724 247 707 209 690 c 1
 200 696 197 702 195 711 c 1
 232 739 265 774 296 808 c 1
 310 816.4 319.6 815.7 335 808 c 1
EndSplineSet
Refer: 78 73 N 1 0 0 1 0 0 2
EndChar

StartChar: Idieresis
Encoding: 207 207 178
Width: 640
GlyphClass: 2
Flags: MW
AnchorPoint: "above" 311 894 basechar 0
LayerCount: 2
Fore
SplineSet
355 757 m 0
 355 783 377 805 403 805 c 0
 429 805 451 783 451 757 c 0
 451 731 429 709 403 709 c 0
 377 709 355 731 355 757 c 0
166 757 m 0
 166 783 188 805 214 805 c 0
 240 805 262 783 262 757 c 0
 262 731 240 709 214 709 c 0
 188 709 166 731 166 757 c 0
EndSplineSet
Refer: 78 73 N 1 0 0 1 0 0 2
EndChar

StartChar: Eth
Encoding: 208 208 179
Width: 640
GlyphClass: 2
Flags: MW
AnchorPoint: "above" 341 850 basechar 0
LayerCount: 2
Fore
SplineSet
182 85 m 2
 182 55 209 35 291 35 c 0
 409 35 500 78 500 270 c 0
 500 458 469 578 271 578 c 0
 230 578 182 563 182 530 c 2
 182 326 l 1
 288 326 l 2
 297 326 300 318 300 313 c 0
 300 302 291 287 279 287 c 2
 182 287 l 1
 182 85 l 2
140 613 m 0
 176 613 247 616 302 616 c 0
 478 616 597 513 597 293 c 0
 597 59 435 -2 317 -2 c 0
 231 -2 175 0 141 0 c 0
 93.4 0 65 -1 19 -2 c 1
 13 4 13 29 19 35 c 1
 79 35 89 43 89 122 c 2
 89 287 l 1
 19 287 l 2
 11 287 8 295 8 301 c 0
 8 311 18 326 27 326 c 2
 89 326 l 1
 89 491 l 2
 89 570 79 578 19 578 c 1
 13 584 13 609 19 615 c 1
 65 614 92.8 613 140 613 c 0
EndSplineSet
EndChar

StartChar: Ntilde
Encoding: 209 209 180
Width: 640
GlyphClass: 2
Flags: MW
AnchorPoint: "above" 344 894 basechar 0
LayerCount: 2
Fore
SplineSet
379 722 m 0
 401 722 412 732 426 774 c 1
 437 775 447 772 453 768 c 1
 441 708 412 669 366 669 c 0
 344 669 322 685 302 701 c 0
 285.5 714.2 265 720 248 720 c 0
 222 720 212 705 202 672 c 1
 191 670 181 671 175 677 c 1
 189 736 212 775 255 775 c 0
 285 775 308.5 756.9 327 741 c 0
 341.3 728.7 360 722 379 722 c 0
EndSplineSet
Refer: 83 78 N 1 0 0 1 0 0 2
EndChar

StartChar: Ograve
Encoding: 210 210 181
Width: 640
GlyphClass: 2
Flags: MW
AnchorPoint: "above" 344 894 basechar 0
AnchorPoint: "komb_OR" 620 606 basechar 0
LayerCount: 2
Fore
SplineSet
304 819 m 1
 425 735 l 2
 436 727 440 721 440 714 c 0
 440 706 433 699 425 699 c 0
 417 699 403 702 382 711 c 2
 228 774 l 1
 246.3 791.7 269.8 807.4 304 819 c 1
EndSplineSet
Refer: 84 79 N 1 0 0 1 0 0 2
EndChar

StartChar: Oacute
Encoding: 211 211 182
Width: 640
GlyphClass: 2
Flags: MW
AnchorPoint: "above" 344 894 basechar 0
AnchorPoint: "komb_OR" 620 606 basechar 0
LayerCount: 2
Fore
SplineSet
387 820 m 1
 415.6 806.7 436.3 789.3 449 768 c 1
 305 710 l 2
 284 701 272 698 263 698 c 0
 254 698 248 705 248 713 c 0
 248 720 250 725 263 734 c 2
 387 820 l 1
EndSplineSet
Refer: 84 79 N 1 0 0 1 0 0 2
EndChar

StartChar: Ocircumflex
Encoding: 212 212 183
Width: 640
GlyphClass: 2
Flags: MW
AnchorPoint: "above" 314 894 basechar 0
AnchorPoint: "komb_OR" 620 606 basechar 0
LayerCount: 2
Fore
SplineSet
336 808 m 1
 366 772 403 738 439 711 c 1
 436.2 701.9 432.1 693.8 423 690 c 1
 384 708 350 726 317 751 c 1
 280 724 248 707 210 690 c 1
 201 696 198 702 196 711 c 1
 233 739 266 774 297 808 c 1
 311 816.4 320.6 815.7 336 808 c 1
EndSplineSet
Refer: 84 79 N 1 0 0 1 0 0 2
EndChar

StartChar: Otilde
Encoding: 213 213 184
Width: 640
GlyphClass: 2
Flags: MW
AnchorPoint: "above" 344 894 basechar 0
AnchorPoint: "komb_OR" 570 606 basechar 0
LayerCount: 2
Fore
SplineSet
379 722 m 0
 401 722 412 732 426 774 c 1
 437 775 447 772 453 768 c 1
 441 708 412 669 366 669 c 0
 344 669 322 685 302 701 c 0
 285.5 714.2 265 720 248 720 c 0
 222 720 212 705 202 672 c 1
 191 670 181 671 175 677 c 1
 189 736 212 775 255 775 c 0
 285 775 308.5 756.9 327 741 c 0
 341.3 728.7 360 722 379 722 c 0
EndSplineSet
Refer: 84 79 N 1 0 0 1 0 0 2
EndChar

StartChar: Odieresis
Encoding: 214 214 185
Width: 640
GlyphClass: 2
Flags: MW
AnchorPoint: "above" 344 894 basechar 0
LayerCount: 2
Fore
SplineSet
67 706 m 0
 67 732 89 754 115 754 c 0
 141 754 163 732 163 706 c 0
 163 680 141 658 115 658 c 0
 89 658 67 680 67 706 c 0
478 706 m 0
 478 732 500 754 526 754 c 0
 552 754 574 732 574 706 c 0
 574 680 552 658 526 658 c 0
 500 658 478 680 478 706 c 0
EndSplineSet
Refer: 84 79 N 1 0 0 1 0 0 2
Substitution2: "'ss01' Stilgruppe 1 1" Odieresis.ss01
EndChar

StartChar: multiply
Encoding: 215 215 186
Width: 640
GlyphClass: 2
Flags: MW
LayerCount: 2
Fore
SplineSet
355 252 m 1
 478 130 l 1
 443 95 l 1
 321 217 l 1
 199 95 l 1
 163 130 l 1
 286 252 l 1
 163 375 l 1
 199 410 l 1
 321 287 l 1
 443 410 l 1
 478 375 l 1
 355 252 l 1
EndSplineSet
EndChar

StartChar: Oslash
Encoding: 216 216 187
Width: 640
GlyphClass: 2
Flags: MW
AnchorPoint: "above" 351 850 basechar 0
LayerCount: 2
Fore
SplineSet
68 -12 m 1
 49 -12 35 4 32 18 c 1
 96.5 93.5 l 1
 57.5 143.7 34 211.2 34 294 c 0
 34 400 59 457 99 514 c 0
 149 585 228 625 318 625 c 0
 387.4 625 450 603.6 498.9 564 c 1
 551 625 l 1
 570 625 585 611 587 597 c 1
 531.8 532.2 l 1
 578.2 478.9 606 404.4 606 313 c 0
 606 221 585 164 549 110 c 0
 499 36 419 -10 318 -10 c 0
 245.7 -10 179.1 13.9 128.6 59.1 c 1
 68 -12 l 1
307 585 m 0
 227 585 131 501 131 311 c 0
 131 255.1 141 206.1 158.1 165.5 c 1
 451.5 508.7 l 1
 415.3 558.6 364.7 585 307 585 c 0
475.9 466.7 m 1
 181.6 121.3 l 1
 220.2 62.5 276.7 30 336 30 c 0
 436 30 509 130 509 294 c 0
 509 363.2 496.9 421.2 475.9 466.7 c 1
EndSplineSet
EndChar

StartChar: Ugrave
Encoding: 217 217 188
Width: 640
GlyphClass: 2
Flags: MW
AnchorPoint: "above" 344 894 basechar 0
LayerCount: 2
Fore
SplineSet
276 818 m 1
 397 734 l 2
 408 726 412 720 412 713 c 0
 412 705 405 698 397 698 c 0
 389 698 375 701 354 710 c 2
 200 773 l 1
 218.3 790.7 241.8 806.4 276 818 c 1
EndSplineSet
Refer: 90 85 N 1 0 0 1 0 0 2
EndChar

StartChar: Uacute
Encoding: 218 218 189
Width: 640
GlyphClass: 2
Flags: MW
AnchorPoint: "above" 344 894 basechar 0
LayerCount: 2
Fore
SplineSet
405 819 m 1
 433.6 805.7 454.3 788.3 467 767 c 1
 323 709 l 2
 302 700 290 697 281 697 c 0
 272 697 266 704 266 712 c 0
 266 719 268 724 281 733 c 2
 405 819 l 1
EndSplineSet
Refer: 90 85 N 1 0 0 1 0 0 2
EndChar

StartChar: Ucircumflex
Encoding: 219 219 190
Width: 640
GlyphClass: 2
Flags: MW
AnchorPoint: "above" 344 894 basechar 0
LayerCount: 2
Fore
SplineSet
368 808 m 1
 398 772 435 738 471 711 c 1
 468.2 701.9 464.1 693.8 455 690 c 1
 416 708 382 726 349 751 c 1
 312 724 280 707 242 690 c 1
 233 696 230 702 228 711 c 1
 265 739 298 774 329 808 c 1
 343 816.4 352.6 815.7 368 808 c 1
EndSplineSet
Refer: 90 85 N 1 0 0 1 0 0 2
EndChar

StartChar: Udieresis
Encoding: 220 220 191
Width: 640
GlyphClass: 2
Flags: MW
AnchorPoint: "above" 344 894 basechar 0
LayerCount: 2
Fore
SplineSet
314 -10 m 0
 225 -10 89 30 89 224 c 2
 89 495 l 2
 89 574 72 575 12 578 c 1
 6 584 6 609 12 615 c 1
 49 614 93 613 132 613 c 0
 173 613 192 614 217 615 c 0
 231 615 230 580 221 578 c 0
 190 573 174 555 174 495 c 2
 174 256 l 2
 174 194 174 127 227 77 c 0
 256 49 288 31 336 31 c 0
 489 31 509 157 509 263 c 2
 509 495 l 2
 509 558 496 571 461 578 c 1
 446 588 449 615 468 615 c 0
 494.1 615 512 613 535 613 c 0
 558 613 602 614 632 615 c 1
 638 609 638 584 632 578 c 1
 571 575 558 574 558 495 c 2
 558 280 l 2
 558 111 503 -10 314 -10 c 0
232 707 m 0
 232 733 253 754 279 754 c 0
 305 754 326 733 326 707 c 0
 326 681 305 660 279 660 c 0
 253 660 232 681 232 707 c 0
376 707 m 0
 376 733 397 754 423 754 c 0
 449 754 470 733 470 707 c 0
 470 681 449 660 423 660 c 0
 397 660 376 681 376 707 c 0
EndSplineSet
Substitution2: "'ss01' Stilgruppe 1 1" Udieresis.ss01
EndChar

StartChar: Yacute
Encoding: 221 221 192
Width: 640
GlyphClass: 2
Flags: MW
AnchorPoint: "above" 344 894 basechar 0
LayerCount: 2
Fore
SplineSet
400 820 m 1
 428.6 806.7 449.3 789.3 462 768 c 1
 318 710 l 2
 297 701 285 698 276 698 c 0
 267 698 261 705 261 713 c 0
 261 720 263 725 276 734 c 2
 400 820 l 1
EndSplineSet
Refer: 94 89 N 1 0 0 1 0 0 2
EndChar

StartChar: Thorn
Encoding: 222 222 193
Width: 640
GlyphClass: 2
Flags: MW
AnchorPoint: "above" 281 850 basechar 0
LayerCount: 2
Fore
SplineSet
223 455 m 1
 223 179 l 1
 232 176 286 174 324 174 c 0
 396 174 480 203 480 326 c 0
 480 440 401 466 342 466 c 0
 323 466 244 461 223 455 c 1
223 116 m 2
 223 37 240 32 310 29 c 1
 316 23 316 4 310 -2 c 1
 260 -1 231 0 181 0 c 0
 130 0 100 -1 51 -2 c 1
 45 4 45 23 51 29 c 1
 121 32 138 37 138 116 c 2
 138 497 l 2
 138 576 121 580 51 583 c 1
 45 589 45 609 51 615 c 1
 101 614 130 613 180 613 c 0
 231 613 261 614 310 615 c 1
 316 609 316 589 310 583 c 1
 240 580 223 576 223 497 c 2
 223 493 l 1
 259 495 324 497 343 497 c 0
 528 497 573 393 573 326 c 0
 573 255 507 142 329 142 c 0
 294 142 238 146 223 151 c 1
 223 116 l 2
EndSplineSet
EndChar

StartChar: germandbls
Encoding: 223 223 194
Width: 640
GlyphClass: 2
Flags: MW
LayerCount: 2
Fore
SplineSet
123 126 m 2
 123 431 l 2
 123 439 120 443 111 443 c 2
 60 443 l 1
 54 449 62 480 75 480 c 0
 111.1 480 123 482 123 487 c 0
 123 652 277 698 356 698 c 0
 460 698 508 635 508 587 c 0
 508 533 451.5 465.5 380 421 c 1
 380 419 l 1
 462 369.2 580 289 580 173 c 0
 580 68 496 -10 404 -10 c 0
 320 -10 300 42 300 86 c 0
 300 102 315 121 331 121 c 0
 351 121 359 111 359 91 c 0
 359 74 351 65 351 53 c 0
 351 28.2 381 27 404 27 c 0
 434 27 487 65 487 156 c 0
 487 249 404 342 320 406 c 1
 320 419 l 1
 388 462 417 517.5 417 574 c 0
 417 628 400 661 347 661 c 0
 243 661 211 560 211 452 c 2
 211 126 l 2
 211 43 223 40 259 35 c 1
 265 29 265 4 259 -2 c 1
 216 -1 205.9 0 172 0 c 0
 126 0 96 -1 54 -2 c 1
 48 4 48 29 54 35 c 1
 111 38 123 43 123 126 c 2
EndSplineSet
EndChar

StartChar: agrave
Encoding: 224 224 195
Width: 640
GlyphClass: 2
Flags: MW
AnchorPoint: "above" 295 834 basechar 0
LayerCount: 2
Fore
SplineSet
303 729 m 1
 373 603 l 2
 378 593 379 586 379 579 c 0
 379 574 372 568 364 568 c 0
 358 568 351 573 335 588 c 2
 221 697 l 1
 223 708 l 1
 231 714 254 731 288 731 c 0
 293 731 299 730 303 729 c 1
EndSplineSet
Refer: 101 97 N 1 0 0 1 0 0 2
EndChar

StartChar: aacute
Encoding: 225 225 196
Width: 640
GlyphClass: 2
Flags: MW
AnchorPoint: "above" 255 834 basechar 0
LayerCount: 2
Fore
SplineSet
348 729 m 1
 351 730 357 731 362 731 c 0
 368.4 731 394 730 417 708 c 1
 420 697 l 1
 305 588 l 2
 290 573 282 569 275 569 c 0
 268 569 261 575 261 582 c 0
 261 593.2 264.3 597.2 272.4 610 c 2
 348 729 l 1
EndSplineSet
Refer: 101 97 N 1 0 0 1 0 0 2
EndChar

StartChar: acircumflex
Encoding: 226 226 197
Width: 640
GlyphClass: 2
Flags: MW
AnchorPoint: "above" 214 834 basechar 0
LayerCount: 2
Fore
SplineSet
327 722 m 1
 356 675 400 622 436 582 c 1
 431 575 422.4 566.9 413 565 c 1
 375 589 340 617 310 648 c 1
 278 616 245 587 206 565 c 1
 197 567 190 573 184 582 c 1
 220 622 266 676 295 722 c 1
 305.7 724.3 316.3 725 327 722 c 1
EndSplineSet
Refer: 101 97 N 1 0 0 1 0 0 2
EndChar

StartChar: atilde
Encoding: 227 227 198
Width: 640
GlyphClass: 2
Flags: MW
AnchorPoint: "above" 255 834 basechar 0
LayerCount: 2
Fore
SplineSet
376 642 m 0
 398 642 409 652 423 694 c 1
 434 695 444 692 450 688 c 1
 438 628 409 589 363 589 c 0
 341 589 319 605 299 621 c 0
 282.5 634.2 262 640 245 640 c 0
 219 640 209 625 199 592 c 1
 188 590 178 591 172 597 c 1
 186 656 209 695 252 695 c 0
 282 695 305.5 676.9 324 661 c 0
 338.3 648.7 357 642 376 642 c 0
EndSplineSet
Refer: 101 97 N 1 0 0 1 0 0 2
EndChar

StartChar: adieresis
Encoding: 228 228 199
Width: 640
GlyphClass: 2
Flags: MW
AnchorPoint: "above" 255 834 basechar 0
LayerCount: 2
Fore
SplineSet
174 644 m 0
 174 670 195 692 221 692 c 0
 247 692 268 670 268 644 c 0
 268 618 247 597 221 597 c 0
 195 597 174 618 174 644 c 0
353 644 m 0
 353 670 374 692 400 692 c 0
 426 692 447 670 447 644 c 0
 447 618 426 597 400 597 c 0
 374 597 353 618 353 644 c 0
EndSplineSet
Refer: 101 97 N 1 0 0 1 0 0 2
EndChar

StartChar: aring
Encoding: 229 229 200
Width: 640
GlyphClass: 2
Flags: MW
AnchorPoint: "above" 255 834 basechar 0
LayerCount: 2
Fore
SplineSet
300 687 m 0
 269 687 252 664 252 634 c 0
 252 606 269 581 300 581 c 0
 331 581 348 606 348 634 c 0
 348 665 330 687 300 687 c 0
212 634 m 0
 212 680 254 719 300 719 c 0
 346 719 388 681 388 634 c 0
 388 589 348 549 300 549 c 0
 254 549 212 588 212 634 c 0
EndSplineSet
Refer: 101 97 N 1 0 0 1 0 0 2
EndChar

StartChar: ae
Encoding: 230 230 201
Width: 640
GlyphClass: 2
Flags: MW
AnchorPoint: "below" 323 -108 basechar 0
AnchorPoint: "ogonek" 569.8 34.5 basechar 0
AnchorPoint: "above" 328 645 basechar 0
LayerCount: 2
Fore
SplineSet
254 428 m 0
 240 445 221 453 201 453 c 0
 164 453 127 438 127 406 c 0
 127 395 128 386 130 383 c 0
 132 379 133 371 133 363 c 0
 133 345 112 327 88 327 c 0
 59 327 50 355 50 377 c 0
 50 442 133 490 211 490 c 0
 234 490 302 487 337 412 c 1
 368 462 418 490 472 490 c 0
 580 490 612 417 612 379 c 0
 612 298 570 247 362 244 c 1
 362 144 405 44 476 44 c 0
 527 44 566 72 594 111 c 1
 602 110 610 100 613 94 c 1
 585 34 525 -10 462 -10 c 0
 387 -10 352 26 329 67 c 0
 322.7 78.2 317 73 306 59 c 0
 262 7 219 -10 184 -10 c 0
 150 -10 107 -4 86 10 c 0
 53 32 25 69 25 115 c 0
 25 160 50.2 195.5 96 230 c 0
 135.7 259.9 203 267 285 274 c 1
 284 362 276 401 254 428 c 0
285 241 m 1
 219 235 177 215 148 190 c 0
 125 170 108 145 108 120 c 0
 108 72 142 37 195 37 c 0
 225 37 266 82 280 127 c 1
 284 148 285 185 285 241 c 1
363 277 m 1
 508 279 527 324 527 376 c 0
 527 406 517 453 471 453 c 0
 406 453 371 372 363 277 c 1
EndSplineSet
EndChar

StartChar: ccedilla
Encoding: 231 231 202
Width: 640
GlyphClass: 2
Flags: MW
AnchorPoint: "above" 255 834 basechar 0
LayerCount: 2
Fore
SplineSet
579 108 m 1
 489 6 405 -10 334 -10 c 0
 327.4 -10 320.9 -9.8 314.5 -9.5 c 1
 293 -67 l 1
 301 -65 310 -64 319 -64 c 0
 359 -64 390 -88 390 -126 c 0
 390 -169 344 -200 283 -200 c 0
 251 -200 234 -194 209 -183 c 1
 209 -171 212 -164 219 -157 c 1
 246 -167 257 -171 277 -171 c 0
 307 -171 328 -157 328 -131 c 0
 328 -110 318 -96 295 -96 c 0
 276 -96 266 -97 250 -102 c 1
 244 -96 l 1
 281.5 -6.1 l 1
 149.4 14.4 76 113.1 76 233 c 0
 76 382 194 490 335 490 c 0
 408.4 490 482.9 466 525 431 c 0
 547.7 412.1 560 388.4 560 367 c 0
 560 329.4 543 310 513 310 c 0
 489 310 467.1 328.1 463 358 c 0
 456 409 399 449 329 449 c 0
 227 449 167 374 167 257 c 0
 167 136 247 44 359 44 c 0
 410 44 487 68 550 133 c 1
 561 132 575 118 579 108 c 1
EndSplineSet
EndChar

StartChar: egrave
Encoding: 232 232 203
Width: 640
GlyphClass: 2
Flags: MW
AnchorPoint: "above" 255 834 basechar 0
LayerCount: 2
Fore
SplineSet
303 729 m 1
 373 603 l 2
 378 593 379 586 379 579 c 0
 379 574 372 568 364 568 c 0
 358 568 351 573 335 588 c 2
 221 697 l 1
 223 708 l 1
 231 714 254 731 288 731 c 0
 293 731 299 730 303 729 c 1
EndSplineSet
Refer: 105 101 N 1 0 0 1 0 0 2
EndChar

StartChar: eacute
Encoding: 233 233 204
Width: 640
GlyphClass: 2
Flags: MW
AnchorPoint: "above" 255 834 basechar 0
LayerCount: 2
Fore
SplineSet
348 729 m 1
 351 730 357 731 362 731 c 0
 368.4 731 394 730 417 708 c 1
 420 697 l 1
 305 588 l 2
 290 573 282 569 275 569 c 0
 268 569 261 575 261 582 c 0
 261 593.2 264.3 597.2 272.4 610 c 2
 348 729 l 1
EndSplineSet
Refer: 105 101 N 1 0 0 1 0 0 2
EndChar

StartChar: ecircumflex
Encoding: 234 234 205
Width: 640
GlyphClass: 2
Flags: MW
AnchorPoint: "above" 255 834 basechar 0
LayerCount: 2
Fore
SplineSet
337 722 m 1
 366 675 410 622 446 582 c 1
 441 575 432.4 566.9 423 565 c 1
 385 589 350 617 320 648 c 1
 288 616 255 587 216 565 c 1
 207 567 200 573 194 582 c 1
 230 622 276 676 305 722 c 1
 315.7 724.3 326.3 725 337 722 c 1
EndSplineSet
Refer: 105 101 N 1 0 0 1 0 0 2
EndChar

StartChar: edieresis
Encoding: 235 235 206
Width: 640
GlyphClass: 2
Flags: MW
AnchorPoint: "above" 255 834 basechar 0
LayerCount: 2
Fore
SplineSet
204 644 m 0
 204 670 225 692 251 692 c 0
 277 692 298 670 298 644 c 0
 298 618 277 597 251 597 c 0
 225 597 204 618 204 644 c 0
383 644 m 0
 383 670 404 692 430 692 c 0
 456 692 477 670 477 644 c 0
 477 618 456 597 430 597 c 0
 404 597 383 618 383 644 c 0
EndSplineSet
Refer: 105 101 N 1 0 0 1 0 0 2
EndChar

StartChar: igrave
Encoding: 236 236 207
Width: 640
GlyphClass: 2
Flags: MW
AnchorPoint: "above" 305 834 basechar 0
LayerCount: 2
Fore
SplineSet
303 729 m 1
 373 603 l 2
 378 593 379 586 379 579 c 0
 379 574 372 568 364 568 c 0
 358 568 351 573 335 588 c 2
 221 697 l 1
 223 708 l 1
 231 714 254 731 288 731 c 0
 293 731 299 730 303 729 c 1
EndSplineSet
Refer: 239 305 N 1 0 0 1 0 0 2
EndChar

StartChar: iacute
Encoding: 237 237 208
Width: 640
GlyphClass: 2
Flags: MW
AnchorPoint: "middle" 333 215 basechar 0
AnchorPoint: "above" 336 834 basechar 0
LayerCount: 2
Fore
SplineSet
348 729 m 1
 351 730 357 731 362 731 c 0
 368.4 731 394 730 417 708 c 1
 420 697 l 1
 305 588 l 2
 290 573 282 569 275 569 c 0
 268 569 261 575 261 582 c 0
 261 593.2 264.3 597.2 272.4 610 c 2
 348 729 l 1
EndSplineSet
Refer: 239 305 N 1 0 0 1 0 0 2
EndChar

StartChar: icircumflex
Encoding: 238 238 209
Width: 640
GlyphClass: 2
Flags: MW
AnchorPoint: "above" 312 834 basechar 0
LayerCount: 2
Fore
SplineSet
337 722 m 1
 366 675 410 622 446 582 c 1
 441 575 432.4 566.9 423 565 c 1
 385 589 350 617 320 648 c 1
 288 616 255 587 216 565 c 1
 207 567 200 573 194 582 c 1
 230 622 276 676 305 722 c 1
 315.7 724.3 326.3 725 337 722 c 1
EndSplineSet
Refer: 239 305 N 1 0 0 1 0 0 2
EndChar

StartChar: idieresis
Encoding: 239 239 210
Width: 640
GlyphClass: 2
Flags: MW
AnchorPoint: "above" 334 795 basechar 0
LayerCount: 2
Fore
SplineSet
204 644 m 0
 204 670 225 692 251 692 c 0
 277 692 298 670 298 644 c 0
 298 618 277 597 251 597 c 0
 225 597 204 618 204 644 c 0
383 644 m 0
 383 670 404 692 430 692 c 0
 456 692 477 670 477 644 c 0
 477 618 456 597 430 597 c 0
 404 597 383 618 383 644 c 0
EndSplineSet
Refer: 239 305 N 1 0 0 1 0 0 2
EndChar

StartChar: eth
Encoding: 240 240 211
Width: 640
GlyphClass: 2
Flags: MW
LayerCount: 2
Fore
SplineSet
457 699 m 1
 488 677 l 1
 399.3 624.2 l 1
 418.6 610.1 433.8 596 446 583 c 0
 507 518.2 556 428 556 265 c 0
 556 77 430 -10 306 -10 c 0
 168 -10 68 117 68 233 c 0
 68 426 234 490 325 490 c 0
 354 490 392 486 420 475 c 1
 402.1 519.1 381.9 558.2 347.4 593.3 c 1
 268.3 546.2 l 1
 236.3 568.2 l 1
 320 617.8 l 1
 293.1 639 259.2 658.7 215 677 c 1
 231 698 l 1
 288.5 683.9 332.5 665.3 366.7 645.5 c 1
 457 699 l 1
325 30 m 0
 377 30 463 69 463 250 c 0
 463 301 458 350 445 398 c 1
 419 430 371 451 323 451 c 0
 211 451 163 337 163 252 c 0
 163 125 246 30 325 30 c 0
EndSplineSet
EndChar

StartChar: ntilde
Encoding: 241 241 212
Width: 640
GlyphClass: 2
Flags: MW
AnchorPoint: "above" 405 834 basechar 0
LayerCount: 2
Fore
SplineSet
394 642 m 0
 416 642 427 652 441 694 c 1
 452 695 462 692 468 688 c 1
 456 628 427 589 381 589 c 0
 359 589 337 605 317 621 c 0
 300.5 634.2 280 640 263 640 c 0
 237 640 227 625 217 592 c 1
 206 590 196 591 190 597 c 1
 204 656 227 695 270 695 c 0
 300 695 323.5 676.9 342 661 c 0
 356.3 648.7 375 642 394 642 c 0
EndSplineSet
Refer: 114 110 N 1 0 0 1 0 0 2
EndChar

StartChar: oslash
Encoding: 248 248 213
Width: 640
GlyphClass: 2
Flags: MW
LayerCount: 2
Fore
SplineSet
511 504 m 1
 530 504 536 492 540 478 c 1
 500.2 429.6 l 1
 556.4 379.9 580 307 580 240 c 0
 580 172 556 101 500 52 c 0
 458 15 398 -10 319 -10 c 0
 258.8 -10 209.4 4.9 170.5 29.1 c 1
 121 -31 l 1
 103 -31 95 -19 93 -2 c 1
 138.5 53 l 1
 85.8 100.1 60 166.9 60 230 c 0
 60 300 85 364 129 412 c 0
 174 460 240 490 321 490 c 0
 382.1 490 430.8 475.9 468.7 452.8 c 1
 511 504 l 1
301 449 m 0
 184.9 449 156 354 156 255 c 0
 156 213.2 166 160.5 191.1 116.7 c 1
 424.9 399.7 l 1
 394.1 432.5 352 449 301 449 c 0
448.7 367.1 m 1
 215.1 83.4 l 1
 243.2 52.3 282.9 31 337 31 c 0
 400 31 484 60 484 203 c 0
 484 272.4 471.6 327.1 448.7 367.1 c 1
EndSplineSet
EndChar

StartChar: udieresis
Encoding: 252 252 214
Width: 640
GlyphClass: 2
Flags: MW
AnchorPoint: "above" 295 834 basechar 0
LayerCount: 2
Fore
SplineSet
177 644 m 0
 177 670 198 692 224 692 c 0
 250 692 271 670 271 644 c 0
 271 618 250 597 224 597 c 0
 198 597 177 618 177 644 c 0
356 644 m 0
 356 670 377 692 403 692 c 0
 429 692 450 670 450 644 c 0
 450 618 429 597 403 597 c 0
 377 597 356 618 356 644 c 0
EndSplineSet
Refer: 121 117 N 1 0 0 1 0 0 2
EndChar

StartChar: yacute
Encoding: 253 253 215
Width: 640
GlyphClass: 2
Flags: MW
AnchorPoint: "above" 335 834 basechar 0
LayerCount: 2
Fore
SplineSet
348 729 m 1
 351 730 357 731 362 731 c 0
 368.4 731 394 730 417 708 c 1
 420 697 l 1
 305 588 l 2
 290 573 282 569 275 569 c 0
 268 569 261 575 261 582 c 0
 261 593.2 264.3 597.2 272.4 610 c 2
 348 729 l 1
EndSplineSet
Refer: 125 121 N 1 0 0 1 0 0 2
EndChar

StartChar: thorn
Encoding: 254 254 216
Width: 640
GlyphClass: 2
Flags: MW
AnchorPoint: "above" 308 646 basechar 0
LayerCount: 2
Fore
SplineSet
191 322 m 2
 191 110 l 2
 191 75 197 68 210 56 c 0
 241 29 281 28 297 28 c 0
 415 28 459 136 459 233 c 0
 459 300 443 364 395 412 c 0
 378 429 349 439 321 439 c 0
 284 439 191 400 191 322 c 2
114 559 m 2
 114 643 102 638 50 641 c 1
 44 647 42 663 44 671 c 1
 84 674 159 688 184 698 c 1
 193 698 197 695 197 688 c 2
 197 688 193 648.5 193 583 c 2
 193 438 l 2
 193 413 195 414 212 431 c 0
 240 460 292 490 349 490 c 0
 457 490 554 380 554 263 c 0
 554 173 518 105 468 55 c 0
 425 12 362 -10 303 -10 c 0
 273 -10 237 -5 214 4 c 0
 202 9 193 21 193 -10 c 2
 193 -110 l 2
 193 -193.4 204 -197 275 -201 c 1
 281 -207 281 -228 275 -234 c 1
 232 -233 201.2 -232 154 -232 c 0
 110.3 -232 84 -233 42 -234 c 1
 36 -228 36 -207 42 -201 c 1
 103 -198 114 -193 114 -110 c 2
 114 559 l 2
EndSplineSet
EndChar

StartChar: ydieresis
Encoding: 255 255 217
Width: 640
GlyphClass: 2
Flags: MW
AnchorPoint: "above" 365 834 basechar 0
LayerCount: 2
Fore
SplineSet
204 644 m 0
 204 670 225 692 251 692 c 0
 277 692 298 670 298 644 c 0
 298 618 277 597 251 597 c 0
 225 597 204 618 204 644 c 0
383 644 m 0
 383 670 404 692 430 692 c 0
 456 692 477 670 477 644 c 0
 477 618 456 597 430 597 c 0
 404 597 383 618 383 644 c 0
EndSplineSet
Refer: 125 121 N 1 0 0 1 0 0 2
EndChar

StartChar: Amacron
Encoding: 256 256 218
Width: 640
GlyphClass: 2
Flags: MW
LayerCount: 2
Fore
SplineSet
434 704 m 2
 210 704 l 2
 201 704 197 715 197 722 c 0
 197 734 208 754 219 754 c 2
 444 754 l 2
 454 754 458 743 458 737 c 0
 458 725 447 704 434 704 c 2
EndSplineSet
Refer: 25 65 N 1 0 0 1 0 0 2
EndChar

StartChar: amacron
Encoding: 257 257 219
Width: 640
GlyphClass: 2
Flags: MW
AnchorPoint: "below" 266 -108 basechar 0
AnchorPoint: "cedilla" 237 -3 basechar 0
AnchorPoint: "ogonek" 480 16 basechar 0
AnchorPoint: "above" 309 715 basechar 0
LayerCount: 2
Fore
SplineSet
426 586 m 2
 202 586 l 2
 193 586 189 597 189 604 c 0
 189 616 200 636 211 636 c 2
 436 636 l 2
 446 636 450 625 450 619 c 0
 450 607 439 586 426 586 c 2
EndSplineSet
Refer: 101 97 N 1 0 0 1 0 0 2
EndChar

StartChar: Abreve
Encoding: 258 258 220
Width: 640
GlyphClass: 2
Flags: MW
LayerCount: 2
Fore
SplineSet
454 804 m 1
 448 733 384 691 318 691 c 0
 245 691 187 734 182 804 c 1
 210 804 l 1
 218 765 265 743 318 743 c 0
 367 743 419 765 426 804 c 1
 454 804 l 1
EndSplineSet
Refer: 25 65 N 1 0 0 1 0 0 2
EndChar

StartChar: abreve
Encoding: 259 259 221
Width: 640
GlyphClass: 2
Flags: MW
LayerCount: 2
Fore
SplineSet
202 727 m 1
 213 674 256 637 310 637 c 0
 362 637 408 669 418 727 c 1
 445 715 l 1
 433 629 369 580 310 580 c 0
 240 580 189 630 175 715 c 1
 202 727 l 1
EndSplineSet
Refer: 101 97 N 1 0 0 1 0 0 2
EndChar

StartChar: Aogonek
Encoding: 260 260 222
Width: 640
GlyphClass: 2
Flags: MW
AnchorPoint: "above" 365 850 basechar 0
LayerCount: 2
Fore
SplineSet
581 -135 m 1
 552 -180 512 -200 471 -200 c 0
 421 -200 383 -180 383 -126 c 0
 383 -84.6 418.5 -27.3 478.7 -0.3 c 1
 447.9 -0.7 414.9 -1.3 390 -2 c 1
 384 4 384 29 390 35 c 1
 438 38 481 44 470 72 c 2
 411 229 l 1
 225 229 l 2
 201 229 195 227 190 213 c 2
 145 79 l 2
 132 40.3 176 37 214 35 c 1
 220 29 220 4 214 -2 c 1
 177 -1 135 0 96 0 c 0
 69.3 0 35 -1 7 -2 c 1
 1 4 1 29 7 35 c 1
 51 38 70 43 93 101 c 2
 290 606 l 1
 303 606 338 616 353 625 c 1
 559 86 l 2
 577 40 586 38 625 35 c 1
 631 29 631 4 625 -2 c 1
 606.3 -1.4 586.3 -0.8 563.7 -0.4 c 1
 565 -2 l 1
 494 -2 445 -69 445 -115 c 0
 445 -141 458 -162 495 -162 c 0
 524 -162 540 -146 562 -124 c 1
 571 -124 577 -128 581 -135 c 1
243 269 m 2
 396 269 l 1
 302 527 l 1
 300 527 l 1
 218 282 l 2
 215 272 221 269 243 269 c 2
EndSplineSet
EndChar

StartChar: aogonek
Encoding: 261 261 223
Width: 640
GlyphClass: 2
Flags: MW
AnchorPoint: "above" 209 645 basechar 0
AnchorPoint: "below" 146 -108 basechar 0
AnchorPoint: "cedilla" 167 -3 basechar 0
LayerCount: 2
Fore
SplineSet
414 250 m 1
 294 227 l 2
 209.2 210.8 163 168 163 112 c 0
 163 78 188 35 255 35 c 0
 292 35 353 63 387 85 c 0
 397 92 406.2 100.9 407 116 c 2
 414 250 l 1
407 55 m 1
 404 55 l 1
 376 36 l 1
 317 -1 286 -10 225 -10 c 0
 133 -10 64 22 64 107 c 0
 64 181 133.7 239.9 276 264 c 2
 406 286 l 2
 409 287 416 292 416 300 c 0
 416 422 361 450 307 450 c 0
 258 450 197 438 197 403 c 0
 197 391 198 384 199 381 c 0
 201 377 203 368 203 360 c 0
 203 346 179 328 148 328 c 0
 122 328 103 340 103 367 c 0
 103 427 212 490 317 490 c 0
 411 490 510.8 459.5 501 302 c 1
 494 141 l 2
 491.8 91 505 46 555 46 c 0
 582 46 586 64 594 64 c 0
 600 64 611 53 611 45 c 0
 611 37 590.2 13 551.3 -0.5 c 1
 505.7 -39.8 481 -68.8 481 -108 c 0
 481 -134 494 -155 531 -155 c 0
 560 -155 576 -139 598 -117 c 1
 607 -117 613 -121 617 -128 c 1
 588 -173 548 -193 507 -193 c 0
 457 -193 419 -173 419 -119 c 0
 419 -80.9 448.6 -44.7 492.7 -10 c 1
 424 -9.9 412 21.1 407 55 c 1
EndSplineSet
EndChar

StartChar: Cacute
Encoding: 262 262 224
Width: 640
GlyphClass: 2
Flags: MW
LayerCount: 2
Fore
SplineSet
392 819 m 1
 420.6 805.7 441.3 788.3 454 767 c 1
 310 709 l 2
 289 700 277 697 268 697 c 0
 259 697 253 704 253 712 c 0
 253 719 255 724 268 733 c 2
 392 819 l 1
EndSplineSet
Refer: 27 67 N 1 0 0 1 0 0 2
EndChar

StartChar: cacute
Encoding: 263 263 225
Width: 640
GlyphClass: 2
Flags: MW
LayerCount: 2
Fore
SplineSet
348 729 m 1
 351 730 357 731 362 731 c 0
 368.4 731 394 730 417 708 c 1
 420 697 l 1
 305 588 l 2
 290 573 282 569 275 569 c 0
 268 569 261 575 261 582 c 0
 261 593.2 264.3 597.2 272.4 610 c 2
 348 729 l 1
EndSplineSet
Refer: 103 99 N 1 0 0 1 0 0 2
EndChar

StartChar: Ccircumflex
Encoding: 264 264 226
Width: 640
GlyphClass: 2
Flags: MW
LayerCount: 2
Fore
SplineSet
376 809 m 1
 406 773 443 739 479 712 c 1
 476.2 702.9 472.1 694.8 463 691 c 1
 424 709 390 727 357 752 c 1
 320 725 288 708 250 691 c 1
 241 697 238 703 236 712 c 1
 273 740 306 775 337 809 c 1
 351 817.4 360.6 816.7 376 809 c 1
EndSplineSet
Refer: 27 67 N 1 0 0 1 0 0 2
EndChar

StartChar: ccircumflex
Encoding: 265 265 227
Width: 640
GlyphClass: 2
Flags: MW
AnchorPoint: "ogonek" 431 42 basechar 0
AnchorPoint: "cedilla" 312 -2 basechar 0
AnchorPoint: "below" 306 -110 basechar 0
AnchorPoint: "above" 321 795 basechar 0
LayerCount: 2
Fore
SplineSet
337 722 m 1
 366 675 410 622 446 582 c 1
 441 575 432.4 566.9 423 565 c 1
 385 589 350 617 320 648 c 1
 288 616 255 587 216 565 c 1
 207 567 200 573 194 582 c 1
 230 622 276 676 305 722 c 1
 315.7 724.3 326.3 725 337 722 c 1
EndSplineSet
Refer: 103 99 N 1 0 0 1 0 0 2
EndChar

StartChar: Cdotaccent
Encoding: 266 266 228
Width: 640
GlyphClass: 2
Flags: MW
LayerCount: 2
Fore
SplineSet
304 753 m 0
 304 781 328 805 356 805 c 0
 384 805 408 781 408 753 c 0
 408 725 384 701 356 701 c 0
 328 701 304 725 304 753 c 0
EndSplineSet
Refer: 27 67 N 1 0 0 1 0 0 2
EndChar

StartChar: cdotaccent
Encoding: 267 267 229
Width: 640
GlyphClass: 2
Flags: MW
AnchorPoint: "ogonek" 431 42 basechar 0
AnchorPoint: "cedilla" 312 -2 basechar 0
AnchorPoint: "below" 306 -110 basechar 0
AnchorPoint: "above" 297 795 basechar 0
LayerCount: 2
Fore
SplineSet
268 650 m 0
 268 678 299 705 326 705 c 0
 356 705 380 673 380 645 c 0
 380 621 353 590 322 590 c 0
 295 590 268 620 268 650 c 0
EndSplineSet
Refer: 103 99 N 1 0 0 1 0 0 2
EndChar

StartChar: Ccaron
Encoding: 268 268 230
Width: 640
GlyphClass: 2
Flags: MW
LayerCount: 2
Fore
SplineSet
333 697 m 1
 303 734 268 764 232 792 c 1
 248 812 l 1
 287 795 321 776 354 751 c 1
 391 777 423 796 461 812 c 1
 476 792 l 1
 438 763 406 731 376 697 c 1
 333 697 l 1
EndSplineSet
Refer: 27 67 N 1 0 0 1 0 0 2
EndChar

StartChar: ccaron
Encoding: 269 269 231
Width: 640
GlyphClass: 2
Flags: MW
AnchorPoint: "above" 287 795 basechar 0
AnchorPoint: "below" 296 -110 basechar 0
AnchorPoint: "cedilla" 302 -2 basechar 0
AnchorPoint: "ogonek" 421 42 basechar 0
LayerCount: 2
Fore
SplineSet
295 584 m 1
 266 631 229 676 194 714 c 1
 214 727 l 1
 253 698 286 673 320 637 c 1
 357 675 391 700 428 727 c 1
 447 714 l 1
 412 675 374 630 345 584 c 1
 295 584 l 1
EndSplineSet
Refer: 103 99 N 1 0 0 1 0 0 2
EndChar

StartChar: Dcaron
Encoding: 270 270 232
Width: 640
GlyphClass: 2
Flags: MW
LayerCount: 2
Fore
SplineSet
291 697 m 1
 261 734 226 764 190 792 c 1
 206 812 l 1
 245 795 279 776 312 751 c 1
 349 777 381 796 419 812 c 1
 434 792 l 1
 396 763 364 731 334 697 c 1
 291 697 l 1
EndSplineSet
Refer: 28 68 N 1 0 0 1 0 0 2
EndChar

StartChar: dcaron
Encoding: 271 271 233
Width: 640
GlyphClass: 2
Flags: MW
LayerCount: 2
Fore
SplineSet
629 698 m 0
 668 698 691 661 691 625 c 0
 691 601 684 579 668 559 c 0
 651.1 537.9 623 521 585 516 c 1
 581 520 580 529 580 536 c 1
 637 548 657 580 657 603 c 0
 657 622.6 652.2 616 628 616 c 0
 588 616 578 640 578 657 c 0
 578 673 594 698 629 698 c 0
EndSplineSet
Refer: 104 100 N 1 0 0 1 0 0 2
EndChar

StartChar: Dcroat
Encoding: 272 272 234
Width: 640
GlyphClass: 2
Flags: MW
LayerCount: 2
Fore
SplineSet
182 85 m 2
 182 55 209 35 291 35 c 0
 409 35 500 78 500 270 c 0
 500 458 469 578 271 578 c 0
 230 578 182 563 182 530 c 2
 182 327 l 1
 313 327 l 1
 322.3 325.7 326 319.2 326 314.4 c 0
 326 304.8 315.3 289 303 287 c 1
 182 287 l 1
 182 85 l 2
140 613 m 0
 176 613 247 616 302 616 c 0
 478 616 597 513 597 293 c 0
 597 59 435 -2 317 -2 c 0
 231 -2 175 0 141 0 c 0
 93.4 0 65 -1 19 -2 c 1
 13 4 13 29 19 35 c 1
 79 35 89 43 89 122 c 2
 89 287 l 1
 27 287 l 1
 18 289 15 294.8 15 300.4 c 0
 15 310 24 324.7 36 327 c 1
 89 327 l 1
 89 491 l 2
 89 570 79 578 19 578 c 1
 13 584 13 609 19 615 c 1
 65 614 92.8 613 140 613 c 0
EndSplineSet
EndChar

StartChar: dcroat
Encoding: 273 273 235
Width: 640
GlyphClass: 2
Flags: MW
LayerCount: 2
Fore
SplineSet
442 138 m 2
 442 350 l 2
 442 385 439 392 423 410 c 0
 401 436 348 449 306 449 c 0
 283 449 221 446 184 394 c 1
 166 371 150 326 150 246 c 0
 150 107 237 41 301 41 c 0
 331 41 383 59 424 95 c 0
 440 109 442 117 442 138 c 2
430 56 m 0
 375 11 316 -11 270 -11 c 0
 143 -11 60 89 60 226 c 0
 60 309 90 375 141 423 c 1
 189 465 240 489 318 489 c 0
 357 489 428 471 432 471 c 0
 440 471 442 473 442 481 c 2
 442 543 l 1
 307 543 l 1
 298 545 295 550.8 295 556.4 c 0
 295 566 304 580.7 316 583 c 1
 441.4 583 l 1
 438.2 634.3 421.3 638.5 358 641 c 1
 352 647 350 663 352 671 c 1
 392 674 495 688 520 698 c 1
 529 698 533 695 533 688 c 2
 533 688 529 648 529 583 c 1
 593 583 l 1
 602.3 581.7 606 575.2 606 570.4 c 0
 606 560.8 595.3 545 583 543 c 1
 529 543 l 1
 529 130 l 2
 529 81 537 66.1 612 57 c 1
 618 51 618 36 612 30 c 1
 537 24.1 495 8 473 -10 c 1
 465 -12 462 -13 454 -10 c 1
 454 -10 443 28 443 55 c 0
 443 63 435 60 430 56 c 0
EndSplineSet
EndChar

StartChar: emacron
Encoding: 275 275 237
Width: 640
GlyphClass: 2
Flags: MW
AnchorPoint: "ogonek" 461 42 basechar 0
AnchorPoint: "cedilla" 342 -2 basechar 0
AnchorPoint: "below" 336 -110 basechar 0
AnchorPoint: "above" 327 698 basechar 0
LayerCount: 2
Fore
SplineSet
426 586 m 2
 202 586 l 2
 193 586 189 597 189 604 c 0
 189 616 200 636 211 636 c 2
 436 636 l 2
 446 636 450 625 450 619 c 0
 450 607 439 586 426 586 c 2
EndSplineSet
Refer: 105 101 N 1 0 0 1 0 0 2
EndChar

StartChar: Ebreve
Encoding: 276 276 238
Width: 640
GlyphClass: 2
Flags: MW
LayerCount: 2
Fore
SplineSet
416 803 m 1
 410 732 346 690 280 690 c 0
 207 690 149 733 144 803 c 1
 172 803 l 1
 180 764 227 742 280 742 c 0
 329 742 381 764 388 803 c 1
 416 803 l 1
EndSplineSet
Refer: 29 69 N 1 0 0 1 0 0 2
EndChar

StartChar: dotlessi
Encoding: 305 305 239
Width: 640
GlyphClass: 2
Flags: MW
LayerCount: 2
Fore
SplineSet
380 134 m 2
 380 86 383 67 398 57 c 0
 409 49 510 37 564 35 c 1
 570 29 570 4 564 -2 c 1
 521 -1 380 0 338 0 c 0
 293 0 141 -1 99 -2 c 1
 93 4 93 29 99 35 c 1
 148 37 264 49 275 57 c 0
 289 68 293 87 293 134 c 2
 293 364 l 2
 293 390 291.5 403 282 415 c 0
 273.2 426.1 237.5 428 142 430 c 1
 138 438 137 454.5 140 463 c 1
 183.8 465.8 268.6 473.7 314.2 481.9 c 0
 341 486.7 368.8 493 380 493 c 0
 386.8 493 394 486.5 394 480 c 0
 394 456.5 380 439.8 380 372 c 2
 380 134 l 2
EndSplineSet
EndChar

StartChar: IJ
Encoding: 306 306 240
Width: 640
GlyphClass: 2
Flags: MW
LayerCount: 2
Fore
SplineSet
533 497 m 2
 533 98 l 2
 533 -38 471 -88 427 -123 c 0
 386 -156 355 -163 310 -163 c 0
 288 -163 235 -146 235 -112 c 0
 235 -91 265 -71 279 -71 c 0
 310 -71 314 -91 324 -104 c 0
 331 -114 345 -121 359 -121 c 0
 392 -121 440 -94 440 77 c 2
 440 497 l 2
 440 576 423 580 343 583 c 1
 337 589 337 609 343 615 c 1
 393 614 430 613 486 613 c 0
 534 613 561 614 610 615 c 1
 616 609 616 589 610 583 c 1
 550 580 533 576 533 497 c 2
215 116 m 2
 215 37 232 32 302 29 c 1
 308 23 308 4 302 -2 c 1
 252 -1 221 0 169 0 c 0
 117 0 84 -1 35 -2 c 1
 29 4 29 23 35 29 c 1
 105 32 122 37 122 116 c 2
 122 497 l 2
 122 576 105 580 35 583 c 1
 29 589 29 609 35 615 c 1
 85 614 116 613 168 613 c 0
 220 613 253 614 302 615 c 1
 308 609 308 589 302 583 c 1
 232 580 215 576 215 497 c 2
 215 116 l 2
EndSplineSet
EndChar

StartChar: ij
Encoding: 307 307 241
Width: 640
GlyphClass: 2
Flags: MW
LayerCount: 2
Fore
SplineSet
442 650 m 0
 442 678 473 705 500 705 c 0
 530 705 554 673 554 645 c 0
 554 621 527 590 496 590 c 0
 469 590 442 620 442 650 c 0
548 84 m 2
 548 -164 500 -224 385 -224 c 0
 347 -224 295 -209 269 -187 c 0
 248 -168 237 -148 237 -128 c 0
 237 -104 260 -83 277 -83 c 0
 298 -83 309 -93 317 -115 c 0
 331 -157 353 -184 395 -184 c 0
 457 -184 461 -128 461 52 c 2
 461 364 l 2
 461 390 456 403 446 415 c 0
 437 426 414 428 340 430 c 1
 336 438 335 455 338 463 c 1
 382 466 410 470 456 479 c 0
 482.9 484.3 531 493 542 493 c 0
 549 493 556 486 556 480 c 0
 556 456 548 440 548 372 c 2
 548 84 l 2
260 134 m 2
 260 86 263 67 278 57 c 0
 289 49 310 37 364 35 c 1
 370 29 370 4 364 -2 c 1
 321 -1 260 0 218 0 c 0
 173 0 101 -1 59 -2 c 1
 53 4 53 29 59 35 c 1
 108 37 144 49 155 57 c 0
 169 68 173 87 173 134 c 2
 173 364 l 2
 173 390 171.5 403 162 415 c 0
 153.2 426.1 146 427 82 430 c 1
 78 438 77 454.5 80 463 c 1
 127 468 160 473 194.2 481.9 c 0
 220.6 488.8 244.8 493 256 493 c 0
 262.8 493 270 486.5 270 480 c 0
 270 456.5 260 439.8 260 372 c 2
 260 134 l 2
154 650 m 0
 154 678 185 705 212 705 c 0
 242 705 266 673 266 645 c 0
 266 621 239 590 208 590 c 0
 181 590 154 620 154 650 c 0
EndSplineSet
LCarets2: 1 309
EndChar

StartChar: Jcircumflex
Encoding: 308 308 242
Width: 640
GlyphClass: 2
Flags: MW
LayerCount: 2
Fore
SplineSet
387 808 m 1
 417 772 454 738 490 711 c 1
 487.2 701.9 483.1 693.8 474 690 c 1
 435 708 401 726 368 751 c 1
 331 724 299 707 261 690 c 1
 252 696 249 702 247 711 c 1
 284 739 317 774 348 808 c 1
 362 816.4 371.6 815.7 387 808 c 1
EndSplineSet
Refer: 79 74 N 1 0 0 1 0 0 2
EndChar

StartChar: jcircumflex
Encoding: 309 309 243
Width: 640
GlyphClass: 2
Flags: MW
LayerCount: 2
Fore
SplineSet
410 722 m 1
 439 675 483 622 519 582 c 1
 514 575 505.4 566.9 496 565 c 1
 458 589 423 617 393 648 c 1
 361 616 328 587 289 565 c 1
 280 567 273 573 267 582 c 1
 303 622 349 676 378 722 c 1
 388.7 724.3 399.3 725 410 722 c 1
EndSplineSet
Refer: 415 567 N 1 0 0 1 0 0 2
EndChar

StartChar: uni0136
Encoding: 310 310 244
Width: 640
GlyphClass: 2
Flags: MW
LayerCount: 2
Fore
SplineSet
352 -41 m 0
 390 -41 414 -75 414 -127 c 0
 414 -187 365 -217 308 -226 c 1
 302 -220 300 -211 300 -202 c 1
 349 -191 375 -167 375 -149 c 0
 375 -129 362 -125 344 -123 c 1
 327 -120 302 -111 302 -84 c 0
 302 -60 323 -41 352 -41 c 0
EndSplineSet
Refer: 80 75 N 1 0 0 1 0 0 2
EndChar

StartChar: uni0137
Encoding: 311 311 245
Width: 640
GlyphClass: 2
Flags: MW
LayerCount: 2
Fore
SplineSet
266 -41 m 0
 304 -41 328 -75 328 -127 c 0
 328 -187 279 -217 222 -226 c 1
 216 -220 214 -211 214 -202 c 1
 263 -191 289 -167 289 -149 c 0
 289 -129 276 -125 258 -123 c 1
 241 -120 216 -111 216 -84 c 0
 216 -60 237 -41 266 -41 c 0
EndSplineSet
Refer: 111 107 N 1 0 0 1 0 0 2
EndChar

StartChar: kgreenlandic
Encoding: 312 312 246
Width: 640
GlyphClass: 2
Flags: MW
AnchorPoint: "cedilla" 160 9 basechar 0
AnchorPoint: "above" 280 644 basechar 0
AnchorPoint: "below" 172 -108 basechar 0
LayerCount: 2
Fore
SplineSet
223 122 m 2
 223 39 233 36 275 31 c 1
 281 25 281 4 275 -2 c 1
 232 -1 214.6 0 176 0 c 0
 120.6 0 76 -1 34 -2 c 1
 28 4 28 25 34 31 c 1
 68 34 116 36 126 52 c 0
 134 65 136 86 136 122 c 2
 136 365 l 2
 136 387 134 402 129 412 c 0
 121 427 74 430 41 433 c 1
 39 439 37 455 39 461 c 1
 108 470 186 479 214 490 c 1
 222 490 227 487 227 483 c 2
 227 483 223 419 223 369 c 2
 223 262 l 1
 244 264 275 278 301 297 c 0
 330 318 365 357 391 389 c 0
 401 402 428 442 365 446 c 1
 358 453 358 475 365 482 c 1
 406 481 432 480 475 480 c 0
 515 480 532 481 573 482 c 1
 580 475 580 453 573 446 c 1
 528 442 489 432 455 396 c 2
 356 295 l 2
 352 291 352 287 352 283 c 0
 352 277 356 273 360 268 c 2
 508 82 l 2
 538 44 566 39 604 35 c 1
 611 28 611 5 604 -2 c 1
 570 -1 547 0 512 0 c 0
 478 0 465 -1 443 -2 c 0
 440 -2 439 0 438 3 c 0
 434 20 424 38 391 82 c 2
 309 192 l 2
 296 210 285 220 273 228 c 1
 262 232 246 233 223 234 c 1
 223 122 l 2
EndSplineSet
EndChar

StartChar: Lacute
Encoding: 313 313 247
Width: 640
GlyphClass: 2
Flags: MW
LayerCount: 2
Fore
SplineSet
302 819 m 1
 330.6 805.7 351.3 788.3 364 767 c 1
 220 709 l 2
 199 700 187 697 178 697 c 0
 169 697 163 704 163 712 c 0
 163 719 165 724 178 733 c 2
 302 819 l 1
EndSplineSet
Refer: 81 76 N 1 0 0 1 0 0 2
EndChar

StartChar: lacute
Encoding: 314 314 248
Width: 640
GlyphClass: 2
Flags: MW
LayerCount: 2
Fore
SplineSet
353 847 m 1
 381.6 833.7 402.3 816.3 415 795 c 1
 271 737 l 2
 250 728 238 725 229 725 c 0
 220 725 214 732 214 740 c 0
 214 747 216 752 229 761 c 2
 353 847 l 1
EndSplineSet
Refer: 112 108 N 1 0 0 1 0 0 2
EndChar

StartChar: uni013B
Encoding: 315 315 249
Width: 640
GlyphClass: 2
Flags: MW
LayerCount: 2
Fore
SplineSet
327 -41 m 0
 365 -41 389 -75 389 -127 c 0
 389 -187 340 -217 283 -226 c 1
 277 -220 275 -211 275 -202 c 1
 324 -191 350 -167 350 -149 c 0
 350 -129 337 -125 319 -123 c 1
 302 -120 277 -111 277 -84 c 0
 277 -60 298 -41 327 -41 c 0
EndSplineSet
Refer: 81 76 N 1 0 0 1 0 0 2
EndChar

StartChar: uni013C
Encoding: 316 316 250
Width: 640
GlyphClass: 2
Flags: MW
LayerCount: 2
Fore
SplineSet
322 -41 m 0
 360 -41 384 -75 384 -127 c 0
 384 -187 335 -217 278 -226 c 1
 272 -220 270 -211 270 -202 c 1
 319 -191 345 -167 345 -149 c 0
 345 -129 332 -125 314 -123 c 1
 297 -120 272 -111 272 -84 c 0
 272 -60 293 -41 322 -41 c 0
EndSplineSet
Refer: 112 108 N 1 0 0 1 0 0 2
EndChar

StartChar: Ldot
Encoding: 319 319 253
Width: 640
GlyphClass: 2
Flags: MW
LayerCount: 2
Fore
SplineSet
349 335 m 0
 349 363 373 387 401 387 c 0
 429 387 453 363 453 335 c 0
 453 307 429 283 401 283 c 0
 373 283 349 307 349 335 c 0
EndSplineSet
Refer: 81 76 N 1 0 0 1 0 0 2
EndChar

StartChar: ldot
Encoding: 320 320 254
Width: 640
GlyphClass: 2
Flags: MW
LayerCount: 2
Fore
SplineSet
462 360 m 0
 462 385 483 409 510 409 c 0
 533 409 557 387 557 360 c 0
 557 335 537 313 510 313 c 0
 480 313 462 336 462 360 c 0
EndSplineSet
Refer: 112 108 N 1 0 0 1 0 0 2
EndChar

StartChar: Lslash
Encoding: 321 321 255
Width: 640
GlyphClass: 2
Flags: MW
LayerCount: 2
Fore
SplineSet
340 427 m 1
 358 398 l 1
 247 337.6 l 1
 247 96 l 2
 247 67 265 50 294 50 c 2
 414 50 l 2
 507 50 527 90 555 229 c 1
 567 231 580 229 590 225 c 1
 587 172 574 46 564 -2 c 1
 564 -2 472 0 445 0 c 2
 197 0 l 1
 197 0 116 -1 67 -2 c 1
 61 4 61 29 67 35 c 1
 137 38 154 43 154 122 c 2
 154 287 l 1
 53 232 l 1
 35 261 l 1
 154 325.8 l 1
 154 491 l 2
 154 570 137 575 67 578 c 1
 61 584 61 609 67 615 c 1
 108 614 149.3 613 202 613 c 0
 253.5 613 294 614 334 615 c 1
 340 609 340 584 334 578 c 1
 264 575 247 570 247 491 c 2
 247 376.4 l 1
 340 427 l 1
EndSplineSet
EndChar

StartChar: lslash
Encoding: 322 322 256
Width: 640
GlyphClass: 2
Flags: MW
LayerCount: 2
Fore
SplineSet
433 438 m 1
 450 408 l 1
 373.5 363.5 l 1
 373.5 129 l 2
 373.5 80 377 62 393 52 c 0
 404 45 536.5 36.2 561.5 35 c 1
 567.5 29 567.5 4 561.5 -2 c 1
 518.5 -1 420.6 0 330.5 0 c 0
 236.9 0 132.5 -1 90.5 -2 c 1
 84.5 4 84.5 29 90.5 35 c 1
 116.7 36.3 258 44 269 52 c 0
 283 63 286.5 81.7 286.5 129 c 2
 286.5 312.8 l 1
 213 270 l 1
 196 299 l 1
 286.5 352.1 l 1
 286.5 538 l 2
 286.5 579.7 283.4 609.9 273 618.5 c 0
 250.3 637.3 213 638 172.5 638 c 1
 166.5 644 166.5 663 168.5 671 c 1
 208.5 674 327.5 688 364.5 698 c 1
 373.5 698 377.5 695 377.5 688 c 2
 377.5 688 373.5 648 373.5 583 c 2
 373.5 403.1 l 1
 433 438 l 1
EndSplineSet
EndChar

StartChar: Nacute
Encoding: 323 323 257
Width: 640
GlyphClass: 2
Flags: MW
LayerCount: 2
Fore
SplineSet
383 820 m 1
 411.6 806.7 432.3 789.3 445 768 c 1
 301 710 l 2
 280 701 268 698 259 698 c 0
 250 698 244 705 244 713 c 0
 244 720 246 725 259 734 c 2
 383 820 l 1
EndSplineSet
Refer: 83 78 N 1 0 0 1 0 0 2
EndChar

StartChar: nacute
Encoding: 324 324 258
Width: 640
GlyphClass: 2
Flags: MW
LayerCount: 2
Fore
SplineSet
348 729 m 1
 351 730 357 731 362 731 c 0
 368.4 731 394 730 417 708 c 1
 420 697 l 1
 305 588 l 2
 290 573 282 569 275 569 c 0
 268 569 261 575 261 582 c 0
 261 593.2 264.3 597.2 272.4 610 c 2
 348 729 l 1
EndSplineSet
Refer: 114 110 N 1 0 0 1 0 0 2
EndChar

StartChar: uni0145
Encoding: 325 325 259
Width: 640
GlyphClass: 2
Flags: MW
LayerCount: 2
Fore
SplineSet
358 -41 m 0
 396 -41 420 -75 420 -127 c 0
 420 -187 371 -217 314 -226 c 1
 308 -220 306 -211 306 -202 c 1
 355 -191 381 -167 381 -149 c 0
 381 -129 368 -125 350 -123 c 1
 333 -120 308 -111 308 -84 c 0
 308 -60 329 -41 358 -41 c 0
EndSplineSet
Refer: 83 78 N 1 0 0 1 0 0 2
EndChar

StartChar: uni0146
Encoding: 326 326 260
Width: 640
GlyphClass: 2
Flags: MW
LayerCount: 2
Fore
SplineSet
331 -41 m 0
 369 -41 393 -75 393 -127 c 0
 393 -187 344 -217 287 -226 c 1
 281 -220 279 -211 279 -202 c 1
 328 -191 354 -167 354 -149 c 0
 354 -129 341 -125 323 -123 c 1
 306 -120 281 -111 281 -84 c 0
 281 -60 302 -41 331 -41 c 0
EndSplineSet
Refer: 114 110 N 1 0 0 1 0 0 2
EndChar

StartChar: Ncaron
Encoding: 327 327 261
Width: 640
GlyphClass: 2
Flags: MW
LayerCount: 2
Fore
SplineSet
331 697 m 1
 301 734 266 764 230 792 c 1
 246 812 l 1
 285 795 319 776 352 751 c 1
 389 777 421 796 459 812 c 1
 474 792 l 1
 436 763 404 731 374 697 c 1
 331 697 l 1
EndSplineSet
Refer: 83 78 N 1 0 0 1 0 0 2
EndChar

StartChar: ncaron
Encoding: 328 328 262
Width: 640
GlyphClass: 2
Flags: MW
LayerCount: 2
Fore
SplineSet
305 584 m 1
 276 631 239 676 204 714 c 1
 224 727 l 1
 263 698 296 673 330 637 c 1
 367 675 401 700 438 727 c 1
 457 714 l 1
 422 675 384 630 355 584 c 1
 305 584 l 1
EndSplineSet
Refer: 114 110 N 1 0 0 1 0 0 2
EndChar

StartChar: napostrophe
Encoding: 329 329 263
Width: 640
GlyphClass: 2
Flags: MW
LayerCount: 2
Fore
SplineSet
9 698 m 0
 48 698 71 661 71 625 c 0
 71 601 64 579 48 559 c 0
 31.1 537.9 3 521 -35 516 c 1
 -39 520 -40 529 -40 536 c 1
 17 548 37 580 37 603 c 0
 37 622.6 32.2 616 8 616 c 0
 -32 616 -42 640 -42 657 c 0
 -42 673 -26 698 9 698 c 0
EndSplineSet
Refer: 114 110 N 1 0 0 1 13 0 2
EndChar

StartChar: Eng
Encoding: 330 330 264
Width: 640
GlyphClass: 2
Flags: MW
AnchorPoint: "above" 346 804 basechar 0
AnchorPoint: "below" 313 -109 basechar 0
AnchorPoint: "cedilla" 124 -3 basechar 0
LayerCount: 2
Fore
SplineSet
182 615 m 0
 191 615 195 612 195 605 c 2
 195 605 191 567 191 505 c 2
 191 488 l 1
 194 488 200 495 200 495 c 1
 256 570 332 625 396 625 c 0
 453 625 495 606 527 567 c 0
 565 520 573 439 573 313 c 2
 573 107 l 2
 573 -29 515 -88 471 -123 c 0
 430 -156 399 -163 354 -163 c 0
 332 -163 279 -146 279 -112 c 0
 279 -91 309 -71 323 -71 c 0
 354 -71 358 -92 368 -104 c 1
 375 -114 389 -121 403 -121 c 0
 436 -121 488 -94 488 77 c 2
 488 322 l 2
 488 418 488 490 464 525 c 0
 439 562 405 572 363 572 c 0
 328 572 262 520 209 460 c 0
 202 452 194 440 191 424 c 1
 191 116 l 2
 191 37 208 32 278 29 c 1
 284 23 284 4 278 -2 c 1
 228 -1 199 0 149 0 c 0
 98 0 68 -1 19 -2 c 1
 13 4 13 23 19 29 c 1
 89 32 106 37 106 116 c 2
 106 497 l 2
 106 576 89 580 19 583 c 1
 13 589 13 609 19 615 c 1
 69 614 98 613 148 613 c 0
 161 613 173 614 182 615 c 0
EndSplineSet
Substitution2: "'locl' Localised Forms for Sami-1" Eng.UCStyle
Substitution2: "'ss07' Swap Eng styles-1" Eng.UCStyle
EndChar

StartChar: eng
Encoding: 331 331 265
Width: 640
GlyphClass: 2
Flags: MW
AnchorPoint: "middle" 303 215 basechar 0
AnchorPoint: "above" 303 646 basechar 0
AnchorPoint: "below" 328 -111 basechar 0
AnchorPoint: "cedilla" 148 9 basechar 0
LayerCount: 2
Fore
SplineSet
203 409 m 0
 203 395 209 405 212 409 c 0
 273 477 362 490 411 490 c 0
 451 490 486.9 483.2 510 456 c 0
 538.5 422.5 541 383 541 322 c 2
 541 110 l 2
 541 -79 513 -151 466 -189 c 0
 429 -220 377 -223 356 -223 c 0
 337 -223 301 -209 301 -180 c 0
 301 -162 322 -142 333 -142 c 0
 355 -142 367 -158 377 -168 c 0
 384 -175 397 -179 408 -179 c 0
 458 -179 454 -56 454 76 c 2
 454 325 l 2
 454 355 452 382.5 438 402 c 0
 418.7 428.8 411.5 438 373 438 c 0
 334 438 258 416 220 379 c 0
 212 370 203 358 203 337 c 2
 203 122 l 2
 203 40 212 36 263 31 c 1
 269 25 269 4 263 -2 c 1
 221 -1 195 0 156 0 c 0
 113 0 87 -1 46 -2 c 1
 40 4 40 25 46 31 c 1
 106 36 116 40 116 122 c 2
 116 368 l 2
 116 426 105 431 51 436 c 1
 49 442 47 458 49 464 c 1
 118 473 155 482 183 493 c 1
 191 493 192.9 489.6 195 485 c 0
 199.7 474.7 203 449 203 409 c 0
EndSplineSet
EndChar

StartChar: Omacron
Encoding: 332 332 266
Width: 640
GlyphClass: 2
Flags: MW
AnchorPoint: "komb_OR" 620 606 basechar 0
LayerCount: 2
Fore
SplineSet
426 752 m 2
 202 752 l 2
 193 752 189 763 189 770 c 0
 189 782 200 802 211 802 c 2
 436 802 l 2
 446 802 450 791 450 785 c 0
 450 773 439 752 426 752 c 2
EndSplineSet
Refer: 84 79 N 1 0 0 1 0 0 2
EndChar

StartChar: omacron
Encoding: 333 333 267
Width: 640
GlyphClass: 2
Flags: MW
AnchorPoint: "komb_OR" 480 396 basechar 0
LayerCount: 2
Fore
SplineSet
426 586 m 2
 202 586 l 2
 193 586 189 597 189 604 c 0
 189 616 200 636 211 636 c 2
 436 636 l 2
 446 636 450 625 450 619 c 0
 450 607 439 586 426 586 c 2
EndSplineSet
Refer: 115 111 N 1 0 0 1 0 0 2
EndChar

StartChar: Obreve
Encoding: 334 334 268
Width: 640
GlyphClass: 2
Flags: MW
LayerCount: 2
Fore
SplineSet
460 805 m 1
 454 734 390 692 324 692 c 0
 251 692 193 735 188 805 c 1
 216 805 l 1
 224 766 271 744 324 744 c 0
 373 744 425 766 432 805 c 1
 460 805 l 1
EndSplineSet
Refer: 84 79 N 1 0 0 1 0 0 2
EndChar

StartChar: obreve
Encoding: 335 335 269
Width: 640
GlyphClass: 2
Flags: MW
LayerCount: 2
Fore
SplineSet
212 727 m 1
 223 674 266 637 320 637 c 0
 372 637 418 669 428 727 c 1
 455 715 l 1
 443 629 379 580 320 580 c 0
 250 580 199 630 185 715 c 1
 212 727 l 1
EndSplineSet
Refer: 115 111 N 1 0 0 1 0 0 2
EndChar

StartChar: Ohungarumlaut
Encoding: 336 336 270
Width: 640
GlyphClass: 2
Flags: MW
LayerCount: 2
Fore
SplineSet
503 792 m 0
 503 783 500 776 496 772 c 2
 397 688 l 2
 395 686 392 685 389 685 c 0
 384 685 376 690 376 698 c 0
 376 701 377.2 704.4 379.7 709 c 2
 439 818 l 2
 444 826 451 830 462 830 c 0
 491 830 503 808.2 503 792 c 0
372 797 m 0
 372 789 370 782 365 778 c 2
 277 697.5 l 2
 272.6 693.5 268.6 690 263 690 c 0
 256 690 250 695 250 702 c 0
 250 704 250.6 709.2 252.5 713 c 2
 307 823 l 2
 312 831 319 835 334 835 c 0
 349.7 835 372 820.3 372 797 c 0
EndSplineSet
Refer: 84 79 N 1 0 0 1 0 0 2
EndChar

StartChar: ohungarumlaut
Encoding: 337 337 271
Width: 640
GlyphClass: 2
Flags: MW
LayerCount: 2
Fore
SplineSet
491 742 m 0
 491 736 490 729 484 723 c 2
 370 613 l 2
 368 611 366 611 364 611 c 0
 359 611 350 616 350 624 c 0
 350 625 350 627 351 628 c 2
 429 767 l 2
 434 776 441 779 453 779 c 0
 474 779 491 760.6 491 742 c 0
359 748 m 0
 359 743 358 737 354 732 c 2
 252 611 l 2
 250 609 247 608 244 608 c 0
 238 608 230 613 230 621 c 0
 230 622 230 623 231 624 c 2
 295 770 l 2
 301 783 317 784 321 784 c 0
 341.9 784 359 768.5 359 748 c 0
EndSplineSet
Refer: 115 111 N 1 0 0 1 0 0 2
EndChar

StartChar: OE
Encoding: 338 338 272
Width: 640
GlyphClass: 2
Flags: MW
AnchorPoint: "above" 486 698 basechar 0
LayerCount: 2
Fore
SplineSet
248 30 m 2
 252 30 l 2
 292 30 301 41 301 68 c 2
 301 545 l 2
 301 574 290 580 252 580 c 2
 243 580 l 2
 146 580 116 514 116 311 c 0
 116 114 145 30 248 30 c 2
240 -2 m 1
 52 -1 22 131 22 302 c 0
 22 473 51 614 237 614 c 1
 237 614 303 613 346 613 c 2
 439 613 l 1
 616 613 l 1
 610 481 l 1
 583 478 l 1
 576 519 562 575 510 575 c 2
 422 575 l 2
 398 575 386 567 386 544 c 2
 386 348 l 1
 480 348 l 2
 516 348 520 363 527 390 c 2
 534 418 l 2
 534 422 537 426 541 426 c 2
 563 426 l 2
 565 426 566 424 566 422 c 0
 564 392 558 363 558 332 c 0
 558 299 563 270 566 240 c 1
 564 238 l 1
 541 238 l 2
 536 238 533 240 533 244 c 2
 527 274 l 2
 521 301 514 315 480 315 c 2
 386 315 l 1
 386 68 l 2
 386 42 400 37 422 37 c 2
 514 37 l 2
 579 37 588 88 603 157 c 1
 630 152 l 1
 624 0 l 1
 345 0 l 2
 304 0 240 -2 240 -2 c 1
EndSplineSet
EndChar

StartChar: oe
Encoding: 339 339 273
Width: 640
GlyphClass: 2
Flags: MW
AnchorPoint: "ogonek" 298.2 46.5 basechar 0
LayerCount: 2
Fore
SplineSet
339 388 m 1
 366 449 417 490 474 490 c 0
 573 490 617 406 617 276 c 1
 381 276 l 1
 380 266 380 254 380 243 c 0
 380 94 451 42 484 42 c 0
 516 42 567 61 593 98 c 1
 602 97 608 90 612 81 c 1
 594 48 555 -10 475 -10 c 0
 398 -10 358 37 334 89 c 1
 304 29 262 -10 196 -10 c 0
 94 -10 24 93 24 230 c 0
 24 403 106 490 199 490 c 0
 292 490 318 441 339 388 c 1
108 264 m 0
 108 141 130 29 208 29 c 0
 247 29 297 66 297 223 c 0
 297 394 235 454 198 454 c 0
 119 454 108 341 108 264 c 0
534 320 m 1
 533 366 526 453 472 453 c 0
 412 453 385 338 383 320 c 1
 534 320 l 1
EndSplineSet
EndChar

StartChar: Racute
Encoding: 340 340 274
Width: 640
GlyphClass: 2
Flags: MW
LayerCount: 2
Fore
SplineSet
332 820 m 1
 360.6 806.7 381.3 789.3 394 768 c 1
 250 710 l 2
 229 701 217 698 208 698 c 0
 199 698 193 705 193 713 c 0
 193 720 195 725 208 734 c 2
 332 820 l 1
EndSplineSet
Refer: 87 82 N 1 0 0 1 0 0 2
EndChar

StartChar: racute
Encoding: 341 341 275
Width: 640
GlyphClass: 2
Flags: MW
LayerCount: 2
Fore
SplineSet
368 729 m 1
 371 730 377 731 382 731 c 0
 388.4 731 414 730 437 708 c 1
 440 697 l 1
 325 588 l 2
 310 573 302 569 295 569 c 0
 288 569 281 575 281 582 c 0
 281 593.2 284.3 597.2 292.4 610 c 2
 368 729 l 1
EndSplineSet
Refer: 118 114 N 1 0 0 1 0 0 2
EndChar

StartChar: uni0156
Encoding: 342 342 276
Width: 640
GlyphClass: 2
Flags: MW
LayerCount: 2
Fore
SplineSet
310 -41 m 0
 348 -41 372 -75 372 -127 c 0
 372 -187 323 -217 266 -226 c 1
 260 -220 258 -211 258 -202 c 1
 307 -191 333 -167 333 -149 c 0
 333 -129 320 -125 302 -123 c 1
 285 -120 260 -111 260 -84 c 0
 260 -60 281 -41 310 -41 c 0
EndSplineSet
Refer: 87 82 N 1 0 0 1 0 0 2
EndChar

StartChar: uni0157
Encoding: 343 343 277
Width: 640
GlyphClass: 2
Flags: MW
LayerCount: 2
Fore
SplineSet
267 -41 m 0
 305 -41 329 -75 329 -127 c 0
 329 -187 280 -217 223 -226 c 1
 217 -220 215 -211 215 -202 c 1
 264 -191 290 -167 290 -149 c 0
 290 -129 277 -125 259 -123 c 1
 242 -120 217 -111 217 -84 c 0
 217 -60 238 -41 267 -41 c 0
EndSplineSet
Refer: 118 114 N 1 0 0 1 0 0 2
EndChar

StartChar: Rcaron
Encoding: 344 344 278
Width: 640
GlyphClass: 2
Flags: MW
LayerCount: 2
Fore
SplineSet
244 697 m 1
 214 734 179 764 143 792 c 1
 159 812 l 1
 198 795 232 776 265 751 c 1
 302 777 334 796 372 812 c 1
 387 792 l 1
 349 763 317 731 287 697 c 1
 244 697 l 1
EndSplineSet
Refer: 87 82 N 1 0 0 1 0 0 2
EndChar

StartChar: rcaron
Encoding: 345 345 279
Width: 640
GlyphClass: 2
Flags: MW
LayerCount: 2
Fore
SplineSet
295 584 m 1
 266 631 229 676 194 714 c 1
 214 727 l 1
 253 698 286 673 320 637 c 1
 357 675 391 700 428 727 c 1
 447 714 l 1
 412 675 374 630 345 584 c 1
 295 584 l 1
EndSplineSet
Refer: 118 114 N 1 0 0 1 0 0 2
EndChar

StartChar: Sacute
Encoding: 346 346 280
Width: 640
GlyphClass: 2
Flags: MW
LayerCount: 2
Fore
SplineSet
366 820 m 1
 394.6 806.7 415.3 789.3 428 768 c 1
 284 710 l 2
 263 701 251 698 242 698 c 0
 233 698 227 705 227 713 c 0
 227 720 229 725 242 734 c 2
 366 820 l 1
EndSplineSet
Refer: 88 83 N 1 0 0 1 0 0 2
EndChar

StartChar: sacute
Encoding: 347 347 281
Width: 640
GlyphClass: 2
Flags: MW
LayerCount: 2
Fore
SplineSet
348 729 m 1
 351 730 357 731 362 731 c 0
 368.4 731 394 730 417 708 c 1
 420 697 l 1
 305 588 l 2
 290 573 282 569 275 569 c 0
 268 569 261 575 261 582 c 0
 261 593.2 264.3 597.2 272.4 610 c 2
 348 729 l 1
EndSplineSet
Refer: 119 115 N 1 0 0 1 0 0 2
EndChar

StartChar: Scircumflex
Encoding: 348 348 282
Width: 640
GlyphClass: 2
Flags: MW
LayerCount: 2
Fore
SplineSet
332 815 m 1
 362 779 399 745 435 718 c 1
 432.2 708.9 428.1 700.8 419 697 c 1
 380 715 346 733 313 758 c 1
 276 731 244 714 206 697 c 1
 197 703 194 709 192 718 c 1
 229 746 262 781 293 815 c 1
 307 823.4 316.6 822.7 332 815 c 1
EndSplineSet
Refer: 88 83 N 1 0 0 1 0 0 2
EndChar

StartChar: scircumflex
Encoding: 349 349 283
Width: 640
GlyphClass: 2
Flags: MW
LayerCount: 2
Fore
SplineSet
337 722 m 1
 366 675 410 622 446 582 c 1
 441 575 432.4 566.9 423 565 c 1
 385 589 350 617 320 648 c 1
 288 616 255 587 216 565 c 1
 207 567 200 573 194 582 c 1
 230 622 276 676 305 722 c 1
 315.7 724.3 326.3 725 337 722 c 1
EndSplineSet
Refer: 119 115 N 1 0 0 1 0 0 2
EndChar

StartChar: Scedilla
Encoding: 350 350 284
Width: 640
GlyphClass: 2
Flags: MW
LayerCount: 2
Fore
SplineSet
295 -96 m 0
 276 -96 266 -97 250 -102 c 1
 244 -96 l 1
 280 -9.6 l 1
 190.9 -6.6 154.8 12 85 12 c 1
 71 59 66 84 61 157 c 1
 72 162 86 164 101 160 c 1
 128 65 202 28 315 28 c 0
 412 28 471 65 471 142 c 0
 471 243 404 269 305 279 c 0
 196.1 290 90 350 90 451 c 0
 90 578 200 625 323 625 c 0
 441 625 441 607 511 599 c 1
 523 549 529 523 533 477 c 1
 522 470 507 471 493 471 c 1
 469 534 430 588 312 588 c 0
 241 588 174 546 174 476 c 0
 174 396 293.5 360 370 352 c 0
 485 340 571 289 571 175 c 0
 571 108 526 56 457 22 c 0
 417.4 2.2 366.2 -8.7 314.3 -9.9 c 1
 293 -67 l 1
 301 -65 310 -64 319 -64 c 0
 359 -64 390 -88 390 -126 c 0
 390 -169 344 -200 283 -200 c 0
 251 -200 234 -194 209 -183 c 1
 209 -171 212 -164 219 -157 c 1
 246 -167 257 -171 277 -171 c 0
 307 -171 328 -157 328 -131 c 0
 328 -110 318 -96 295 -96 c 0
EndSplineSet
EndChar

StartChar: scedilla
Encoding: 351 351 285
Width: 640
GlyphClass: 2
Flags: MW
LayerCount: 2
Fore
SplineSet
295 -96 m 0
 276 -96 266 -97 250 -102 c 1
 244 -96 l 1
 280.2 -9.2 l 1
 237.7 -7.2 201.7 -2 187 2 c 0
 179 4.2 165 5 157 5 c 0
 151 5 135 3 123 1 c 1
 105 42 92 89 88 144 c 1
 97 153 117 158 131 156 c 1
 138 128 162 78 191 53 c 0
 209 38 255 27 312 27 c 0
 412 27 471 65 471 120 c 0
 471 168 428.5 189 286 213 c 0
 153 235.4 105 272.5 105 361 c 0
 105 441 213 490 322 490 c 0
 393 490 461.5 470.5 496 459 c 1
 504 427 510 389 516 342 c 1
 509 335 496 329 480 330 c 1
 438 402 400.5 453 322 453 c 0
 230 453 180 420 180 377 c 0
 180 321 248.5 302.5 358 285 c 0
 515.1 259.9 553 221 553 145 c 0
 553 30.6 448.2 -9.9 314.3 -10 c 1
 293 -67 l 1
 301 -65 310 -64 319 -64 c 0
 359 -64 390 -88 390 -126 c 0
 390 -169 344 -200 283 -200 c 0
 251 -200 234 -194 209 -183 c 1
 209 -171 212 -164 219 -157 c 1
 246 -167 257 -171 277 -171 c 0
 307 -171 328 -157 328 -131 c 0
 328 -110 318 -96 295 -96 c 0
EndSplineSet
EndChar

StartChar: Scaron
Encoding: 352 352 286
Width: 640
GlyphClass: 2
Flags: MW
LayerCount: 2
Fore
SplineSet
305 697 m 1
 275 734 240 764 204 792 c 1
 220 812 l 1
 259 795 293 776 326 751 c 1
 363 777 395 796 433 812 c 1
 448 792 l 1
 410 763 378 731 348 697 c 1
 305 697 l 1
EndSplineSet
Refer: 88 83 N 1 0 0 1 0 0 2
EndChar

StartChar: scaron
Encoding: 353 353 287
Width: 640
GlyphClass: 2
Flags: MW
AnchorPoint: "cedilla" 189 -2 basechar 0
AnchorPoint: "below" 183 -110 basechar 0
AnchorPoint: "above" 194 795 basechar 0
LayerCount: 2
Fore
SplineSet
295 584 m 1
 266 631 229 676 194 714 c 1
 214 727 l 1
 253 698 286 673 320 637 c 1
 357 675 391 700 428 727 c 1
 447 714 l 1
 412 675 374 630 345 584 c 1
 295 584 l 1
EndSplineSet
Refer: 119 115 N 1 0 0 1 0 0 2
EndChar

StartChar: uni0162
Encoding: 354 354 288
Width: 640
GlyphClass: 2
Flags: MW
LayerCount: 2
Fore
SplineSet
295 -96 m 0
 276 -96 266 -97 250 -102 c 1
 244 -96 l 1
 284 -0.1 l 1
 227.5 -0.4 177.4 -1.2 137 -2 c 1
 131 4 131 29 137 35 c 1
 257 38 274 43 274 122 c 2
 274 482 l 2
 274 540 264 576 227 576 c 2
 192 576 l 2
 126 576 70 551 50 475 c 1
 38 475 26 476 16 480 c 1
 27 526 37 575 41 618 c 0
 41 619 43 620 45 620 c 0
 83 617 211 613 288 613 c 2
 374 613 l 2
 453 613 574 617 608 620 c 0
 609 620 611 619 611 618 c 0
 612 575 617 527 624 483 c 1
 615 479 601 478 590 478 c 1
 573 551 516 576 441 576 c 2
 413 576 l 2
 377 576 367 540 367 479 c 2
 367 122 l 2
 367 43 384 37 504 35 c 1
 510 29 510 4 504 -2 c 1
 454 -1 392.4 0 321 0 c 0
 320 0 319 0 318 -0 c 2
 293 -67 l 1
 301 -65 310 -64 319 -64 c 0
 359 -64 390 -88 390 -126 c 0
 390 -169 344 -200 283 -200 c 0
 251 -200 234 -194 209 -183 c 1
 209 -171 212 -164 219 -157 c 1
 246 -167 257 -171 277 -171 c 0
 307 -171 328 -157 328 -131 c 0
 328 -110 318 -96 295 -96 c 0
EndSplineSet
EndChar

StartChar: uni0163
Encoding: 355 355 289
Width: 640
GlyphClass: 2
Flags: MW
LayerCount: 2
Fore
SplineSet
303.5 -96 m 0
 284.5 -96 274.5 -97 258.5 -102 c 1
 252.5 -96 l 1
 290.5 -4.9 l 1
 229.5 8.6 188 50.2 188 139 c 2
 188 396 l 1
 76 396 l 2
 72 396 71 397 71 402 c 2
 71 420 l 2
 71 428 75 440 89 440 c 2
 188 440.1 l 1
 188 551 185 594.4 185 606 c 0
 185 616 210 618 227 625.1 c 0
 242.7 631.7 264 642.8 271.3 642.8 c 0
 276 642.8 279 640.4 279 634 c 2
 279 634 275 594 275 529 c 2
 275 440 l 1
 495 440 l 2
 500 440 503 438 503 434 c 2
 503 409 l 2
 503 400 489 396 479 396 c 2
 275 396 l 1
 275 187 l 2
 275 69 326 49 377 49 c 0
 420.5 49 476.5 71 531 94 c 1
 541 93 547 76.3 549 66 c 1
 468 21 400.5 -10 342 -10 c 0
 335.5 -10 329.2 -9.8 323 -9.4 c 1
 301.5 -67 l 1
 309.5 -65 318.5 -64 327.5 -64 c 0
 367.5 -64 398.5 -88 398.5 -126 c 0
 398.5 -169 352.5 -200 291.5 -200 c 0
 259.5 -200 242.5 -194 217.5 -183 c 1
 217.5 -171 220.5 -164 227.5 -157 c 1
 254.5 -167 265.5 -171 285.5 -171 c 0
 315.5 -171 336.5 -157 336.5 -131 c 0
 336.5 -110 326.5 -96 303.5 -96 c 0
EndSplineSet
EndChar

StartChar: Tcaron
Encoding: 356 356 290
Width: 640
GlyphClass: 2
Flags: MW
LayerCount: 2
Fore
SplineSet
317 697 m 1
 287 734 252 764 216 792 c 1
 232 812 l 1
 271 795 305 776 338 751 c 1
 375 777 407 796 445 812 c 1
 460 792 l 1
 422 763 390 731 360 697 c 1
 317 697 l 1
EndSplineSet
Refer: 89 84 N 1 0 0 1 0 0 2
EndChar

StartChar: tcaron
Encoding: 357 357 291
Width: 640
GlyphClass: 2
Flags: MW
LayerCount: 2
Fore
SplineSet
9 698 m 0
 48 698 71 661 71 625 c 0
 71 601 64 579 48 559 c 0
 31.1 537.9 3 521 -35 516 c 1
 -39 520 -40 529 -40 536 c 1
 17 548 37 580 37 603 c 0
 37 622.6 32.2 616 8 616 c 0
 -32 616 -42 640 -42 657 c 0
 -42 673 -26 698 9 698 c 0
EndSplineSet
Refer: 120 116 N 1 0 0 1 0 0 2
EndChar

StartChar: Tbar
Encoding: 358 358 292
Width: 640
GlyphClass: 2
Flags: MW
LayerCount: 2
Fore
SplineSet
367 122 m 2
 367 43 384 37 504 35 c 1
 510 29 510 4 504 -2 c 1
 454 -1 392.4 0 321 0 c 0
 249.2 0 186 -1 137 -2 c 1
 131 4 131 29 137 35 c 1
 257 38 274 43 274 122 c 2
 274 311 l 1
 159 311 l 2
 151 311 148 319 148 325 c 0
 148 335 158 350 167 350 c 2
 274 350 l 1
 274 482 l 2
 274 540 264 576 227 576 c 2
 192 576 l 2
 126 576 70 551 50 475 c 1
 38 475 26 476 16 480 c 1
 27 526 37 575 41 618 c 0
 41 619 43 620 45 620 c 0
 83 617 211 613 288 613 c 2
 374 613 l 2
 453 613 574 617 608 620 c 0
 609 620 611 619 611 618 c 0
 612 575 617 527 624 483 c 1
 615 479 601 478 590 478 c 1
 573 551 516 576 441 576 c 2
 413 576 l 2
 377 576 367 540 367 479 c 2
 367 350 l 1
 504 350 l 2
 513 350 516 342 516 337 c 0
 516 326 507 311 495 311 c 2
 367 311 l 1
 367 122 l 2
EndSplineSet
EndChar

StartChar: tbar
Encoding: 359 359 293
Width: 640
GlyphClass: 2
Flags: MW
LayerCount: 2
Fore
SplineSet
89 440 m 2
 188 440.1 l 1
 188 551 185 594.4 185 606 c 0
 185 616 210 618 227 625.1 c 0
 242.7 631.7 264 642.8 271.3 642.8 c 0
 276 642.8 279 640.4 279 634 c 2
 279 634 275 594 275 529 c 2
 275 440 l 1
 495 440 l 2
 500 440 503 438 503 434 c 2
 503 409 l 2
 503 400 489 396 479 396 c 2
 275 396 l 1
 275 284 l 1
 416.5 284 l 2
 425.5 284 428.5 276 428.5 271 c 0
 428.5 260 419.5 245 407.5 245 c 2
 275 245 l 1
 275 187 l 2
 275 69 326 49 377 49 c 0
 420.5 49 476.5 71 531 94 c 1
 541 93 547 76.3 549 66 c 1
 468 21 400.5 -10 342 -10 c 0
 254 -10 188 27 188 139 c 2
 188 245 l 1
 118.5 245 l 2
 110.5 245 107.5 253 107.5 259 c 0
 107.5 269 117.5 284 126.5 284 c 2
 188 284 l 1
 188 396 l 1
 76 396 l 2
 72 396 71 397 71 402 c 2
 71 420 l 2
 71 428 75 440 89 440 c 2
EndSplineSet
EndChar

StartChar: Utilde
Encoding: 360 360 294
Width: 640
GlyphClass: 2
Flags: MW
LayerCount: 2
Fore
SplineSet
413 766 m 0
 435 766 446 776 460 818 c 1
 471 819 481 816 487 812 c 1
 475 752 446 713 400 713 c 0
 378 713 356 729 336 745 c 0
 319.5 758.2 299 764 282 764 c 0
 256 764 246 749 236 716 c 1
 225 714 215 715 209 721 c 1
 223 780 246 819 289 819 c 0
 319 819 342.5 800.9 361 785 c 0
 375.3 772.7 394 766 413 766 c 0
EndSplineSet
Refer: 90 85 N 1 0 0 1 0 0 2
EndChar

StartChar: utilde
Encoding: 361 361 295
Width: 640
GlyphClass: 2
Flags: MW
LayerCount: 2
Fore
SplineSet
366 642 m 0
 388 642 399 652 413 694 c 1
 424 695 434 692 440 688 c 1
 428 628 399 589 353 589 c 0
 331 589 309 605 289 621 c 0
 272.5 634.2 252 640 235 640 c 0
 209 640 199 625 189 592 c 1
 178 590 168 591 162 597 c 1
 176 656 199 695 242 695 c 0
 272 695 295.5 676.9 314 661 c 0
 328.3 648.7 347 642 366 642 c 0
EndSplineSet
Refer: 121 117 N 1 0 0 1 0 0 2
EndChar

StartChar: Umacron
Encoding: 362 362 296
Width: 640
GlyphClass: 2
Flags: MW
AnchorPoint: "above" 346 1000 basechar 0
AnchorPoint: "below" 328 -110 basechar 0
AnchorPoint: "cedilla" 328 4 basechar 0
AnchorPoint: "middle" 336 321 basechar 0
LayerCount: 2
Fore
SplineSet
426 752 m 2
 202 752 l 2
 193 752 189 763 189 770 c 0
 189 782 200 802 211 802 c 2
 436 802 l 2
 446 802 450 791 450 785 c 0
 450 773 439 752 426 752 c 2
EndSplineSet
Refer: 90 85 N 1 0 0 1 0 0 2
EndChar

StartChar: umacron
Encoding: 363 363 297
Width: 640
GlyphClass: 2
Flags: MW
AnchorPoint: "above" 318 771 basechar 0
AnchorPoint: "below" 309 -110 basechar 0
AnchorPoint: "cedilla" 283 0 basechar 0
LayerCount: 2
Fore
SplineSet
426 586 m 2
 202 586 l 2
 193 586 189 597 189 604 c 0
 189 616 200 636 211 636 c 2
 436 636 l 2
 446 636 450 625 450 619 c 0
 450 607 439 586 426 586 c 2
EndSplineSet
Refer: 121 117 N 1 0 0 1 0 0 2
EndChar

StartChar: Ubreve
Encoding: 364 364 298
Width: 640
GlyphClass: 2
Flags: MW
LayerCount: 2
Fore
SplineSet
484 804 m 1
 478 733 414 691 348 691 c 0
 275 691 217 734 212 804 c 1
 240 804 l 1
 248 765 295 743 348 743 c 0
 397 743 449 765 456 804 c 1
 484 804 l 1
EndSplineSet
Refer: 90 85 N 1 0 0 1 0 0 2
EndChar

StartChar: ubreve
Encoding: 365 365 299
Width: 640
GlyphClass: 2
Flags: MW
LayerCount: 2
Fore
SplineSet
212 727 m 1
 223 674 266 637 320 637 c 0
 372 637 418 669 428 727 c 1
 455 715 l 1
 443 629 379 580 320 580 c 0
 250 580 199 630 185 715 c 1
 212 727 l 1
EndSplineSet
Refer: 121 117 N 1 0 0 1 0 0 2
EndChar

StartChar: Uring
Encoding: 366 366 300
Width: 640
GlyphClass: 2
Flags: MW
LayerCount: 2
Fore
SplineSet
334 818 m 0
 303 818 286 795 286 765 c 0
 286 737 303 712 334 712 c 0
 365 712 382 737 382 765 c 0
 382 796 364 818 334 818 c 0
246 765 m 0
 246 811 288 850 334 850 c 0
 380 850 422 812 422 765 c 0
 422 720 382 680 334 680 c 0
 288 680 246 719 246 765 c 0
EndSplineSet
Refer: 90 85 N 1 0 0 1 0 0 2
EndChar

StartChar: uring
Encoding: 367 367 301
Width: 640
GlyphClass: 2
Flags: MW
LayerCount: 2
Fore
SplineSet
320 687 m 0
 289 687 272 664 272 634 c 0
 272 606 289 581 320 581 c 0
 351 581 368 606 368 634 c 0
 368 665 350 687 320 687 c 0
232 634 m 0
 232 680 274 719 320 719 c 0
 366 719 408 681 408 634 c 0
 408 589 368 549 320 549 c 0
 274 549 232 588 232 634 c 0
EndSplineSet
Refer: 121 117 N 1 0 0 1 0 0 2
EndChar

StartChar: Uhungarumlaut
Encoding: 368 368 302
Width: 640
GlyphClass: 2
Flags: MW
LayerCount: 2
Fore
SplineSet
514 792 m 0
 514 783 511 776 507 772 c 2
 408 688 l 2
 406 686 403 685 400 685 c 0
 395 685 387 690 387 698 c 0
 387 701 388.2 704.4 390.7 709 c 2
 450 818 l 2
 455 826 462 830 473 830 c 0
 502 830 514 808.2 514 792 c 0
383 797 m 0
 383 789 381 782 376 778 c 2
 288 697.5 l 2
 283.6 693.5 279.6 690 274 690 c 0
 267 690 261 695 261 702 c 0
 261 704 261.6 709.2 263.5 713 c 2
 318 823 l 2
 323 831 330 835 345 835 c 0
 360.7 835 383 820.3 383 797 c 0
EndSplineSet
Refer: 90 85 N 1 0 0 1 0 0 2
EndChar

StartChar: Uogonek
Encoding: 370 370 304
Width: 640
GlyphClass: 2
Flags: MW
AnchorPoint: "above" 346 850 basechar 0
AnchorPoint: "below" 188 -110 basechar 0
AnchorPoint: "cedilla" 328 4 basechar 0
AnchorPoint: "middle" 336 321 basechar 0
LayerCount: 2
Fore
SplineSet
498 -135 m 1
 469 -180 429 -200 388 -200 c 0
 338 -200 300 -180 300 -126 c 0
 300 -81.5 340.4 -39.5 397.1 0.4 c 1
 371.4 -6.4 341.9 -10 308 -10 c 0
 222 -10 80 30 80 224 c 2
 80 493 l 2
 80 572 68 577 10 580 c 1
 4 586 4 609 10 615 c 1
 46.5 614 84.5 613 124 613 c 0
 169.5 613 213 614 253 615 c 1
 259 609 259 586 253 580 c 1
 179 577 173 572 173 493 c 2
 173 256 l 2
 173 194 176 122 216 79 c 0
 243 50 282 31 328 31 c 0
 490 31 501 157 501 263 c 2
 501 493 l 2
 501 570 485 574 413 580 c 1
 407 586 407 609 413 615 c 1
 457 614 507.5 613 528 613 c 0
 551.5 613 590 614 626 615 c 1
 632 609 632 586 626 580 c 1
 568 575 554 572 554 493 c 2
 554 280 l 2
 554 181.6 537.3 99.4 484.5 48 c 1
 491 41 l 1
 402.2 -31.7 362 -63.9 362 -115 c 0
 362 -141 375 -162 412 -162 c 0
 441 -162 457 -146 479 -124 c 1
 488 -124 494 -128 498 -135 c 1
EndSplineSet
EndChar

StartChar: uogonek
Encoding: 371 371 305
Width: 640
GlyphClass: 2
Flags: MW
LayerCount: 2
Fore
SplineSet
571 -135 m 1
 542 -180 502 -200 461 -200 c 0
 411 -200 373 -180 373 -126 c 0
 373 -85.3 393.5 -28.9 445 7.8 c 1
 442.2 19.5 439.5 36.9 439.5 59 c 0
 439.5 66 432.6 63.9 427.5 60 c 0
 360 9.1 285.5 -10 246.5 -10 c 0
 147.5 -10 111.5 57 111.5 126 c 2
 111.5 365 l 2
 111.5 400.2 107.4 419.6 96 430.6 c 0
 86.4 439.9 61.5 443.2 39.5 445 c 1
 33.5 451 33.5 476 39.5 482 c 1
 76.5 481 125.5 480 157.5 480 c 0
 172.5 480 189.5 481 194.5 482 c 0
 199.5 482 202.5 479 202.5 476 c 2
 202.5 476 198.5 399 198.5 369 c 2
 198.5 140 l 2
 198.5 51 248.5 37 278.5 37 c 0
 303.5 37 364 56 422.5 99 c 0
 437.4 109.9 438.5 119 438.5 138 c 2
 438.5 364 l 2
 438.5 400.5 434.5 420.5 422.7 431.6 c 0
 413.1 440.6 393.4 443.7 371.5 445 c 1
 365.5 451 365.5 476 371.5 482 c 1
 408.5 481 446.5 480 478.5 480 c 0
 493.5 480 516.5 481 521.5 482 c 0
 526.5 482 529.5 479 529.5 476 c 2
 529.5 476 525.5 399 525.5 369 c 2
 525.5 130 l 2
 525.5 81 537.5 62 601.5 57 c 1
 607.5 51 607.5 36 601.5 30 c 1
 554.6 24.6 514.8 14.5 488.9 1.9 c 1
 448.8 -28.2 435 -79.4 435 -115 c 0
 435 -141 448 -162 485 -162 c 0
 514 -162 530 -146 552 -124 c 1
 561 -124 567 -128 571 -135 c 1
EndSplineSet
EndChar

StartChar: Wcircumflex
Encoding: 372 372 306
Width: 640
GlyphClass: 2
Flags: MW
LayerCount: 2
Fore
SplineSet
346 808 m 1
 376 772 413 738 449 711 c 1
 446.2 701.9 442.1 693.8 433 690 c 1
 394 708 360 726 327 751 c 1
 290 724 258 707 220 690 c 1
 211 696 208 702 206 711 c 1
 243 739 276 774 307 808 c 1
 321 816.4 330.6 815.7 346 808 c 1
EndSplineSet
Refer: 92 87 N 1 0 0 1 0 0 2
EndChar

StartChar: wcircumflex
Encoding: 373 373 307
Width: 640
GlyphClass: 2
Flags: MW
LayerCount: 2
Fore
SplineSet
337 722 m 1
 366 675 410 622 446 582 c 1
 441 575 432.4 566.9 423 565 c 1
 385 589 350 617 320 648 c 1
 288 616 255 587 216 565 c 1
 207 567 200 573 194 582 c 1
 230 622 276 676 305 722 c 1
 315.7 724.3 326.3 725 337 722 c 1
358.5 357 m 1
 441.8 138 l 2
 451.6 112.1 454.7 118.3 461 142 c 2
 524.6 381 l 2
 534.3 417.6 534 441 459 445 c 1
 453 451 453 476 459 482 c 1
 491 481 525 480 563 480 c 0
 599 480 617.3 481 633 482 c 1
 639 476 639 451 633 445 c 1
 587 440 580.1 423 567.5 377 c 2
 467 9 l 2
 463.1 -6.7 454 -12 445 -12 c 0
 435 -12 427.9 -6 422 8 c 2
 317.7 256 l 1
 313 262 l 1
 206 10 l 2
 199.2 -6.1 193 -12 184 -12 c 0
 174 -12 164.6 -6.8 161 8 c 2
 60.1 382 l 2
 45.2 437.1 41 440 7 445 c 1
 1 451 1 476 7 482 c 1
 28 481 57 480 95 480 c 0
 131 480 165.3 481 199 482 c 1
 205 476 205 451 199 445 c 1
 151 442 138.9 435.7 152.9 382 c 2
 206.9 175 l 2
 216.8 137.2 219.5 137.7 236 177 c 2
 308 349 l 1
 358.5 357 l 1
EndSplineSet
EndChar

StartChar: Ycircumflex
Encoding: 374 374 308
Width: 640
GlyphClass: 2
Flags: MW
LayerCount: 2
Fore
SplineSet
362 808 m 1
 392 772 429 738 465 711 c 1
 462.2 701.9 458.1 693.8 449 690 c 1
 410 708 376 726 343 751 c 1
 306 724 274 707 236 690 c 1
 227 696 224 702 222 711 c 1
 259 739 292 774 323 808 c 1
 337 816.4 346.6 815.7 362 808 c 1
EndSplineSet
Refer: 94 89 N 1 0 0 1 0 0 2
EndChar

StartChar: ycircumflex
Encoding: 375 375 309
Width: 640
GlyphClass: 2
Flags: MW
LayerCount: 2
Fore
SplineSet
337 722 m 1
 366 675 410 622 446 582 c 1
 441 575 432.4 566.9 423 565 c 1
 385 589 350 617 320 648 c 1
 288 616 255 587 216 565 c 1
 207 567 200 573 194 582 c 1
 230 622 276 676 305 722 c 1
 315.7 724.3 326.3 725 337 722 c 1
EndSplineSet
Refer: 125 121 N 1 0 0 1 0 0 2
EndChar

StartChar: Ydieresis
Encoding: 376 376 310
Width: 640
GlyphClass: 2
Flags: MW
LayerCount: 2
Fore
SplineSet
388 757 m 0
 388 783 410 805 436 805 c 0
 462 805 484 783 484 757 c 0
 484 731 462 709 436 709 c 0
 410 709 388 731 388 757 c 0
199 757 m 0
 199 783 221 805 247 805 c 0
 273 805 295 783 295 757 c 0
 295 731 273 709 247 709 c 0
 221 709 199 731 199 757 c 0
EndSplineSet
Refer: 94 89 N 1 0 0 1 0 0 2
EndChar

StartChar: Zacute
Encoding: 377 377 311
Width: 640
GlyphClass: 2
Flags: MW
LayerCount: 2
Fore
SplineSet
368 820 m 1
 396.6 806.7 417.3 789.3 430 768 c 1
 286 710 l 2
 265 701 253 698 244 698 c 0
 235 698 229 705 229 713 c 0
 229 720 231 725 244 734 c 2
 368 820 l 1
EndSplineSet
Refer: 95 90 N 1 0 0 1 0 0 2
EndChar

StartChar: zacute
Encoding: 378 378 312
Width: 640
GlyphClass: 2
Flags: MW
LayerCount: 2
Fore
SplineSet
348 729 m 1
 351 730 357 731 362 731 c 0
 368.4 731 394 730 417 708 c 1
 420 697 l 1
 305 588 l 2
 290 573 282 569 275 569 c 0
 268 569 261 575 261 582 c 0
 261 593.2 264.3 597.2 272.4 610 c 2
 348 729 l 1
121 490 m 0
 134.7 486 157.9 480 190 480 c 2
 473 480 l 2
 502 480 540 482 545 482 c 0
 552 482 557 479 557 475 c 0
 557 471 548.2 456.5 529 434 c 0
 428 315.5 260 129.6 183 37 c 1
 396 37 l 2
 448.1 37 487.1 63.2 514 110 c 2
 547 167.5 l 1
 563 166 576 161 582 154.5 c 1
 571 102 558 62 522 -2 c 1
 360.3 -1 233.9 0 72 0 c 1
 64 7.5 60 21.8 62 35 c 1
 86.5 49.5 101.7 64 122.2 89.2 c 0
 210.4 197.8 344 329.5 439 443 c 1
 239 440 l 2
 187 439.2 138 405.5 114 341 c 1
 102.4 338.4 87 342 78 350.5 c 1
 92 408.5 100 436 115 484 c 0
 115 486.4 118.6 490 121 490 c 0
EndSplineSet
EndChar

StartChar: Zdotaccent
Encoding: 379 379 313
Width: 640
GlyphClass: 2
Flags: MW
LayerCount: 2
Fore
SplineSet
258 750 m 0
 258 778 282 802 310 802 c 0
 338 802 362 778 362 750 c 0
 362 722 338 698 310 698 c 0
 282 698 258 722 258 750 c 0
EndSplineSet
Refer: 95 90 N 1 0 0 1 0 0 2
EndChar

StartChar: zdotaccent
Encoding: 380 380 314
Width: 640
GlyphClass: 2
Flags: MW
LayerCount: 2
Fore
SplineSet
264 650 m 0
 264 678 295 705 322 705 c 0
 352 705 376 673 376 645 c 0
 376 621 349 590 318 590 c 0
 291 590 264 620 264 650 c 0
121 490 m 0
 134.7 486 157.9 480 190 480 c 2
 473 480 l 2
 502 480 540 482 545 482 c 0
 552 482 557 479 557 475 c 0
 557 471 548.2 456.5 529 434 c 0
 428 315.5 260 129.6 183 37 c 1
 396 37 l 2
 448.1 37 487.1 63.2 514 110 c 2
 547 167.5 l 1
 563 166 576 161 582 154.5 c 1
 571 102 558 62 522 -2 c 1
 360.3 -1 233.9 0 72 0 c 1
 64 7.5 60 21.8 62 35 c 1
 86.5 49.5 101.7 64 122.2 89.2 c 0
 210.4 197.8 344 329.5 439 443 c 1
 239 440 l 2
 187 439.2 138 405.5 114 341 c 1
 102.4 338.4 87 342 78 350.5 c 1
 92 408.5 100 436 115 484 c 0
 115 486.4 118.6 490 121 490 c 0
EndSplineSet
EndChar

StartChar: Zcaron
Encoding: 381 381 315
Width: 640
GlyphClass: 2
Flags: MW
LayerCount: 2
Fore
SplineSet
300 697 m 1
 270 734 235 764 199 792 c 1
 215 812 l 1
 254 795 288 776 321 751 c 1
 358 777 390 796 428 812 c 1
 443 792 l 1
 405 763 373 731 343 697 c 1
 300 697 l 1
EndSplineSet
Refer: 95 90 N 1 0 0 1 0 0 2
EndChar

StartChar: zcaron
Encoding: 382 382 316
Width: 640
GlyphClass: 2
Flags: MW
LayerCount: 2
Fore
SplineSet
295 584 m 1
 266 631 229 676 194 714 c 1
 214 727 l 1
 253 698 286 673 320 637 c 1
 357 675 391 700 428 727 c 1
 447 714 l 1
 412 675 374 630 345 584 c 1
 295 584 l 1
121 490 m 0
 134.7 486 157.9 480 190 480 c 2
 473 480 l 2
 502 480 540 482 545 482 c 0
 552 482 557 479 557 475 c 0
 557 471 548.2 456.5 529 434 c 0
 428 315.5 260 129.6 183 37 c 1
 396 37 l 2
 448.1 37 487.1 63.2 514 110 c 2
 547 167.5 l 1
 563 166 576 161 582 154.5 c 1
 571 102 558 62 522 -2 c 1
 360.3 -1 233.9 0 72 0 c 1
 64 7.5 60 21.8 62 35 c 1
 86.5 49.5 101.7 64 122.2 89.2 c 0
 210.4 197.8 344 329.5 439 443 c 1
 239 440 l 2
 187 439.2 138 405.5 114 341 c 1
 102.4 338.4 87 342 78 350.5 c 1
 92 408.5 100 436 115 484 c 0
 115 486.4 118.6 490 121 490 c 0
EndSplineSet
EndChar

StartChar: longs
Encoding: 383 383 317
Width: 640
GlyphClass: 2
Flags: MW
AnchorPoint: "middle" 241.5 215 basechar 0
AnchorPoint: "right" 466.5 750 basechar 0
AnchorPoint: "below" 238.5 -110 basechar 0
LayerCount: 2
Fore
SplineSet
290 126 m 2
 290 78 293 59 310 49 c 0
 322 42 383 39 489 35 c 1
 495 29 495 4 489 -2 c 1
 446 -1 341.4 0 247 0 c 0
 177.6 0 111 -1 69 -2 c 1
 63 4 63 29 69 35 c 1
 145 37 176 41 186 49 c 0
 200 59 203 78 203 126 c 2
 203 396 l 1
 95 396 l 2
 91 396 89 397 89 402 c 2
 89 420 l 2
 89 428 95 440 113 440 c 2
 203 440 l 1
 203 493 l 2
 203 658 329 698 419 698 c 0
 467 698 515 685.4 554 660 c 0
 574 647 588 621 588 601 c 0
 588 571 563 556 544 556 c 0
 521 556 502.5 562.8 494 584 c 0
 473 636 451 660 409 660 c 0
 376 660 290 637 290 510 c 2
 290 126 l 2
EndSplineSet
EndChar

StartChar: gravecomb
Encoding: 768 768 318
Width: 640
GlyphClass: 4
Flags: MW
AnchorPoint: "above" 337 704 mark 0
LayerCount: 2
Fore
SplineSet
323 729 m 1
 393 603 l 2
 398 593 399 586 399 579 c 0
 399 574 392 568 384 568 c 0
 378 568 371 573 355 588 c 2
 241 697 l 1
 243 708 l 1
 251 714 274 731 308 731 c 0
 313 731 319 730 323 729 c 1
EndSplineSet
EndChar

StartChar: acutecomb
Encoding: 769 769 319
Width: 640
GlyphClass: 4
Flags: MW
AnchorPoint: "above" 288.5 733 mark 0
LayerCount: 2
Fore
SplineSet
327.5 729 m 1
 330.5 730 336.5 731 341.5 731 c 0
 347.900390625 731 373.5 730 396.5 708 c 1
 399.5 697 l 1
 284.5 588 l 2
 269.5 573 261.5 569 254.5 569 c 0
 247.5 569 240.5 575 240.5 582 c 0
 240.5 593.200195312 243.799804688 597.200195312 251.900390625 610 c 2
 327.5 729 l 1
EndSplineSet
EndChar

StartChar: uni0302
Encoding: 770 770 320
Width: 640
GlyphClass: 4
Flags: MW
AnchorPoint: "above" 321 708 mark 0
LayerCount: 2
Fore
SplineSet
337 722 m 1
 366 675 410 622 446 582 c 1
 441 575 432.400390625 566.900390625 423 565 c 1
 385 589 350 617 320 648 c 1
 288 616 255 587 216 565 c 1
 207 567 200 573 194 582 c 1
 230 622 276 676 305 722 c 1
 315.700195312 724.299804688 326.299804688 725 337 722 c 1
EndSplineSet
EndChar

StartChar: tildecomb
Encoding: 771 771 321
Width: 640
GlyphClass: 4
Flags: MW
AnchorPoint: "above" 330 718 mark 0
LayerCount: 2
Fore
SplineSet
385 642 m 0
 407 642 418 652 432 694 c 1
 443 695 453 692 459 688 c 1
 447 628 418 589 372 589 c 0
 350 589 328 605 308 621 c 0
 291.5 634.200195312 271 640 254 640 c 0
 228 640 218 625 208 592 c 1
 197 590 187 591 181 597 c 1
 195 656 218 695 261 695 c 0
 291 695 314.5 676.900390625 333 661 c 0
 347.299804688 648.700195312 366 642 385 642 c 0
EndSplineSet
EndChar

StartChar: uni0307
Encoding: 775 775 322
Width: 640
GlyphClass: 4
Flags: MW
AnchorPoint: "above" 320 741 mark 0
LayerCount: 2
Fore
SplineSet
264 650 m 0
 264 678 295 705 322 705 c 0
 352 705 376 673 376 645 c 0
 376 621 349 590 318 590 c 0
 291 590 264 620 264 650 c 0
EndSplineSet
EndChar

StartChar: uni0308
Encoding: 776 776 323
Width: 640
GlyphClass: 4
Flags: MW
AnchorPoint: "above" 319.5 716 mark 0
LayerCount: 2
Fore
SplineSet
183.5 644 m 0
 183.5 670 204.5 692 230.5 692 c 0
 256.5 692 277.5 670 277.5 644 c 0
 277.5 618 256.5 597 230.5 597 c 0
 204.5 597 183.5 618 183.5 644 c 0
362.5 644 m 0
 362.5 670 383.5 692 409.5 692 c 0
 435.5 692 456.5 670 456.5 644 c 0
 456.5 618 435.5 597 409.5 597 c 0
 383.5 597 362.5 618 362.5 644 c 0
EndSplineSet
EndChar

StartChar: hookabovecomb
Encoding: 777 777 324
Width: 640
GlyphClass: 4
Flags: MW
AnchorPoint: "above" 321 816 mark 0
LayerCount: 2
Fore
SplineSet
393 774 m 0
 393 754 378 738 362 722 c 0
 345 706 335 689 333 663 c 1
 305 663 l 1
 306 697 319 719 330 736 c 0
 338 748 343 760 343 772 c 0
 343 795 335 805 314 805 c 0
 295 805 290 799 290 794 c 0
 290 790 291 788 292 786 c 0
 293 783 296 777 296 769 c 0
 296 758 283 748 274 748 c 0
 255 748 247 763 247 775 c 0
 247 797 280 832 322 832 c 0
 377 832 393 791 393 774 c 0
EndSplineSet
EndChar

StartChar: uni030C
Encoding: 780 780 325
Width: 640
GlyphClass: 4
Flags: MW
AnchorPoint: "above" 318.5 727 mark 0
LayerCount: 2
Fore
SplineSet
294.5 584 m 1
 265.5 631 228.5 676 193.5 714 c 1
 213.5 727 l 1
 252.5 698 285.5 673 319.5 637 c 1
 356.5 675 390.5 700 427.5 727 c 1
 446.5 714 l 1
 411.5 675 373.5 630 344.5 584 c 1
 294.5 584 l 1
EndSplineSet
EndChar

StartChar: uni030F
Encoding: 783 783 326
Width: 640
GlyphClass: 4
Flags: MW
AnchorPoint: "above" 347.5 809 mark 0
LayerCount: 2
Fore
SplineSet
227.5 802 m 0
 239.5 802 246.5 800 251.5 791 c 2
 329.5 652 l 2
 330.5 651 330.5 649 330.5 648 c 0
 330.5 638.299804688 320.099609375 634 317.5 634 c 0
 314.5 634 312.5 635 310.5 637 c 2
 196.5 747 l 2
 191.5 753 189.5 760 189.5 766 c 0
 189.5 783.900390625 204.099609375 802 227.5 802 c 0
363.5 808 m 0
 374.5 808 382.5 803 386.5 794 c 2
 449.200195312 651 l 2
 450.5 648 450.5 646 450.5 645 c 0
 450.5 642.400390625 447.700195312 632 436.5 632 c 0
 433.5 632 431.5 633 429.5 635 c 2
 327.5 756 l 2
 322.5 761 321.5 767 321.5 772 c 0
 321.5 785.799804688 332 808 363.5 808 c 0
EndSplineSet
EndChar

StartChar: uni031B
Encoding: 795 795 327
Width: 640
GlyphClass: 4
Flags: MW
AnchorPoint: "komb_OR" 335.5 356 mark 0
LayerCount: 2
Fore
SplineSet
375.5 415 m 0
 375.5 364 343.5 332 288.5 332 c 2
 264.5 332 l 1
 264.5 358 l 1
 288.5 358 l 2
 299.5 358 340.5 362 340.5 396 c 0
 340.5 409 327.5 417 313.5 418 c 0
 278.5 422 265.5 444 265.5 464 c 0
 265.5 488 283.5 503 311.5 503 c 0
 349.5 503 375.5 462 375.5 415 c 0
EndSplineSet
EndChar

StartChar: dotbelowcomb
Encoding: 803 803 328
Width: 640
GlyphClass: 4
Flags: MW
AnchorPoint: "below" 320 -113 mark 0
LayerCount: 2
Fore
SplineSet
266 -113 m 0
 266 -82 289 -59 320 -59 c 0
 351 -59 374 -82 374 -113 c 0
 374 -144 351 -167 320 -167 c 0
 289 -167 266 -144 266 -113 c 0
EndSplineSet
EndChar

StartChar: uni0326
Encoding: 806 806 329
Width: 640
GlyphClass: 4
Flags: MW
AnchorPoint: "below" 310 -82 mark 0
LayerCount: 2
Fore
SplineSet
315 -41 m 0
 353 -41 377 -75 377 -127 c 0
 377 -187 328 -217 271 -226 c 1
 265 -220 263 -211 263 -202 c 1
 312 -191 338 -167 338 -149 c 0
 338 -129 325 -125 307 -123 c 1
 290 -120 265 -111 265 -84 c 0
 265 -60 286 -41 315 -41 c 0
EndSplineSet
EndChar

StartChar: uni0327
Encoding: 807 807 330
Width: 640
GlyphClass: 4
Flags: MW
AnchorPoint: "cedilla" 319.5 -3 mark 0
LayerCount: 2
Fore
SplineSet
315.5 -96 m 0
 296.5 -96 286.5 -97 270.5 -102 c 1
 264.5 -96 l 1
 304.5 0 l 1
 338.5 0 l 1
 313.5 -67 l 1
 321.5 -65 330.5 -64 339.5 -64 c 0
 379.5 -64 410.5 -88 410.5 -126 c 0
 410.5 -169 364.5 -200 303.5 -200 c 0
 271.5 -200 254.5 -194 229.5 -183 c 1
 229.5 -171 232.5 -164 239.5 -157 c 1
 266.5 -167 277.5 -171 297.5 -171 c 0
 327.5 -171 348.5 -157 348.5 -131 c 0
 348.5 -110 338.5 -96 315.5 -96 c 0
EndSplineSet
EndChar

StartChar: endash
Encoding: 8211 8211 331
Width: 640
GlyphClass: 2
Flags: MW
LayerCount: 2
Fore
SplineSet
92 287 m 1
 548 287 l 1
 548 238 l 1
 92 238 l 1
 92 287 l 1
EndSplineSet
EndChar

StartChar: emdash
Encoding: 8212 8212 332
Width: 640
GlyphClass: 2
Flags: MW
LayerCount: 2
Fore
SplineSet
0 287 m 1
 640 287 l 1
 640 238 l 1
 0 238 l 1
 0 287 l 1
EndSplineSet
EndChar

StartChar: uni2015
Encoding: 8213 8213 333
Width: 640
GlyphClass: 2
Flags: MW
LayerCount: 2
Fore
SplineSet
0 287 m 1
 640 287 l 1
 640 238 l 1
 0 238 l 1
 0 287 l 1
EndSplineSet
EndChar

StartChar: quoteleft
Encoding: 8216 8216 334
Width: 640
GlyphClass: 2
Flags: MW
LayerCount: 2
Fore
SplineSet
300.5 452 m 0
 252.5 452 219.5 503 219.5 575 c 0
 219.5 659 309.5 725 371.5 738 c 1
 379.5 730 387.5 714 387.5 702 c 1
 325.5 686 277.5 630 277.5 605 c 0
 277.5 577 288.5 570 311.5 568 c 1
 333.5 564 364.5 553 364.5 515 c 0
 364.5 481 337.5 452 300.5 452 c 0
EndSplineSet
EndChar

StartChar: quoteright
Encoding: 8217 8217 335
Width: 640
GlyphClass: 2
Flags: MW
LayerCount: 2
Fore
SplineSet
339.5 705 m 0
 387.5 705 420.5 654 420.5 582 c 0
 420.5 498 330.5 432 268.5 419 c 1
 260.5 427 252.5 443 252.5 455 c 1
 314.5 471 362.5 527 362.5 552 c 0
 362.5 580 351.5 587 328.5 589 c 1
 306.5 593 275.5 604 275.5 642 c 0
 275.5 676 302.5 705 339.5 705 c 0
EndSplineSet
EndChar

StartChar: quotesinglbase
Encoding: 8218 8218 336
Width: 640
GlyphClass: 2
Flags: MW
LayerCount: 2
Fore
SplineSet
339.5 122 m 0
 387.5 122 420.5 71 420.5 -1 c 0
 420.5 -85 330.5 -151 268.5 -164 c 1
 260.5 -156 252.5 -140 252.5 -128 c 1
 314.5 -112 362.5 -56 362.5 -31 c 0
 362.5 -3 351.5 4 328.5 6 c 1
 306.5 10 275.5 21 275.5 59 c 0
 275.5 93 302.5 122 339.5 122 c 0
EndSplineSet
EndChar

StartChar: quotereversed
Encoding: 8219 8219 337
Width: 640
GlyphClass: 2
Flags: MW
LayerCount: 2
Fore
SplineSet
320 705 m 0
 357 705 384 676 384 642 c 0
 384 604 354 593 332 589 c 1
 309 587 298 580 298 552 c 0
 298 527 346 471 408 455 c 1
 408 443 400 427 392 419 c 1
 330 432 240 498 240 582 c 0
 240 654 272 705 320 705 c 0
EndSplineSet
EndChar

StartChar: quotedblleft
Encoding: 8220 8220 338
Width: 640
GlyphClass: 2
Flags: MW
LayerCount: 2
Fore
SplineSet
436.5 452 m 0
 388.5 452 355.5 503 355.5 575 c 0
 355.5 659 445.5 725 507.5 738 c 1
 515.5 730 523.5 714 523.5 702 c 1
 461.5 686 413.5 630 413.5 605 c 0
 413.5 577 424.5 570 447.5 568 c 1
 469.5 564 500.5 553 500.5 515 c 0
 500.5 481 473.5 452 436.5 452 c 0
223.5 452 m 0
 175.5 452 142.5 503 142.5 575 c 0
 142.5 659 232.5 725 294.5 738 c 1
 302.5 730 310.5 714 310.5 702 c 1
 248.5 686 200.5 630 200.5 605 c 0
 200.5 577 211.5 570 234.5 568 c 1
 256.5 564 287.5 553 287.5 515 c 0
 287.5 481 260.5 452 223.5 452 c 0
EndSplineSet
EndChar

StartChar: quotedblright
Encoding: 8221 8221 339
Width: 640
GlyphClass: 2
Flags: MW
LayerCount: 2
Fore
SplineSet
203.5 705 m 0
 251.5 705 284.5 654 284.5 582 c 0
 284.5 498 194.5 432 132.5 419 c 1
 124.5 427 116.5 443 116.5 455 c 1
 178.5 471 226.5 527 226.5 552 c 0
 226.5 580 215.5 587 192.5 589 c 1
 170.5 593 139.5 604 139.5 642 c 0
 139.5 676 166.5 705 203.5 705 c 0
416.5 705 m 0
 464.5 705 497.5 654 497.5 582 c 0
 497.5 498 407.5 432 345.5 419 c 1
 337.5 427 329.5 443 329.5 455 c 1
 391.5 471 439.5 527 439.5 552 c 0
 439.5 580 428.5 587 405.5 589 c 1
 383.5 593 352.5 604 352.5 642 c 0
 352.5 676 379.5 705 416.5 705 c 0
EndSplineSet
EndChar

